<svg xmlns="http://www.w3.org/2000/svg" viewBox="0 0 1065 1065"><defs><style>.cls-1{fill:#29011c;}.cls-2{fill:#fff;}.cls-3{fill:#8f2b2b;}.cls-4{fill:#e34a28;}.cls-5{fill:#f49c06;}.cls-6{fill:#ca1410;}.cls-7{fill:#ef8716;}.cls-8{fill:#f6b42c;}.cls-9{fill:#fcd651;}.cls-10{fill:#ffe591;}.cls-11{fill:#290100;}</style></defs><title>bigbang</title><g id="Layer_2" data-name="Layer 2"><g id="Layer_1-2" data-name="Layer 1"><circle class="cls-1" cx="532.5" cy="532.5" r="532.5"/><polygon class="cls-2" points="232.8 240.61 227.25 238.82 222.63 242.38 222.62 236.55 217.81 233.26 223.35 231.44 224.99 225.85 228.43 230.56 234.26 230.39 230.85 235.12 232.8 240.61"/><polygon class="cls-2" points="387.17 98.01 381.62 96.22 377 99.78 376.99 93.95 372.17 90.66 377.71 88.84 379.36 83.24 382.8 87.95 388.63 87.79 385.21 92.51 387.17 98.01"/><polygon class="cls-2" points="65.17 535.01 59.62 533.22 55 536.78 54.98 530.95 50.17 527.65 55.71 525.84 57.36 520.24 60.8 524.95 66.63 524.79 63.21 529.51 65.17 535.01"/><polygon class="cls-2" points="732.17 949.01 726.62 947.22 722 950.78 721.99 944.95 717.17 941.65 722.71 939.84 724.36 934.24 727.8 938.95 733.63 938.79 730.21 943.51 732.17 949.01"/><polygon class="cls-2" points="385.17 965.01 379.62 963.22 375 966.78 374.99 960.95 370.17 957.65 375.71 955.84 377.36 950.24 380.8 954.95 386.63 954.79 383.21 959.51 385.17 965.01"/><polygon class="cls-2" points="560.17 957.01 554.62 955.22 550 958.78 549.99 952.95 545.17 949.65 550.71 947.84 552.36 942.24 555.8 946.95 561.63 946.79 558.21 951.51 560.17 957.01"/><polygon class="cls-2" points="426.17 857.01 420.62 855.22 416 858.78 415.99 852.95 411.17 849.65 416.71 847.84 418.36 842.24 421.8 846.95 427.63 846.79 424.21 851.51 426.17 857.01"/><polygon class="cls-2" points="800.17 862.01 794.62 860.22 790 863.78 789.99 857.95 785.17 854.65 790.71 852.84 792.36 847.24 795.8 851.95 801.63 851.79 798.21 856.51 800.17 862.01"/><polygon class="cls-2" points="921.17 723.01 915.62 721.22 911 724.78 910.99 718.95 906.17 715.65 911.71 713.84 913.36 708.24 916.8 712.95 922.63 712.79 919.21 717.51 921.17 723.01"/><polygon class="cls-2" points="940.17 371.01 934.62 369.22 930 372.78 929.99 366.95 925.17 363.65 930.71 361.84 932.36 356.24 935.8 360.95 941.63 360.79 938.21 365.51 940.17 371.01"/><polygon class="cls-2" points="873.17 568.01 867.62 566.22 863 569.78 862.99 563.95 858.17 560.65 863.71 558.84 865.36 553.24 868.8 557.95 874.63 557.79 871.21 562.51 873.17 568.01"/><polygon class="cls-2" points="638.17 672.01 632.62 670.22 628 673.78 627.99 667.95 623.17 664.65 628.71 662.84 630.36 657.24 633.8 661.95 639.63 661.79 636.21 666.51 638.17 672.01"/><polygon class="cls-2" points="418.17 763.01 412.62 761.22 408 764.78 407.99 758.95 403.17 755.65 408.71 753.84 410.36 748.24 413.8 752.95 419.63 752.79 416.21 757.51 418.17 763.01"/><polygon class="cls-2" points="385.17 272.01 379.62 270.22 375 273.78 374.99 267.95 370.17 264.65 375.71 262.84 377.36 257.24 380.8 261.95 386.63 261.79 383.21 266.51 385.17 272.01"/><polygon class="cls-2" points="129.17 666.01 123.62 664.22 119 667.78 118.98 661.95 114.17 658.65 119.71 656.84 121.36 651.24 124.8 655.95 130.63 655.79 127.21 660.51 129.17 666.01"/><polygon class="cls-2" points="654.17 416.01 648.62 414.22 644 417.78 643.99 411.95 639.17 408.65 644.71 406.84 646.36 401.24 649.8 405.95 655.63 405.79 652.21 410.51 654.17 416.01"/><polygon class="cls-2" points="550.17 784.01 544.62 782.22 540 785.78 539.99 779.95 535.17 776.65 540.71 774.84 542.36 769.24 545.8 773.95 551.63 773.79 548.21 778.51 550.17 784.01"/><polygon class="cls-2" points="562.17 98.01 556.62 96.22 552 99.78 551.99 93.95 547.17 90.66 552.71 88.84 554.36 83.24 557.8 87.95 563.63 87.79 560.21 92.51 562.17 98.01"/><polygon class="cls-2" points="426.17 379.01 420.62 377.22 416 380.78 415.99 374.95 411.17 371.65 416.71 369.84 418.36 364.24 421.8 368.95 427.63 368.79 424.21 373.51 426.17 379.01"/><polygon class="cls-2" points="273.17 810.01 267.62 808.22 263 811.78 262.99 805.95 258.17 802.65 263.71 800.84 265.36 795.24 268.8 799.95 274.63 799.79 271.21 804.51 273.17 810.01"/><polygon class="cls-2" points="173.17 408.01 167.62 406.22 163 409.78 162.99 403.95 158.17 400.65 163.71 398.84 165.36 393.24 168.8 397.95 174.63 397.79 171.21 402.51 173.17 408.01"/><polygon class="cls-2" points="595.17 272.01 589.62 270.22 585 273.78 584.99 267.95 580.17 264.65 585.71 262.84 587.36 257.24 590.8 261.95 596.63 261.79 593.21 266.51 595.17 272.01"/><polygon class="cls-2" points="570.6 433.98 565.05 432.19 560.43 435.75 560.41 429.92 555.6 426.63 561.14 424.81 562.79 419.22 566.23 423.93 572.06 423.76 568.64 428.49 570.6 433.98"/><polygon class="cls-2" points="570.6 433.98 565.05 432.19 560.43 435.75 560.41 429.92 555.6 426.63 561.14 424.81 562.79 419.22 566.23 423.93 572.06 423.76 568.64 428.49 570.6 433.98"/><polygon class="cls-2" points="570.6 433.98 565.05 432.19 560.43 435.75 560.41 429.92 555.6 426.63 561.14 424.81 562.79 419.22 566.23 423.93 572.06 423.76 568.64 428.49 570.6 433.98"/><polygon class="cls-2" points="570.6 433.98 565.05 432.19 560.43 435.75 560.41 429.92 555.6 426.63 561.14 424.81 562.79 419.22 566.23 423.93 572.06 423.76 568.64 428.49 570.6 433.98"/><polygon class="cls-2" points="777.17 203.98 771.62 202.19 767 205.75 766.99 199.92 762.17 196.63 767.71 194.81 769.36 189.22 772.8 193.93 778.63 193.76 775.21 198.49 777.17 203.98"/><polygon class="cls-2" points="273.17 567.98 267.62 566.2 263 569.75 262.99 563.92 258.17 560.63 263.71 558.81 265.36 553.22 268.8 557.93 274.63 557.76 271.21 562.49 273.17 567.98"/><polygon class="cls-2" points="963.17 465.89 957.62 464.11 953 467.66 952.99 461.83 948.17 458.54 953.71 456.72 955.36 451.13 958.8 455.84 964.63 455.67 961.21 460.4 963.17 465.89"/><polygon class="cls-2" points="753.17 318.89 747.62 317.11 743 320.66 742.99 314.83 738.17 311.54 743.71 309.72 745.36 304.13 748.8 308.84 754.63 308.67 751.21 313.4 753.17 318.89"/><polygon class="cls-2" points="426.17 601.89 420.62 600.11 416 603.66 415.99 597.83 411.17 594.54 416.71 592.72 418.36 587.13 421.8 591.84 427.63 591.67 424.21 596.4 426.17 601.89"/><path class="cls-3" d="M562.14,161c16.75,14.57,10.65,32.15,24.13,40.51,14.74,9.13,30.89-6.39,53.25-8.62,19.6-2,47.14,6,83.2,47.39,5.62-4.07,19.18-12.62,37.44-12.06s40.73,10.31,48.25,28.44c4.72,11.34-.72,15.55,4.16,25.85,7.44,15.7,24.43,15.17,43.27,25.85,27.22,15.45,39.21,43.5,44.92,56.87,6.52,15.26,15.63,44.26,9.16,79.28a134.77,134.77,0,0,1-19.14,48.26c6.06,3,23.37,12.57,33.28,33.61,10.8,22.92,9.09,51.53-5.82,73.25-18.53,27-48.16,29.82-52.42,30.16,2.3,19.3,4.95,63.32-16.64,111.16-23.54,52.15-61.94,77.93-79.87,89.62-10.1,6.58-91.22,57.61-185.53,28.44a208.87,208.87,0,0,1-56.58-27.58L483.94,853c-13.31,5-40.07,12.64-72.39,6-59.45-12.16-89.08-62.78-94-71.53-18.27,12.53-41.22,14-59.07,3.45-23.37-13.82-28.46-42.61-25.79-62.05,3.16-23.07,17.82-37.22,22.46-41.36a90.37,90.37,0,0,1-30.78-25C195,625.13,206,576.61,207.72,569.49A92.65,92.65,0,0,1,160.29,548C132,523.17,121,481.6,130.34,445.41c1.54-6,12.25-44.87,49.09-62.91a86.46,86.46,0,0,1,39.93-8.62,157.06,157.06,0,0,1,.84-48.25c10.5-59.87,53.59-94.83,67.39-105.14a166,166,0,0,1,58.24-31c44-13,81.38-3.43,97.34,1.73a87.3,87.3,0,0,1,24.13-26.72c23.55-17,48.13-15.94,55.74-15.51C535.32,149.67,550,150.51,562.14,161Z"/><path class="cls-4" d="M390.75,331.66c2.18-11.61,8.05-33.7,25.8-52.57,35-37.26,86.54-30.24,100.67-27.57,44.15,8.32,70,39.45,77.37,49.11,7.23-6,25-19.2,50.75-21.54,6.75-.61,46.73-3.46,74.88,29.3s20.87,73.83,20,78.42a124.12,124.12,0,0,1,64.9,34.47c39.53,40.14,37.08,93.23,36.6,100.82a135.64,135.64,0,0,1-20.8,63.77,94.4,94.4,0,0,1,11.65,36.19c4.42,41.71-21.31,72.35-26.62,78.42-14.3,5.75-30.13,11.35-47.43,16.37-13.4,3.89-26.21,7-38.27,9.48l-40.77,38.78a122.64,122.64,0,0,1-48.25,19.82c-42.86,7.38-85-10.11-111.49-37.06a124.48,124.48,0,0,1-14.14-17.23,184.55,184.55,0,0,1-49.92,14.65c-22.18,3.17-77.59,11.11-117.31-24.13-33.59-29.8-46-81.63-34.95-132.71A113.16,113.16,0,0,1,265.12,554C230,503,251,440.08,254.31,430.76c18.86-53.58,62.32-77.55,76.54-84.45A147.69,147.69,0,0,1,390.75,331.66Z"/><path class="cls-5" d="M538,364.4a175.43,175.43,0,0,1,47.42-25c20.83-7.12,48.08-16.45,79-6,32.42,10.91,49.46,36.94,55.74,46.53,7.43,11.35,22.86,34.91,20.8,68.08-2,32.6-19.67,54.29-25.79,61.18a100.57,100.57,0,0,1,27.46,45.68,104.29,104.29,0,0,1-2.5,62.9c-1.82,5.17-14.11,38.56-44.93,48.26-31.6,9.94-60.57-12-73.21-21.54a121.06,121.06,0,0,1-27.46-29.3,107.69,107.69,0,0,1-20,32.74c-28.34,31.64-66.65,34.66-77.37,35.33-11.89.75-48.49,3-79.87-24.13-7.46-6.45-41.9-38.2-36.61-86.17,4.92-44.61,40.31-67.75,44.93-70.66a95.42,95.42,0,0,1-34.11-50.84c-1.43-5.37-11.26-45.12,14.14-79.28,29.28-39.38,77.62-34,80.7-33.61C513.69,342.08,531.57,358,538,364.4Z"/><path class="cls-6" d="M246,398.87c3-.06,4-16.83,6.65-30.16,8-40.21,34.1-66.68,49.92-82.72,57.08-57.88,133.86-57.6,132.29-68.94-1-7.45-34.35-9.45-58.24-6.9-14.24,1.52-53.68,6.31-89,38.78-2.94,2.7-51.2,48.32-49.92,110.3C238,377.16,242.6,398.94,246,398.87Z"/><path class="cls-6" d="M787.13,318.13c-.29,2.33,10,4.72,18,8.05,24.08,10,37.64,33,45.86,46.94,29.64,50.22,21,110.47,28.2,110.3,4.74-.11,9.66-26.07,10.71-45.07.63-11.32,2-42.72-14.25-73.51-1.35-2.56-24.35-44.72-63-49.52C801.5,313.93,787.46,315.46,787.13,318.13Z"/><path class="cls-7" d="M420,305.09c1.49,1.23,7.73-5.48,13.6-10,17.68-13.76,39.6-14,52.88-14.12,47.91-.49,85.64,32.17,88.75,26.67,2-3.61-13.7-18.58-26.34-27.62-7.53-5.39-28.61-20.06-57.12-21.2-2.37-.09-41.75-1.09-62.31,25.88C423.49,292.46,418.29,303.68,420,305.09Z"/><path class="cls-7" d="M317.4,572.16c1.75-1.66-5.82-11.85-10.74-20.94-14.84-27.44-12.12-56.93-10.46-74.8,6-64.47,52.15-106.38,45.67-112-4.26-3.71-25.21,13.4-38.3,28-7.8,8.67-29.11,33-34.45,71-.45,3.15-7.11,55.76,23.93,90.61C302,564.06,315.4,574.06,317.4,572.16Z"/><path class="cls-8" d="M614.13,350.22c.31,1.4,7.8.26,13.92.22,18.47-.12,32.67,9.68,41.27,15.62,31,21.41,38.4,57.83,43.24,56,3.18-1.21.81-17.19-2.65-28.27-2-6.6-8-24.82-25.75-38.41-1.47-1.13-26.25-19.56-53.4-12.93C622.91,344.34,613.77,348.62,614.13,350.22Z"/><path class="cls-8" d="M716.11,551.91c-1.35.34-.21,8.08-.13,14.42.23,19.13-9.14,33.9-14.82,42.84-20.48,32.28-55.59,40.14-53.78,45.14,1.19,3.28,16.6.72,27.28-2.92,6.35-2.17,23.91-8.46,36.92-26.91,1.08-1.53,18.73-27.31,12.16-55.39C721.84,561,717.65,551.53,716.11,551.91Z"/><path class="cls-8" d="M468.47,659.4c.27-1.41-7-3.54-12.61-6.09-16.91-7.71-26-22.67-31.5-31.73-19.87-32.69-12.22-69-17.37-69.4-3.37-.24-7.52,15.35-8.74,26.92-.72,6.89-2.48,26,8.34,46,.9,1.65,16.24,29,43.63,34.42C458.14,661.05,468.17,661,468.47,659.4Z"/><path class="cls-7" d="M799.59,586.74c-1.36.34,0,9,.2,16,.67,21.29-8.47,37.49-14,47.31-20,35.41-55.27,43.3-53.32,48.91,1.28,3.68,16.79,1.21,27.49-2.59a69.36,69.36,0,0,0,36.71-29c1.06-1.68,18.3-29.94,11-61.34C805.58,597,801.14,586.35,799.59,586.74Z"/><path class="cls-7" d="M700.54,697.31c-1.4-1.1-9.23,8.13-16.3,14.78-21.33,20-45,25.31-59.42,28.51-51.85,11.52-87.38-17.83-91.62-10.72-2.78,4.67,11.81,18.48,24,26.1,7.27,4.54,27.69,16.78,58.32,11.58,2.55-.43,44.94-8.27,71.5-44.34C694.72,712.79,702.14,698.55,700.54,697.31Z"/><path class="cls-6" d="M479.9,827.22c-1-2.12-10.88,1.63-19.34,3.3-25.5,5-48.9-6.7-63.08-13.81-51.15-25.66-75.31-81.19-81.29-77-3.93,2.75,5.48,27.35,14.51,43.92,5.37,9.87,20.61,37.07,50.35,53.87,2.48,1.39,43.83,24,78.84,6.4C470,838.8,481,829.65,479.9,827.22Z"/><path class="cls-9" d="M574.62,410.94c-12.33-3-17.83-19.13-19.13-23.27a786.87,786.87,0,0,1-14.15-79.28c-5.7-45.43-7.48-91.34-7.48-91.34-.67-17.08-.79-31-1.67-31-1.23,0-3.46,27.26-4.16,52.57C526.91,279.21,529,341,524.7,398c-.65,8.67-2.11,25.53-12.48,31-8,4.25-17.71-.21-25-3.44-20.72-9.24-43.6-13.47-63.23-25-58.38-34.29-149-73.88-149.75-72.39-.33.64,15.38,9.63,43.26,26.71,0,0,35.95,22,96.51,70.67,9,7.2,20.78,17,23.3,32.74,1.83,11.52-2,21.6-5,27.58a296.69,296.69,0,0,1-44.09,17.23c-30.66,9.23-49.53,9.42-96.51,14.65-32.07,3.57-85.88,10.45-85.7,12.93.1,1.4,17.34.78,65.73,0,152.81-2.48,29.15,2.89,139.77,4.31,19.47.24,38,.27,40.77,8.61,2.41,7.26-8.24,17.31-19.13,26.72-45.88,39.62-92.66,65-125.45,83.57-10.9,6.18-28.44,16.25-50.1,29.31,93.22-41.5,161.42-71.52,175.55-77.55a66.94,66.94,0,0,1,15-4.31c6.8-1.15,19-3.23,25.79,1.72,9,6.62,6.83,24.73,5,37.92-3.08,22.25-8.28,53.49-17.47,92.2-4,15.12-10.25,37.85-18.3,65.49-10.84,37.23-17.47,57.43-16.64,57.74,1.08.4,13.4-33.09,31.62-81,15.74-41.41,29-75.5,38.27-99.1,3.84-22.14,14.18-37.84,26.62-39.64a20,20,0,0,1,10.82,1.72c17.63,7.49,24.15,32,28.28,48.26,11.09,43.75,20.91,88.86,21.64,88.76s2-43.71-4.16-118.06c-1.26-15.24-3.31-37.69,6.65-43.09,6.79-3.68,16.69,1.91,22.47,5.18,16.08,9.08,24.43,23.08,26.62,26.71,13.25,22-13.4-28.08,51.58,68.94,30,44.76,45,69.41,45.76,68.94s-19.79-34.3-48.25-88.76c-20.8-39.81-17.5-36.57-23.3-44.81-11.34-16.12-22-25.76-21.63-41.37.09-3.56.9-12.13,6.65-19,8.93-10.59,24.31-10.51,31.62-10.34,44.07,1,113.15,12.08,113.15,12.06s-18.07-8.73-92.35-30.16c-29.5-8.52-49.77-13.81-51.58-25.85-1.28-8.49,7.1-17.07,15-23.27,55.19-29,101.32-49.42,133.95-62.91,33.89-14,65.71-25.71,64.9-28.43-.19-.64-2.52-2-61.57,12.06-33,7.88-60,14.92-78.21,19.82a175.58,175.58,0,0,1-40.76,8.62c-17.56,1.54-24.59-.59-29.12-2.59-3.15-1.38-14.64-6.44-18.31-15.51-5.78-14.31,10.15-33.13,29.95-56.87,26.85-32.17,69-82.75,67.4-84.45-.68-.73-9.68,7.07-43.27,37.05,0,0-18.17,16.23-54.08,45.67,0,0-14.23,11.68-44.92,24.13C584.93,410.43,580.16,412.27,574.62,410.94Z"/><path class="cls-10" d="M551.33,457.47c-4.9-3-6-9.77-7.49-23.27-2.21-19.56-3.31-29.35-3.33-35.33-.09-33-3.11-62.91-4.16-62.9s-4.68,37.66-6.65,85.31c-1.17,28-1.27,46.68-10.82,50.84-7.07,3.08-15.85-3.32-20.8-6.89-52.28-37.79-91.26-59.78-91.52-59.46s37.18,36.54,46.59,45.67c18.61,18,28.92,28.42,26.63,38.78-1.7,7.65-9.55,12-15,14.64C416.86,527.93,338.51,519,338.34,520.38c-.06.46,8.39,3.49,29.12,5.17,38.48,3.12,54.24-3.67,89.85.86,18.28,2.32,27.42,3.48,29.12,8.62,6.89,20.77-101.17,79.82-101.5,79.27-.22-.37,54.68-21.32,103.17-46.53,2.31-1.2,7.71-4,11.64-1.72,9.61,5.61,2.49,37-4.16,65.49s-13.91,48.9-13.31,49.12,10.58-19,18.31-46.54c6.55-23.34,7.51-38.53,18.3-43.08,5.82-2.46,11.56-.58,13.31,0,3.92,1.28,14.25,5.93,25.79,41.36,5.57,17.08,9.44,35.26,9.16,35.33-.62.15-27-83.27-9.16-93.93,4.63-2.76,11.49-.2,16.64,1.73,12.12,4.52,18.38,13.79,25,22.4,19.34,25.3,35.2,36.8,34.95,37.06s-23.18-25.13-40.77-56.88c-3.37-6.08-6.47-12.25-4.16-17.23,4.66-10,27.93-8,39.94-6.9,23.68,2.12,41.42,9.2,41.59,8.62s-20.65-6.19-44.09-19.82a196.74,196.74,0,0,1-18.3-12.06c-3.19-3.48-6.85-8.65-5.83-13.79,1.72-8.63,15.68-12.18,21.63-13.79,42.5-11.45,84.33-33.32,84-34.47-.24-.95-30.25,7.7-67.39,13.79-21.08,3.46-38.68,5.14-50.75,6a26.94,26.94,0,0,1-5-14.65c-.16-11.73,8.86-20.48,12.48-24.13,25.67-25.85,47.13-64.15,45.76-65.49-.94-.91-16.44,11.8-32.45,30.16-15.84,18.17-23.19,31.56-41.6,40.5C558.87,460.12,554.05,459.11,551.33,457.47Z"/><path class="cls-11" d="M345.83,405.77l-46.6-31L248.48,348q-7.9,9-15.8,18.1l45.76,20.68Z"/><path class="cls-11" d="M266.79,405.77l-21.63-25.86-25.8-.86-13.31,16.38,7.49,25.85,30,3.44Z"/><path class="cls-11" d="M345.83,585.87,270,593l-77.57,15.1-5.55,32.1,67.54-17.14Z"/><path class="cls-11" d="M312,617.39l-42.09,10-43.22,14.37L223,659.08l37.7-14.6Z"/><path class="cls-11" d="M435.27,265.51q3.17-11.88,6.32-23.75l-9.87-15.59-14.86-.92-12,15.4,10,19.15Z"/><path class="cls-11" d="M636.49,790.93q-2.78,15.84-5.56,31.68l8.73,33.21,13.13,14.58,10.59-13.55q-4.44-19.47-8.89-38.94Z"/><path class="cls-11" d="M405.14,703.39l-33,7.94-20.53,25.2,0,21.84,22.06,6.14,25.38-28Q402.07,720,405.14,703.39Z"/><path class="cls-11" d="M806.14,674.43q5,12.8,9.92,25.58l17.68,5.15,12.41-11.57L846,670.44l-20-8.05Z"/><path class="cls-11" d="M846.52,532.53l24.26,23.21,25.73-2.1q5.73-8.91,11.48-17.8L897.78,511H867.64Z"/><path class="cls-11" d="M723.3,265.21l22.4-4.4,10.56-16q-1.82-7.14-3.62-14.28L735.78,226,722.2,243.71Q722.76,254.45,723.3,265.21Z"/><path class="cls-11" d="M399.07,682.8q-6.65-8.53-13.31-17.06l-15.87-.57L361.7,676l4.6,17,18.44,2.28Z"/><path class="cls-11" d="M801.88,509.82l48.5-2.26,51.83-5.51,12.37-13.11-46.25,6.43Z"/><path class="cls-11" d="M534.07,833.15q.9,25.13,1.81,50.26l4.92,53.72q6.3,6.45,12.58,12.91-2.93-24-5.86-47.95Q540.8,867.62,534.07,833.15Z"/><path class="cls-11" d="M520.23,830.87l-19.44,51.82q-7.59,27.75-15.17,55.5L503.33,952q5.4-24.79,10.79-49.6Q517.18,866.64,520.23,830.87Z"/><path class="cls-11" d="M777.27,739.28l43.66,27.78L868.49,791q7.41-8.12,14.81-16.22l-42.88-18.51Z"/><path class="cls-11" d="M512.7,283.43q-8.07-24.82-16.13-49.67-10.47-25.5-20.93-51l-19.09-4.36L477,222.9Z"/><polygon class="cls-2" points="914.74 267.48 909.19 265.69 904.57 269.25 904.56 263.42 899.75 260.13 905.29 258.31 906.93 252.72 910.37 257.43 916.2 257.26 912.79 261.99 914.74 267.48"/></g></g></svg>