<svg xmlns="http://www.w3.org/2000/svg" viewBox="0 0 1065 1065"><defs><style>.cls-1{fill:#29011c;}.cls-2{fill:#fff;}.cls-3{fill:#dfdbcf;}.cls-4{fill:#f9f5ea;}.cls-5{fill:#c7bead;}.cls-6{fill:#fefaee;}.cls-10,.cls-7,.cls-9{fill:#867c70;}.cls-10,.cls-7,.cls-8,.cls-9{stroke:#000;stroke-miterlimit:10;}.cls-7{stroke-width:6px;}.cls-8{fill:#bab1a0;stroke-width:3px;}.cls-9{stroke-width:9px;}.cls-10{stroke-width:5px;}</style></defs><title>gali</title><g id="Layer_2" data-name="Layer 2"><g id="Layer_1-2" data-name="Layer 1"><path class="cls-1" d="M1065,532.5v1.16q0,10-.41,19.84-.16,4.39-.41,8.76a529.35,529.35,0,0,1-45,186.61q-5.16,11.64-10.89,23c-.81,1.62-1.63,3.24-2.48,4.85a530.88,530.88,0,0,1-58.09,89.21q-16.49,20.52-34.93,39.33a532.61,532.61,0,0,1-689.36,61C88.18,869.62,0,711.36,0,532.5,0,238.41,238.41,0,532.5,0c276.19,0,503.27,210.27,529.89,479.46.09.94.19,1.88.27,2.83Q1065,507.09,1065,532.5Z"/><polygon class="cls-2" points="232.8 240.62 227.25 238.83 222.63 242.39 222.62 236.56 217.81 233.26 223.35 231.45 224.99 225.85 228.43 230.56 234.26 230.4 230.84 235.13 232.8 240.62"/><polygon class="cls-2" points="387.17 98.01 381.62 96.22 377 99.78 376.98 93.95 372.17 90.66 377.71 88.84 379.36 83.25 382.8 87.96 388.63 87.79 385.21 92.52 387.17 98.01"/><polygon class="cls-2" points="65.17 535.01 59.62 533.22 55 536.78 54.98 530.95 50.17 527.66 55.71 525.84 57.36 520.25 60.8 524.96 66.63 524.79 63.21 529.52 65.17 535.01"/><polygon class="cls-2" points="732.17 949.01 726.62 947.22 722 950.78 721.98 944.95 717.17 941.66 722.71 939.84 724.36 934.25 727.8 938.96 733.63 938.79 730.21 943.52 732.17 949.01"/><polygon class="cls-2" points="385.17 965.01 379.62 963.22 375 966.78 374.98 960.95 370.17 957.66 375.71 955.84 377.36 950.25 380.8 954.96 386.63 954.79 383.21 959.52 385.17 965.01"/><polygon class="cls-2" points="560.17 957.01 554.62 955.22 550 958.78 549.98 952.95 545.17 949.66 550.71 947.84 552.36 942.25 555.8 946.96 561.63 946.79 558.21 951.52 560.17 957.01"/><polygon class="cls-2" points="426.17 857.01 420.62 855.22 416 858.78 415.98 852.95 411.17 849.66 416.71 847.84 418.36 842.25 421.8 846.96 427.63 846.79 424.21 851.52 426.17 857.01"/><polygon class="cls-2" points="800.17 862.01 794.62 860.22 790 863.78 789.98 857.95 785.17 854.66 790.71 852.84 792.36 847.25 795.8 851.96 801.63 851.79 798.21 856.52 800.17 862.01"/><polygon class="cls-2" points="921.17 723.01 915.62 721.22 911 724.78 910.98 718.95 906.17 715.66 911.71 713.84 913.36 708.25 916.8 712.96 922.63 712.79 919.21 717.52 921.17 723.01"/><polygon class="cls-2" points="940.17 371.01 934.62 369.22 930 372.78 929.98 366.95 925.17 363.66 930.71 361.84 932.36 356.25 935.8 360.96 941.63 360.79 938.21 365.52 940.17 371.01"/><polygon class="cls-2" points="873.17 568.01 867.62 566.22 863 569.78 862.98 563.95 858.17 560.66 863.71 558.84 865.36 553.25 868.8 557.96 874.63 557.79 871.21 562.52 873.17 568.01"/><polygon class="cls-2" points="638.17 672.01 632.62 670.22 628 673.78 627.98 667.95 623.17 664.66 628.71 662.84 630.36 657.25 633.8 661.96 639.63 661.79 636.21 666.52 638.17 672.01"/><polygon class="cls-2" points="418.17 763.01 412.62 761.22 408 764.78 407.98 758.95 403.17 755.66 408.71 753.84 410.36 748.25 413.8 752.96 419.63 752.79 416.21 757.52 418.17 763.01"/><polygon class="cls-2" points="385.17 272.01 379.62 270.22 375 273.78 374.98 267.95 370.17 264.66 375.71 262.84 377.36 257.25 380.8 261.96 386.63 261.79 383.21 266.52 385.17 272.01"/><polygon class="cls-2" points="129.17 666.01 123.62 664.22 119 667.78 118.98 661.95 114.17 658.66 119.71 656.84 121.36 651.25 124.8 655.96 130.63 655.79 127.21 660.52 129.17 666.01"/><polygon class="cls-2" points="654.17 416.01 648.62 414.22 644 417.78 643.98 411.95 639.17 408.66 644.71 406.84 646.36 401.25 649.8 405.96 655.63 405.79 652.21 410.52 654.17 416.01"/><polygon class="cls-2" points="550.17 784.01 544.62 782.22 540 785.78 539.98 779.95 535.17 776.66 540.71 774.84 542.36 769.25 545.8 773.96 551.63 773.79 548.21 778.52 550.17 784.01"/><polygon class="cls-2" points="562.17 98.01 556.62 96.22 552 99.78 551.98 93.95 547.17 90.66 552.71 88.84 554.36 83.25 557.8 87.96 563.63 87.79 560.21 92.52 562.17 98.01"/><polygon class="cls-2" points="426.17 379.01 420.62 377.22 416 380.78 415.98 374.95 411.17 371.66 416.71 369.84 418.36 364.25 421.8 368.96 427.63 368.79 424.21 373.52 426.17 379.01"/><polygon class="cls-2" points="273.17 810.01 267.62 808.22 263 811.78 262.98 805.95 258.17 802.66 263.71 800.84 265.36 795.25 268.8 799.96 274.63 799.79 271.21 804.52 273.17 810.01"/><polygon class="cls-2" points="173.17 408.01 167.62 406.22 163 409.78 162.98 403.95 158.17 400.66 163.71 398.84 165.36 393.25 168.8 397.96 174.63 397.79 171.21 402.52 173.17 408.01"/><polygon class="cls-2" points="595.17 272.01 589.62 270.22 585 273.78 584.98 267.95 580.17 264.66 585.71 262.84 587.36 257.25 590.8 261.96 596.63 261.79 593.21 266.52 595.17 272.01"/><polygon class="cls-2" points="570.6 433.99 565.05 432.2 560.43 435.76 560.41 429.93 555.6 426.63 561.14 424.82 562.79 419.23 566.23 423.93 572.05 423.77 568.64 428.5 570.6 433.99"/><polygon class="cls-2" points="570.6 433.99 565.05 432.2 560.43 435.76 560.41 429.93 555.6 426.63 561.14 424.82 562.79 419.23 566.23 423.93 572.05 423.77 568.64 428.5 570.6 433.99"/><polygon class="cls-2" points="570.6 433.99 565.05 432.2 560.43 435.76 560.41 429.93 555.6 426.63 561.14 424.82 562.79 419.23 566.23 423.93 572.05 423.77 568.64 428.5 570.6 433.99"/><polygon class="cls-2" points="570.6 433.99 565.05 432.2 560.43 435.76 560.41 429.93 555.6 426.63 561.14 424.82 562.79 419.23 566.23 423.93 572.05 423.77 568.64 428.5 570.6 433.99"/><polygon class="cls-2" points="777.17 203.99 771.62 202.2 767 205.76 766.98 199.93 762.17 196.63 767.71 194.82 769.36 189.22 772.8 193.93 778.63 193.77 775.21 198.5 777.17 203.99"/><polygon class="cls-2" points="273.17 567.99 267.62 566.2 263 569.76 262.98 563.93 258.17 560.63 263.71 558.82 265.36 553.23 268.8 557.93 274.63 557.77 271.21 562.5 273.17 567.99"/><polygon class="cls-2" points="963.17 465.9 957.62 464.11 953 467.67 952.98 461.84 948.17 458.55 953.71 456.73 955.36 451.13 958.8 455.84 964.63 455.68 961.21 460.4 963.17 465.9"/><polygon class="cls-2" points="753.17 318.9 747.62 317.11 743 320.67 742.98 314.84 738.17 311.55 743.71 309.73 745.36 304.13 748.8 308.84 754.63 308.68 751.21 313.4 753.17 318.9"/><polygon class="cls-2" points="426.17 601.9 420.62 600.11 416 603.67 415.98 597.84 411.17 594.54 416.71 592.73 418.36 587.13 421.8 591.84 427.63 591.68 424.21 596.4 426.17 601.9"/><polygon class="cls-2" points="914.74 267.49 909.19 265.7 904.57 269.26 904.56 263.43 899.75 260.13 905.29 258.32 906.93 252.72 910.37 257.43 916.2 257.27 912.78 261.99 914.74 267.49"/><path class="cls-3" d="M1065,533.66q0,10-.41,19.84a33.55,33.55,0,0,1-.41,8.76,529.35,529.35,0,0,1-45,186.61q-5.16,11.64-10.89,23c-.81,1.62-1.63,3.24-2.48,4.85a530.88,530.88,0,0,1-58.09,89.21q-16.49,20.52-34.93,39.33a532.61,532.61,0,0,1-689.36,61A206,206,0,0,1,195.71,938c-66.86-82.17-54.88-189.41-49-242,15.24-136.39,88.35-227.66,109-252,120.66-142.28,286.22-164.84,329-170,29.95-3.61,241.37-25.9,392,112a398,398,0,0,1,46,50,180.54,180.54,0,0,1,39.68,43.42c.09.94.19,1.88.27,2.83q2.33,24.79,2.34,50.21Z"/><path class="cls-4" d="M1065,532.5v1.16a44.07,44.07,0,0,1-5.94,2.6,82,82,0,0,1-16.35,3.78c-4.78-6.62-10.84-14.71-18.14-23.79q-1.54-1.93-3.18-3.93c-4.47-5.47-9.36-11.27-14.68-17.28l-1.64-1.86c-9.51-10.76-22.71-25.56-39.58-42.15q-3.74-3.66-7.7-7.43c-12.56-12-26.92-24.61-43.08-37.21-10.46-8.17-21.68-16.32-33.65-24.23C842.84,356.9,797,334,743.44,320.33l-.44-.11c-9.2-2.34-18.63-4.42-28.29-6.18A380.4,380.4,0,0,0,675,309c-4.64-.35-9.6-.65-14.85-.88A472.15,472.15,0,0,0,470.71,339,507.67,507.67,0,0,0,370.6,391.57c-12.11,8.18-24.6,17.39-37.12,27.71a431.26,431.26,0,0,0-83.76,91.49h0q-6.28,9.33-12.18,19.25a393.73,393.73,0,0,0-33.83,73c-34.79,100.93-20.51,190.3-11,232-8.55,5.58-19.82,10.91-29,7-34.17-14.57-18.64-148.4,17-243a508,508,0,0,1,66.21-123.15,474.4,474.4,0,0,1,65.4-72.39A459.47,459.47,0,0,1,381.71,352c168.93-102.21,342.44-59.84,395-47A510.86,510.86,0,0,1,930,370l2,1.27c24.22,15.46,43.23,30.34,57.71,41.8,14,11.06,51.86,41.07,73,69.25Q1065,507.09,1065,532.5Z"/><path class="cls-5" d="M1019.19,748.87q-5.16,11.64-10.89,23a17.6,17.6,0,0,0-2.48,4.85,530.88,530.88,0,0,1-58.09,89.21,33.9,33.9,0,0,0-22-6.86c-13,.58-21.18,9-23,11a66.36,66.36,0,0,1,10,31c.08,1.39.11,2.79.09,4.19a534.92,534.92,0,0,1-74.22,63.06c-21.78-4.87-41.77-20.1-52.87-36.25a79.33,79.33,0,0,1-13-35c-20.45-3.26-43.58-10.09-49-26-8.4-24.66,32.14-52.45,22-72-3.52-6.78-17.73-9.61-46-15-43-8.19-47.89-4-68-12-22.73-9-31.63-20.33-38-16-5.43,3.69-3.69,16.51,0,42,4.09,28.24,7.37,29.25,5,37-5.87,19.16-27.5,18.11-34,39-3.83,12.33,3.27,14.09,0,26-6.78,24.72-39.06,23.38-46,48-2.79,9.88,2.33,10.39,0,27-.81,5.78-3.64,26-17,39-12.58,12.27-29.87,13.7-44,14-55,1.18-145.25,3.13-168-46-13.19-28.49,8.9-47-9-72-18.22-25.46-53.48-23.62-58-47-2.21-11.44,5.68-14.74,3-29-3.8-20.26-21.13-21.09-24-37-3.77-20.9,24.11-30.66,24-57-.06-14.46-8.48-15.32-17-36-15.75-38.21-11-93.6,15-112,5.74-4,11.54-5.63,16-13,8.31-13.75,2-31.17,0-38a66.39,66.39,0,0,1-2.17-11c-2.06-18.23,2.8-37.59,9.38-54.14A195.78,195.78,0,0,1,267.71,437c10.64-14.8,26.08-26,44.61-33.54,17.22-7.05,37.1-11,58.28-11.93A245.69,245.69,0,0,1,422.71,395c27.91-9.44,49.19-9,63-7,8.24,1.17,6.18,1.79,35,8,31.66,6.82,34.75,6.21,43,11,8.53,4.95,15.35,12,29,26,6.39,6.57,9.88,10.19,14,16,7.49,10.55,14.13,19.93,14,31-.2,16.59-15.47,23.72-12,31,3.83,8,22.29-.79,33,9,13.75,12.56-2.5,40,10,50,9,7.19,18.77-5.76,43-1,16,3.14,18,10,36,12,13.9,1.53,15.13-2.29,26,0,19.71,4.15,25.35,18.74,33,16,8.26-3,2.65-20.33,13-38,7-11.93,21.27-24,37-26,20.35-2.55,29.58,13.55,77,39,20.24,10.86,25,11.37,33,16,23.91,13.79,50.07,48.57,56,143C1011.23,735.35,1017.4,741.46,1019.19,748.87Z"/><path class="cls-5" d="M827.71,381c-11.25-25.05-49.69-25.73-65-26-24.75-.44-70.57,6.75-78,34-4.68,17.16,8.14,33.94,12,39,21,27.49,67.79,42.23,101,21C819.36,435.2,838.13,404.23,827.71,381Z"/><path class="cls-6" d="M1064.18,562.26a34.3,34.3,0,0,1-1,4c-4.82,15.37-19.67,24.15-33.2,23.77-18.62-.53-35.53-18.42-34.78-39.06.54-15.14,10.53-30,25.29-34a26.6,26.6,0,0,1,4.07-.76c17.27-2,29.64,13,30.72,14.35a45,45,0,0,1,3.77,5.66,42.52,42.52,0,0,1,5.53,17.24A33.55,33.55,0,0,1,1064.18,562.26Z"/><path class="cls-7" d="M958.57,429.63c-12.47-26-36-34.41-50.72-39.71-18-6.47-47.84-17.18-68.83,2-16.4,15-20.16,41.58-15.4,61.55,8.2,34.39,41.06,46.68,51.63,50.63,24.82,9.28,69.83,13.26,86-15.88C974.66,464.18,960.05,432.71,958.57,429.63Z"/><path class="cls-6" d="M994,499.21a13.82,13.82,0,0,0,0,15c5.78,8.26,22.28,7.49,27-1,2.56-4.61,1.39-11-2-15C1012.8,491,999.14,491.5,994,499.21Z"/><path class="cls-6" d="M653.71,313a13.82,13.82,0,0,0,0,15c5.78,8.26,22.28,7.5,27-1,2.56-4.61,1.39-11-2-15C672.55,304.8,658.89,305.33,653.71,313Z"/><path class="cls-6" d="M651.71,375c10.64-1,18.2-1.84,26-7,2.48-1.64,13.44-8.89,12-16-1.19-5.9-10.26-8.41-16-10-6.43-1.78-19.8-5.49-32,2-11.56,7.1-19.41,22.62-15,29C629.56,377.17,637,376.46,651.71,375Z"/><path class="cls-6" d="M410.71,696c8.56.23,18-4.94,21-14,3.59-10.67-4-19.78-5-21-.73-.85-9.75-11-22-8-9.33,2.31-15.65,11.08-16,20C388.24,685.19,398.94,695.73,410.71,696Z"/><path class="cls-8" d="M963.21,465.54c0,1.76-.31,25.24-17,38-31.35,24-104.33-2.18-113-45-3.66-18.08,3.73-41.21,21-53,23.79-16.24,53.67-2.34,63,2C922.81,410.14,963.17,429.67,963.21,465.54Z"/><ellipse class="cls-9" cx="374.21" cy="509.54" rx="124.5" ry="95.5"/><ellipse class="cls-8" cx="377.96" cy="518.29" rx="116.25" ry="85.75"/><path class="cls-9" d="M859.21,843.54c-40.7.46-98.56-72-79.69-139,13.71-48.71,68.39-96.1,125.58-79,60.66,18.14,79.55,95.5,61.33,135.08-6.32,13.73-20.29,24.79-48.22,46.92C888.05,831.44,873,843.39,859.21,843.54Z"/><path class="cls-8" d="M835.58,829.88c-27.54.78-71.76-65.68-53.92-125.13,16.57-55.2,67.57-88.67,113.91-74.77,55.79,16.74,74.84,97.26,53.92,125.13-11.41,15.2-28.63,6.59-60.28,26.43C853.42,804,852.45,829.39,835.58,829.88Z"/><path class="cls-9" d="M413.3,775.61c61.92-.64,110.79,35.58,109.17,80.9-1.79,49.93-67.76,86.91-115,83.19-26.86-2.11-46.91-17.29-67.75-33.08-23.47-17.78-39.94-30.25-41.43-47.81C295.24,823.43,353.7,776.22,413.3,775.61Z"/><path class="cls-8" d="M327.82,840c3.67-30.52,33.42-53,59-60.88,22.73-7,42.59-2.66,58.12.76,15.73,3.47,38.27,8.43,55.31,26.44,16.51,17.45,28.39,47.72,16.35,73.14-18.67,39.41-87.11,50.9-132,33.2C360.39,903.06,323.36,877.15,327.82,840Z"/><path class="cls-10" d="M614.92,362c1.94,13.32-19.24,30.88-40.6,33.8-17.35,2.37-44-3.67-49.72-22.53C518,351.34,542.93,322.79,563,323.46c6.33.21,15.12,6.77,32.7,19.87C613.7,356.75,614.65,360.09,614.92,362Z"/><path class="cls-8" d="M597.89,363.87c2,11.5-9.56,23.71-19.67,28.75s-19.75,3.3-23.59,2.53c-3.36-.67-24.39-4.87-29.77-21.95C519,354.74,536.4,336.66,547,330.69c4.68-2.64,7.81-2.79,9.48-2.71,7,.31,11.25,5.64,18.85,13.32C593,359.14,596.82,357.54,597.89,363.87Z"/><path class="cls-10" d="M592.22,576.75c30.37-3.34,55.31,21.59,62.6,45.21,7.16,23.16,2.46,61.87-27.08,75.69-32.42,15.17-76.08-6.18-88.09-37-6.77-17.4-4.37-40.14,10.15-58.33C552.69,598.65,568.05,579.41,592.22,576.75Z"/><path class="cls-8" d="M604,594c7.69-.55,22.89-1.63,35.56,6.81,21,14,18.51,43.09,18,48.47,0,.52-.11,1.25-.23,2.24-1,8.63-5.75,34.25-29.71,45.78-28.86,13.9-61.52-4.27-73.23-17a27.39,27.39,0,0,1-6.21-12.2c-4.86-16.37,2.94-31.63,8.62-42.74,4.93-9.64,7.85-15.34,14.9-20.81C583.5,595.46,597.08,594.49,604,594Z"/></g></g></svg>