<svg xmlns="http://www.w3.org/2000/svg" viewBox="0 0 603.24 603.24"><defs><style>.cls-1{fill:#220d1c;}.cls-2{fill:#fff;}.cls-3{fill:#bcbcbb;}.cls-4{fill:#929292;}.cls-10,.cls-5,.cls-7{fill:none;}.cls-6{fill:#1d1d1b;stroke:#1d1d1b;}.cls-10,.cls-6,.cls-7{stroke-miterlimit:10;}.cls-6,.cls-7{stroke-width:6px;}.cls-7{stroke:#91b7e2;}.cls-8{fill:#91b7e2;}.cls-9{fill:#919191;}.cls-10{stroke:#961f15;stroke-width:4px;}</style></defs><title>ISS</title><g id="Layer_2" data-name="Layer 2"><g id="Layer_1-2" data-name="Layer 1"><circle class="cls-1" cx="301.62" cy="301.62" r="301.62"/><polygon class="cls-2" points="116.73 173.92 118.52 177.75 122.51 178.37 119.62 181.35 120.3 185.57 116.73 183.58 113.16 185.57 113.84 181.35 110.95 178.37 114.94 177.75 116.73 173.92"/><polygon class="cls-2" points="423.66 60.45 425.45 64.28 429.45 64.9 426.56 67.88 427.24 72.1 423.66 70.11 420.09 72.1 420.77 67.88 417.88 64.9 421.88 64.28 423.66 60.45"/><polygon class="cls-2" points="265.82 103.51 267.6 107.35 271.6 107.96 268.71 110.94 269.39 115.16 265.82 113.17 262.24 115.16 262.93 110.94 260.04 107.96 264.03 107.35 265.82 103.51"/><polygon class="cls-2" points="412.1 185.57 413.89 189.4 417.88 190.01 414.99 193 415.67 197.21 412.1 195.22 408.53 197.21 409.21 193 406.32 190.01 410.31 189.4 412.1 185.57"/><polygon class="cls-2" points="254.25 222.29 256.04 226.12 260.04 226.74 257.14 229.72 257.83 233.93 254.25 231.94 250.68 233.93 251.36 229.72 248.47 226.74 252.47 226.12 254.25 222.29"/><polygon class="cls-2" points="496.39 216.46 498.18 220.3 502.17 220.91 499.28 223.9 499.97 228.11 496.39 226.12 492.82 228.11 493.5 223.9 490.61 220.91 494.61 220.3 496.39 216.46"/><polygon class="cls-2" points="537.05 393.3 538.83 397.13 542.83 397.75 539.94 400.73 540.62 404.95 537.05 402.96 533.47 404.95 534.16 400.73 531.27 397.75 535.26 397.13 537.05 393.3"/><polygon class="cls-2" points="187.12 313.27 188.91 317.1 192.9 317.71 190.01 320.7 190.69 324.91 187.12 322.92 183.55 324.91 184.23 320.7 181.34 317.71 185.34 317.1 187.12 313.27"/><polygon class="cls-2" points="203.92 477.1 205.7 480.93 209.7 481.54 206.81 484.53 207.49 488.74 203.92 486.75 200.34 488.74 201.03 484.53 198.13 481.54 202.13 480.93 203.92 477.1"/><polygon class="cls-2" points="57.72 381.65 59.51 385.49 63.51 386.1 60.61 389.09 61.3 393.3 57.72 391.31 54.15 393.3 54.83 389.09 51.94 386.1 55.94 385.49 57.72 381.65"/><polygon class="cls-2" points="346.99 527.5 348.78 531.33 352.77 531.95 349.88 534.93 350.56 539.14 346.99 537.15 343.42 539.14 344.1 534.93 341.21 531.95 345.2 531.33 346.99 527.5"/><polygon class="cls-2" points="323.95 301.62 325.74 305.45 329.73 306.07 326.84 309.05 327.52 313.27 323.95 311.28 320.38 313.27 321.06 309.05 318.17 306.07 322.16 305.45 323.95 301.62"/><polygon class="cls-2" points="443.25 431.14 445.04 434.97 449.04 435.59 446.14 438.57 446.83 442.79 443.25 440.8 439.68 442.79 440.36 438.57 437.47 435.59 441.47 434.97 443.25 431.14"/><polygon class="cls-2" points="484.83 506.39 486.62 510.22 490.61 510.84 487.72 513.82 488.4 518.04 484.83 516.05 481.25 518.04 481.94 513.82 479.05 510.84 483.04 510.22 484.83 506.39"/><polygon class="cls-2" points="122.51 91.86 124.3 95.7 128.29 96.31 125.4 99.3 126.08 103.51 122.51 101.52 118.94 103.51 119.62 99.3 116.73 96.31 120.72 95.7 122.51 91.86"/><polygon class="cls-2" points="496.39 324.91 498.18 328.75 502.17 329.36 499.28 332.35 499.97 336.56 496.39 334.57 492.82 336.56 493.5 332.35 490.61 329.36 494.61 328.75 496.39 324.91"/><polygon class="cls-2" points="83.51 278.96 85.3 282.79 89.29 283.41 86.4 286.39 87.08 290.61 83.51 288.62 79.94 290.61 80.62 286.39 77.73 283.41 81.72 282.79 83.51 278.96"/><rect class="cls-3" x="241.34" y="247.66" width="132.01" height="48.05" rx="9.63"/><rect class="cls-4" x="219.29" y="290.71" width="174.72" height="27.98" rx="4.72"/><line class="cls-5" x1="520.36" y1="130.14" x2="490.1" y2="130.14"/><line class="cls-5" x1="451.06" y1="466.35" x2="451.12" y2="485.74"/><rect class="cls-4" x="379.89" y="297.34" width="115.51" height="15.97" rx="4.62"/><line class="cls-6" x1="482.38" y1="274.99" x2="482.88" y2="335.12"/><line class="cls-6" x1="483" y1="340.7" x2="482.31" y2="280.57"/><line class="cls-7" x1="514.2" y1="354.7" x2="448.96" y2="328.98"/><line class="cls-5" x1="487.29" y1="500.46" x2="517.54" y2="499.88"/><line class="cls-5" x1="486.91" y1="481.08" x2="487.29" y2="500.46"/><polyline class="cls-8" points="486.92 481.07 484.45 352.56 514.7 351.98 517.54 499.89"/><path class="cls-8" d="M484.45,352.73c0-2.41-.09-4.82-.13-7.24L501,352.56Z"/><path class="cls-9" d="M512.67,489.68l-7.32-4.27q-.23-6.37-.46-12.77l7.53,4.12Z"/><path class="cls-9" d="M500.33,482.81,493,478.55l-.45-12.77,7.53,4.11Z"/><path class="cls-9" d="M500,463.15l-7.32-4.27q-.24-6.37-.46-12.76l7.53,4.11Z"/><path class="cls-9" d="M499.57,443.49l-7.32-4.27q-.22-6.37-.46-12.77l7.53,4.12Z"/><path class="cls-9" d="M499.19,423.82l-7.32-4.26q-.22-6.39-.46-12.77l7.54,4.12Z"/><path class="cls-9" d="M498.82,404.16l-7.32-4.26q-.24-6.39-.46-12.77l7.53,4.11Z"/><path class="cls-9" d="M498.44,384.5l-7.32-4.27q-.22-6.37-.46-12.76l7.53,4.11Z"/><path class="cls-9" d="M498.06,364.84l-7.32-4.27q-.23-6.37-.46-12.77l7.54,4.12Z"/><path class="cls-9" d="M512.3,470.21,505,466q-.24-6.39-.46-12.77l7.53,4.12Z"/><path class="cls-9" d="M511.92,450.75l-7.32-4.26q-.23-6.39-.46-12.77l7.54,4.11Z"/><path class="cls-9" d="M511.53,430.29,504.21,426q-.22-6.39-.46-12.77l7.53,4.12Z"/><path class="cls-9" d="M511.11,408.32l-7.32-4.27q-.23-6.37-.46-12.76l7.53,4.11Z"/><path class="cls-9" d="M510.75,389.29,503.42,385,503,372.26l7.53,4.11Z"/><path class="cls-9" d="M510.36,369.24,503,365q-.23-6.39-.46-12.77l7.53,4.11Z"/><line class="cls-5" x1="451.15" y1="486.22" x2="481.4" y2="485.64"/><polyline class="cls-8" points="450.78 466.83 448.31 338.32 478.56 337.74 481.4 485.65"/><path class="cls-8" d="M448.31,338.45l-.12-6.75,16.38,6.57Z"/><path class="cls-9" d="M476.53,475.44l-7.32-4.27q-.22-6.37-.46-12.77l7.53,4.12Z"/><path class="cls-9" d="M464.19,468.57l-7.33-4.26-.45-12.77,7.53,4.11Z"/><path class="cls-9" d="M463.81,448.91l-7.32-4.27q-.24-6.37-.46-12.76l7.53,4.11Z"/><path class="cls-9" d="M463.43,429.25,456.11,425q-.23-6.37-.46-12.77l7.53,4.12Z"/><path class="cls-9" d="M463.05,409.58l-7.32-4.26q-.23-6.39-.46-12.77l7.54,4.12Z"/><path class="cls-9" d="M462.68,389.92l-7.33-4.26-.45-12.77,7.53,4.11Z"/><path class="cls-9" d="M462.3,370.26,455,366q-.23-6.39-.46-12.77l7.53,4.11Z"/><path class="cls-9" d="M461.92,350.6l-7.32-4.27q-.23-6.37-.46-12.77l7.54,4.12Z"/><path class="cls-9" d="M476.16,456l-7.32-4.26q-.24-6.39-.46-12.77l7.53,4.12Z"/><path class="cls-9" d="M475.78,436.51l-7.32-4.26q-.22-6.39-.46-12.77l7.54,4.11Z"/><path class="cls-9" d="M475.39,416.06l-7.32-4.27q-.22-6.37-.46-12.77l7.53,4.12Z"/><path class="cls-9" d="M475,394.08l-7.32-4.26q-.22-6.39-.46-12.77l7.53,4.11Z"/><path class="cls-9" d="M474.61,375.05l-7.33-4.26L466.83,358l7.53,4.11Z"/><path class="cls-9" d="M474.22,355l-7.32-4.26q-.22-6.39-.46-12.77l7.53,4.11Z"/><line class="cls-6" x1="482.71" y1="331.68" x2="482.36" y2="271.55"/><line class="cls-6" x1="482.25" y1="265.97" x2="482.8" y2="326.1"/><line class="cls-7" x1="451.09" y1="251.9" x2="516.27" y2="277.78"/><line class="cls-5" x1="478.35" y1="106.2" x2="448.09" y2="106.71"/><line class="cls-5" x1="478.68" y1="125.59" x2="478.35" y2="106.2"/><polyline class="cls-8" points="478.67 125.59 480.83 254.11 450.58 254.62 448.09 106.7"/><path class="cls-8" d="M480.83,253.94l.12,7.24-16.62-7.11Z"/><path class="cls-9" d="M452.94,116.93l7.31,4.28q.21,6.38.43,12.77l-7.52-4.14Z"/><path class="cls-9" d="M465.27,123.82l7.31,4.28q.21,6.39.43,12.77l-7.52-4.13Z"/><path class="cls-9" d="M465.6,143.48l7.31,4.29q.21,6.38.43,12.77l-7.52-4.14Z"/><path class="cls-9" d="M465.93,163.15l7.31,4.28q.21,6.39.43,12.77l-7.52-4.13Z"/><path class="cls-9" d="M466.26,182.81l7.31,4.28q.21,6.39.43,12.77l-7.52-4.13Z"/><path class="cls-9" d="M466.59,202.47l7.31,4.29q.21,6.38.43,12.76l-7.52-4.13Z"/><path class="cls-9" d="M466.92,222.14l7.31,4.28q.21,6.39.43,12.77l-7.52-4.13Z"/><path class="cls-9" d="M467.25,241.8l7.31,4.28q.21,6.39.43,12.77l-7.52-4.13Z"/><path class="cls-9" d="M453.27,136.39l7.31,4.28q.21,6.39.43,12.77l-7.53-4.13Z"/><path class="cls-9" d="M453.59,155.85l7.31,4.28q.23,6.39.43,12.77l-7.52-4.13Z"/><path class="cls-9" d="M453.94,176.31l7.31,4.28q.21,6.39.43,12.77l-7.53-4.13Z"/><path class="cls-9" d="M454.31,198.29l7.31,4.28.42,12.77-7.52-4.14Z"/><path class="cls-9" d="M454.63,217.31l7.31,4.29.42,12.77-7.52-4.14Z"/><path class="cls-9" d="M455,237.37l7.31,4.28q.23,6.38.43,12.77l-7.52-4.14Z"/><line class="cls-5" x1="514.46" y1="120.53" x2="484.2" y2="121.03"/><polyline class="cls-8" points="514.78 139.92 516.93 268.44 486.68 268.95 484.2 121.03"/><path class="cls-8" d="M516.94,268.3c0,2.25.07,4.51.11,6.76l-16.37-6.61Z"/><path class="cls-9" d="M489.05,131.25l7.31,4.28.42,12.77-7.52-4.13Z"/><path class="cls-9" d="M501.37,138.15l7.32,4.28.42,12.77-7.52-4.14Z"/><path class="cls-9" d="M501.7,157.81l7.32,4.28.42,12.77-7.52-4.13Z"/><path class="cls-9" d="M502,177.47l7.32,4.28.42,12.77-7.52-4.13Z"/><path class="cls-9" d="M502.36,197.14l7.32,4.28.42,12.77-7.52-4.14Z"/><path class="cls-9" d="M502.7,216.8l7.31,4.28.42,12.77-7.52-4.13Z"/><path class="cls-9" d="M503,236.46l7.31,4.28.42,12.77-7.52-4.13Z"/><path class="cls-9" d="M503.36,256.13l7.31,4.28.42,12.77L503.57,269Z"/><path class="cls-9" d="M489.37,150.71l7.31,4.29q.22,6.38.43,12.77l-7.52-4.14Z"/><path class="cls-9" d="M489.7,170.18l7.31,4.28q.21,6.39.43,12.77l-7.52-4.13Z"/><path class="cls-9" d="M490,190.63l7.31,4.29q.22,6.38.43,12.77l-7.52-4.14Z"/><path class="cls-9" d="M490.41,212.61l7.31,4.28q.22,6.39.43,12.77l-7.52-4.13Z"/><path class="cls-9" d="M490.73,231.64l7.31,4.28q.22,6.39.43,12.77L491,244.56Z"/><path class="cls-9" d="M491.07,251.69l7.31,4.28q.21,6.39.43,12.77l-7.53-4.13Z"/><line class="cls-6" x1="429.82" y1="266.62" x2="430.32" y2="326.75"/><line class="cls-6" x1="430.43" y1="332.33" x2="429.74" y2="272.2"/><line class="cls-7" x1="461.63" y1="346.33" x2="396.39" y2="320.6"/><line class="cls-5" x1="434.72" y1="492.09" x2="464.97" y2="491.51"/><line class="cls-5" x1="434.35" y1="472.7" x2="434.72" y2="492.09"/><polyline class="cls-8" points="434.35 472.7 431.89 344.18 462.14 343.6 464.97 491.51"/><path class="cls-8" d="M431.88,344.36c0-2.41-.09-4.83-.13-7.24l16.64,7.06Z"/><path class="cls-9" d="M460.1,481.3,452.78,477q-.22-6.39-.46-12.77l7.54,4.12Z"/><path class="cls-9" d="M447.76,474.44l-7.32-4.27q-.24-6.37-.46-12.76l7.53,4.11Z"/><path class="cls-9" d="M447.38,454.78l-7.32-4.27q-.22-6.37-.46-12.77l7.53,4.12Z"/><path class="cls-9" d="M447,435.11l-7.32-4.26q-.23-6.39-.46-12.77l7.54,4.12Z"/><path class="cls-9" d="M446.63,415.45l-7.33-4.26-.45-12.77,7.53,4.11Z"/><path class="cls-9" d="M446.25,395.79l-7.32-4.26q-.24-6.39-.46-12.77l7.53,4.11Z"/><path class="cls-9" d="M445.87,376.13l-7.32-4.27q-.23-6.37-.46-12.77l7.53,4.12Z"/><path class="cls-9" d="M445.49,356.46l-7.32-4.26-.45-12.77,7.53,4.12Z"/><path class="cls-9" d="M459.73,461.84l-7.32-4.26q-.23-6.39-.46-12.77l7.53,4.11Z"/><path class="cls-9" d="M459.36,442.38,452,438.11l-.45-12.76,7.53,4.11Z"/><path class="cls-9" d="M459,421.92l-7.32-4.26q-.22-6.39-.46-12.77l7.54,4.12Z"/><path class="cls-9" d="M458.54,400l-7.32-4.27q-.23-6.37-.46-12.77L458.3,387Z"/><path class="cls-9" d="M458.18,380.92l-7.32-4.26q-.24-6.39-.46-12.77l7.53,4.11Z"/><path class="cls-9" d="M457.79,360.87l-7.32-4.26q-.23-6.39-.46-12.77l7.54,4.11Z"/><line class="cls-5" x1="398.58" y1="477.85" x2="428.83" y2="477.27"/><polyline class="cls-8" points="398.21 458.46 395.75 329.94 426 329.37 428.83 477.28"/><path class="cls-8" d="M395.74,330.08l-.12-6.76L412,329.89Z"/><path class="cls-9" d="M424,467.07l-7.32-4.27q-.22-6.37-.46-12.77l7.54,4.12Z"/><path class="cls-9" d="M411.62,460.2l-7.32-4.26q-.24-6.39-.46-12.77l7.53,4.11Z"/><path class="cls-9" d="M411.24,440.54l-7.32-4.27q-.23-6.37-.46-12.77l7.53,4.12Z"/><path class="cls-9" d="M410.86,420.88l-7.32-4.27q-.23-6.39-.46-12.77l7.54,4.12Z"/><path class="cls-9" d="M410.49,401.21,403.16,397l-.45-12.77,7.53,4.11Z"/><path class="cls-9" d="M410.11,381.55l-7.32-4.26q-.24-6.39-.46-12.77l7.53,4.11Z"/><path class="cls-9" d="M409.73,361.89l-7.32-4.27q-.23-6.37-.46-12.76l7.53,4.11Z"/><path class="cls-9" d="M409.35,342.23,402,338q-.22-6.37-.46-12.77l7.54,4.12Z"/><path class="cls-9" d="M423.59,447.6l-7.32-4.26q-.22-6.39-.46-12.77l7.53,4.11Z"/><path class="cls-9" d="M423.22,428.14l-7.33-4.26-.45-12.77,7.53,4.11Z"/><path class="cls-9" d="M422.82,407.68l-7.32-4.26q-.22-6.39-.46-12.77l7.54,4.12Z"/><path class="cls-9" d="M422.4,385.71l-7.32-4.27q-.22-6.37-.46-12.76l7.53,4.11Z"/><path class="cls-9" d="M422,366.68l-7.32-4.26q-.24-6.39-.46-12.77l7.53,4.11Z"/><path class="cls-9" d="M421.65,346.63l-7.32-4.26q-.22-6.39-.46-12.77l7.54,4.11Z"/><line class="cls-6" x1="430.14" y1="323.31" x2="429.79" y2="263.18"/><line class="cls-6" x1="429.68" y1="257.6" x2="430.23" y2="317.73"/><line class="cls-7" x1="398.52" y1="243.52" x2="463.7" y2="269.41"/><line class="cls-5" x1="425.78" y1="97.83" x2="395.53" y2="98.34"/><line class="cls-5" x1="426.11" y1="117.22" x2="425.78" y2="97.83"/><polyline class="cls-8" points="426.1 117.22 428.26 245.74 398.01 246.25 395.53 98.33"/><path class="cls-8" d="M428.26,245.56l.12,7.24-16.62-7.1Z"/><path class="cls-9" d="M400.37,108.55l7.31,4.29q.22,6.38.43,12.76l-7.52-4.13Z"/><path class="cls-9" d="M412.7,115.45l7.31,4.28q.21,6.39.43,12.77l-7.52-4.13Z"/><path class="cls-9" d="M413,135.11l7.31,4.28q.21,6.39.43,12.77L413.25,148Z"/><path class="cls-9" d="M413.36,154.78l7.31,4.28q.22,6.38.43,12.77l-7.52-4.14Z"/><path class="cls-9" d="M413.69,174.44l7.31,4.28q.22,6.39.43,12.77l-7.52-4.13Z"/><path class="cls-9" d="M414,194.1l7.31,4.28q.23,6.39.43,12.77L414.24,207Z"/><path class="cls-9" d="M414.35,213.77l7.31,4.28q.22,6.38.43,12.77l-7.52-4.14Z"/><path class="cls-9" d="M414.68,233.43l7.31,4.28q.22,6.39.43,12.77l-7.52-4.13Z"/><path class="cls-9" d="M400.7,128,408,132.3q.21,6.39.43,12.77l-7.52-4.13Z"/><path class="cls-9" d="M401,147.48l7.31,4.28.42,12.77-7.52-4.13Z"/><path class="cls-9" d="M401.37,167.94l7.31,4.28q.21,6.39.43,12.77l-7.52-4.13Z"/><path class="cls-9" d="M401.74,189.91l7.31,4.29q.21,6.38.43,12.77L402,202.83Z"/><path class="cls-9" d="M402.06,208.94l7.31,4.28q.21,6.39.43,12.77l-7.53-4.13Z"/><path class="cls-9" d="M402.39,229l7.32,4.29.42,12.77-7.52-4.14Z"/><line class="cls-5" x1="461.89" y1="112.15" x2="431.63" y2="112.66"/><polyline class="cls-8" points="462.21 131.55 464.37 260.07 434.12 260.57 431.63 112.66"/><path class="cls-8" d="M464.37,259.93c0,2.25.07,4.51.11,6.76l-16.37-6.61Z"/><path class="cls-9" d="M436.48,122.88l7.31,4.28q.21,6.39.43,12.77l-7.53-4.13Z"/><path class="cls-9" d="M448.81,129.77l7.31,4.29q.21,6.38.43,12.77L449,142.69Z"/><path class="cls-9" d="M449.14,149.44l7.31,4.28q.21,6.39.43,12.77l-7.53-4.13Z"/><path class="cls-9" d="M449.47,169.1l7.31,4.28q.21,6.39.43,12.77L449.68,182Z"/><path class="cls-9" d="M449.8,188.76l7.31,4.29q.21,6.38.43,12.77L450,201.68Z"/><path class="cls-9" d="M450.13,208.43l7.31,4.28q.21,6.39.43,12.77l-7.53-4.13Z"/><path class="cls-9" d="M450.46,228.09l7.31,4.28q.21,6.39.43,12.77L450.67,241Z"/><path class="cls-9" d="M450.79,247.75,458.1,252q.21,6.38.43,12.77L451,260.67Z"/><path class="cls-9" d="M436.8,142.34l7.32,4.28.42,12.77L437,155.26Z"/><path class="cls-9" d="M437.13,161.81l7.31,4.28q.22,6.38.43,12.77l-7.52-4.14Z"/><path class="cls-9" d="M437.47,182.26l7.32,4.28.42,12.77-7.52-4.13Z"/><path class="cls-9" d="M437.84,204.24l7.32,4.28.42,12.77-7.52-4.13Z"/><path class="cls-9" d="M438.16,223.27l7.31,4.28q.22,6.39.43,12.77l-7.52-4.13Z"/><path class="cls-9" d="M438.5,243.32l7.31,4.28q.21,6.39.43,12.77l-7.52-4.13Z"/><rect class="cls-4" x="114.32" y="297.96" width="115.51" height="15.97" rx="4.62" transform="translate(342.55 612.8) rotate(-179.7)"/><line class="cls-6" x1="127.16" y1="325.75" x2="126.98" y2="265.62"/><line class="cls-6" x1="126.89" y1="260.04" x2="127.27" y2="320.17"/><line class="cls-7" x1="95.77" y1="245.87" x2="160.87" y2="271.94"/><line class="cls-5" x1="123.44" y1="100.25" x2="93.18" y2="100.68"/><line class="cls-5" x1="123.71" y1="119.64" x2="123.44" y2="100.25"/><polyline class="cls-8" points="123.7 119.65 125.5 248.17 95.25 248.59 93.18 100.67"/><path class="cls-8" d="M125.5,248c0,2.41.07,4.82.1,7.24L109,248.09Z"/><path class="cls-9" d="M98,110.91l7.3,4.3.39,12.77-7.51-4.15Z"/><path class="cls-9" d="M110.31,117.84l7.3,4.3.39,12.77-7.51-4.15Z"/><path class="cls-9" d="M110.58,137.5l7.3,4.3.39,12.77-7.51-4.15Z"/><path class="cls-9" d="M110.86,157.16l7.3,4.31.39,12.77L111,170.08Z"/><path class="cls-9" d="M111.13,176.83l7.3,4.3.39,12.77-7.51-4.15Z"/><path class="cls-9" d="M111.4,196.49l7.3,4.31q.19,6.38.4,12.77l-7.52-4.16Z"/><path class="cls-9" d="M111.68,216.16l7.3,4.3.39,12.77-7.51-4.15Z"/><path class="cls-9" d="M112,235.82l7.3,4.3.39,12.77-7.51-4.15Z"/><path class="cls-9" d="M98.27,130.37l7.3,4.3.39,12.77-7.51-4.15Z"/><path class="cls-9" d="M98.54,149.84l7.3,4.3.39,12.77-7.51-4.16Z"/><path class="cls-9" d="M98.83,170.29l7.3,4.31.39,12.77L99,183.21Z"/><path class="cls-9" d="M99.13,192.27l7.3,4.3.39,12.77-7.51-4.15Z"/><path class="cls-9" d="M99.4,211.3l7.3,4.3.39,12.77-7.51-4.15Z"/><path class="cls-9" d="M99.68,231.35l7.3,4.3.39,12.77-7.51-4.15Z"/><line class="cls-5" x1="159.5" y1="114.68" x2="129.25" y2="115.1"/><polyline class="cls-8" points="159.77 134.07 161.56 262.6 131.31 263.02 129.25 115.1"/><path class="cls-8" d="M161.57,262.46q0,3.39.08,6.76l-16.34-6.65Z"/><path class="cls-9" d="M134.06,125.33l7.3,4.31.39,12.77-7.51-4.16Z"/><path class="cls-9" d="M146.37,132.26l7.3,4.31.39,12.77-7.51-4.16Z"/><path class="cls-9" d="M146.65,151.93l7.3,4.3.39,12.77-7.51-4.15Z"/><path class="cls-9" d="M146.92,171.59l7.3,4.3.39,12.78-7.51-4.16Z"/><path class="cls-9" d="M147.2,191.26l7.3,4.3.39,12.77-7.51-4.15Z"/><path class="cls-9" d="M147.47,210.92l7.3,4.3.39,12.77-7.51-4.15Z"/><path class="cls-9" d="M147.74,230.58l7.3,4.31q.19,6.38.4,12.77l-7.52-4.16Z"/><path class="cls-9" d="M148,250.25l7.3,4.3.39,12.77-7.51-4.15Z"/><path class="cls-9" d="M134.33,144.8l7.3,4.3q.19,6.39.4,12.77l-7.52-4.15Z"/><path class="cls-9" d="M134.61,164.26l7.3,4.31.39,12.77-7.51-4.16Z"/><path class="cls-9" d="M134.89,184.72l7.3,4.3.39,12.77-7.51-4.15Z"/><path class="cls-9" d="M135.2,206.7l7.3,4.3.39,12.77-7.51-4.15Z"/><path class="cls-9" d="M135.46,225.73l7.3,4.3.39,12.77-7.51-4.15Z"/><path class="cls-9" d="M135.74,245.78l7.3,4.3.39,12.77-7.51-4.15Z"/><line class="cls-6" x1="127.13" y1="269.05" x2="127.17" y2="329.18"/><line class="cls-6" x1="127.25" y1="334.76" x2="127.01" y2="274.63"/><line class="cls-7" x1="158.33" y1="349" x2="93.29" y2="322.78"/><line class="cls-5" x1="130.31" y1="494.56" x2="160.57" y2="494.21"/><line class="cls-5" x1="130.09" y1="475.17" x2="130.31" y2="494.56"/><polyline class="cls-8" points="130.1 475.16 128.61 346.63 158.86 346.28 160.57 494.21"/><path class="cls-8" d="M128.61,346.81l-.09-7.24,16.59,7.19Z"/><path class="cls-9" d="M155.78,484l-7.29-4.32-.36-12.77,7.5,4.17Z"/><path class="cls-9" d="M143.49,477l-7.29-4.32-.36-12.77,7.5,4.17Z"/><path class="cls-9" d="M143.26,457.34,136,453l-.36-12.77,7.5,4.17Z"/><path class="cls-9" d="M143,437.68l-7.29-4.32-.36-12.78,7.5,4.18Z"/><path class="cls-9" d="M142.81,418l-7.29-4.32-.36-12.77,7.5,4.17Z"/><path class="cls-9" d="M142.58,398.35,135.29,394l-.36-12.78,7.5,4.18Z"/><path class="cls-9" d="M142.35,378.68l-7.29-4.32-.36-12.77,7.5,4.17Z"/><path class="cls-9" d="M142.12,359l-7.29-4.32-.36-12.78,7.5,4.18Z"/><path class="cls-9" d="M155.56,464.5l-7.29-4.32-.36-12.77,7.5,4.17Z"/><path class="cls-9" d="M155.33,445,148,440.71l-.36-12.77,7.5,4.17Z"/><path class="cls-9" d="M155.09,424.58l-7.28-4.32q-.19-6.39-.37-12.78l7.51,4.18Z"/><path class="cls-9" d="M154.84,402.6l-7.29-4.32-.36-12.77,7.5,4.17Z"/><path class="cls-9" d="M154.62,383.57l-7.29-4.32L147,366.48l7.5,4.17Z"/><path class="cls-9" d="M154.39,363.51l-7.29-4.32-.36-12.77,7.5,4.18Z"/><line class="cls-5" x1="94.28" y1="480.04" x2="124.54" y2="479.69"/><polyline class="cls-8" points="94.06 460.65 92.58 332.12 122.83 331.77 124.54 479.7"/><path class="cls-8" d="M92.57,332.25q0-3.37-.07-6.75l16.33,6.69Z"/><path class="cls-9" d="M119.75,469.45l-7.29-4.32-.36-12.77,7.5,4.17Z"/><path class="cls-9" d="M107.46,462.49l-7.29-4.32-.36-12.77,7.5,4.17Z"/><path class="cls-9" d="M107.23,442.83l-7.29-4.32-.36-12.78,7.5,4.18Z"/><path class="cls-9" d="M107,423.16l-7.29-4.32-.36-12.77,7.5,4.17Z"/><path class="cls-9" d="M106.78,403.5l-7.29-4.32-.36-12.77,7.5,4.17Z"/><path class="cls-9" d="M106.55,383.83l-7.29-4.32-.36-12.77,7.5,4.17Z"/><path class="cls-9" d="M106.32,364.17,99,359.85l-.36-12.77,7.5,4.17Z"/><path class="cls-9" d="M106.09,344.5l-7.29-4.32-.36-12.77,7.5,4.17Z"/><path class="cls-9" d="M119.53,450l-7.29-4.32-.36-12.78,7.5,4.18Z"/><path class="cls-9" d="M119.3,430.52,112,426.2l-.36-12.77,7.5,4.17Z"/><path class="cls-9" d="M119.06,410.06l-7.29-4.32L111.41,393l7.5,4.17Z"/><path class="cls-9" d="M118.81,388.08l-7.29-4.32L111.16,371l7.5,4.17Z"/><path class="cls-9" d="M118.59,369.05l-7.29-4.32L110.94,352l7.5,4.17Z"/><path class="cls-9" d="M118.36,349l-7.29-4.32-.36-12.77,7.5,4.17Z"/><line class="cls-6" x1="179.69" y1="329.93" x2="179.51" y2="269.8"/><line class="cls-6" x1="179.42" y1="264.22" x2="179.8" y2="324.35"/><line class="cls-7" x1="148.3" y1="250.06" x2="213.4" y2="276.12"/><line class="cls-5" x1="175.97" y1="104.44" x2="145.71" y2="104.86"/><line class="cls-5" x1="176.24" y1="123.83" x2="175.97" y2="104.44"/><polyline class="cls-8" points="176.24 123.83 178.03 252.36 147.78 252.78 145.71 104.86"/><path class="cls-8" d="M178,252.18c0,2.42.07,4.83.1,7.24l-16.6-7.15Z"/><path class="cls-9" d="M150.53,115.09l7.3,4.31.39,12.77L150.71,128Z"/><path class="cls-9" d="M162.84,122l7.3,4.31.39,12.77L163,134.94Z"/><path class="cls-9" d="M163.11,141.69l7.3,4.3.39,12.77-7.51-4.15Z"/><path class="cls-9" d="M163.39,161.35l7.3,4.3.39,12.77-7.51-4.15Z"/><path class="cls-9" d="M163.66,181l7.3,4.3.39,12.77-7.51-4.16Z"/><path class="cls-9" d="M163.94,200.68l7.29,4.3q.21,6.39.4,12.77l-7.51-4.15Z"/><path class="cls-9" d="M164.21,220.34l7.3,4.31.39,12.77-7.51-4.16Z"/><path class="cls-9" d="M164.48,240l7.3,4.3.39,12.77-7.51-4.15Z"/><path class="cls-9" d="M150.8,134.56l7.3,4.3.39,12.77L151,147.48Z"/><path class="cls-9" d="M151.07,154l7.3,4.3.39,12.78-7.51-4.16Z"/><path class="cls-9" d="M151.36,174.48l7.3,4.3.39,12.77-7.51-4.15Z"/><path class="cls-9" d="M151.66,196.46l7.3,4.3.39,12.77-7.51-4.15Z"/><path class="cls-9" d="M151.93,215.49l7.3,4.3.39,12.77-7.51-4.15Z"/><path class="cls-9" d="M152.21,235.54l7.3,4.3.39,12.77-7.51-4.15Z"/><line class="cls-5" x1="212.03" y1="118.87" x2="181.78" y2="119.29"/><polyline class="cls-8" points="212.3 138.26 214.09 266.79 183.84 267.21 181.78 119.28"/><path class="cls-8" d="M214.1,266.65l.09,6.76-16.35-6.66Z"/><path class="cls-9" d="M186.59,129.52l7.3,4.3.39,12.77-7.51-4.15Z"/><path class="cls-9" d="M198.9,136.45l7.3,4.3.39,12.77-7.51-4.15Z"/><path class="cls-9" d="M199.18,156.12l7.3,4.3.39,12.77L199.36,169Z"/><path class="cls-9" d="M199.45,175.78l7.3,4.3.39,12.77-7.51-4.15Z"/><path class="cls-9" d="M199.73,195.44l7.3,4.31.39,12.77-7.51-4.16Z"/><path class="cls-9" d="M200,215.11l7.3,4.3.39,12.77L200.18,228Z"/><path class="cls-9" d="M200.28,234.77l7.29,4.3q.21,6.39.4,12.77l-7.51-4.15Z"/><path class="cls-9" d="M200.55,254.44l7.3,4.3.39,12.77-7.51-4.16Z"/><path class="cls-9" d="M186.87,149l7.29,4.3q.21,6.38.4,12.77l-7.51-4.16Z"/><path class="cls-9" d="M187.14,168.45l7.3,4.3.39,12.77-7.51-4.15Z"/><path class="cls-9" d="M187.42,188.91l7.3,4.3.39,12.77-7.51-4.15Z"/><path class="cls-9" d="M187.73,210.89l7.3,4.3.39,12.77-7.51-4.16Z"/><path class="cls-9" d="M188,229.91l7.3,4.31q.19,6.38.4,12.77l-7.52-4.16Z"/><path class="cls-9" d="M188.27,250l7.3,4.3q.19,6.39.4,12.77l-7.52-4.15Z"/><line class="cls-6" x1="179.66" y1="273.24" x2="179.7" y2="333.37"/><line class="cls-6" x1="179.78" y1="338.95" x2="179.54" y2="278.82"/><line class="cls-7" x1="210.86" y1="353.19" x2="145.82" y2="326.97"/><line class="cls-5" x1="182.85" y1="498.74" x2="213.1" y2="498.39"/><line class="cls-5" x1="182.62" y1="479.35" x2="182.85" y2="498.74"/><polyline class="cls-8" points="182.63 479.35 181.14 350.82 211.39 350.47 213.1 498.4"/><path class="cls-8" d="M181.14,351q0-3.63-.08-7.24l16.58,7.18Z"/><path class="cls-9" d="M208.31,488.15,201,483.83l-.36-12.77,7.5,4.17Z"/><path class="cls-9" d="M196,481.19l-7.29-4.32-.36-12.77,7.5,4.17Z"/><path class="cls-9" d="M195.79,461.53l-7.29-4.32-.36-12.77,7.5,4.17Z"/><path class="cls-9" d="M195.56,441.86l-7.29-4.32-.36-12.77,7.51,4.17Z"/><path class="cls-9" d="M195.34,422.2l-7.29-4.32-.36-12.77,7.5,4.17Z"/><path class="cls-9" d="M195.11,402.53l-7.29-4.32-.36-12.77,7.5,4.17Z"/><path class="cls-9" d="M194.88,382.87l-7.29-4.32-.36-12.77,7.5,4.17Z"/><path class="cls-9" d="M194.65,363.2l-7.28-4.32q-.19-6.37-.37-12.77l7.51,4.17Z"/><path class="cls-9" d="M208.09,468.69l-7.29-4.32-.36-12.78,7.5,4.18Z"/><path class="cls-9" d="M207.86,449.22l-7.29-4.32-.36-12.77,7.5,4.17Z"/><path class="cls-9" d="M207.63,428.76l-7.29-4.32L200,411.67l7.5,4.17Z"/><path class="cls-9" d="M207.37,406.78l-7.29-4.32-.36-12.77,7.5,4.17Z"/><path class="cls-9" d="M207.15,387.75l-7.29-4.32-.36-12.77,7.5,4.17Z"/><path class="cls-9" d="M206.92,367.7l-7.29-4.32-.36-12.77,7.5,4.17Z"/><line class="cls-5" x1="146.81" y1="484.23" x2="177.07" y2="483.88"/><polyline class="cls-8" points="146.6 464.84 145.11 336.31 175.36 335.96 177.07 483.88"/><path class="cls-8" d="M145.1,336.44q0-3.37-.07-6.76l16.33,6.7Z"/><path class="cls-9" d="M172.28,473.64,165,469.32l-.36-12.77,7.5,4.17Z"/><path class="cls-9" d="M160,466.68l-7.29-4.32-.36-12.77,7.5,4.17Z"/><path class="cls-9" d="M159.76,447l-7.29-4.32-.36-12.77,7.5,4.17Z"/><path class="cls-9" d="M159.53,427.35,152.24,423l-.36-12.77,7.5,4.17Z"/><path class="cls-9" d="M159.31,407.68,152,403.36l-.36-12.77,7.5,4.17Z"/><path class="cls-9" d="M159.08,388l-7.29-4.32-.36-12.77,7.5,4.17Z"/><path class="cls-9" d="M158.85,368.35,151.56,364l-.36-12.77,7.5,4.17Z"/><path class="cls-9" d="M158.62,348.69l-7.29-4.32L151,331.6l7.5,4.17Z"/><path class="cls-9" d="M172.06,454.17l-7.29-4.32-.36-12.77,7.5,4.17Z"/><path class="cls-9" d="M171.83,434.71l-7.29-4.32-.36-12.77,7.5,4.17Z"/><path class="cls-9" d="M171.59,414.25l-7.28-4.32q-.19-6.39-.37-12.77l7.51,4.17Z"/><path class="cls-9" d="M171.34,392.27,164.05,388l-.36-12.77,7.5,4.17Z"/><path class="cls-9" d="M171.12,373.24l-7.29-4.32-.36-12.77,7.5,4.17Z"/><path class="cls-9" d="M170.89,353.19l-7.29-4.32-.36-12.77,7.5,4.17Z"/><line class="cls-10" x1="208.4" y1="298.15" x2="208.08" y2="314.13"/><line class="cls-10" x1="200.71" y1="298.11" x2="200.39" y2="314.09"/><line class="cls-10" x1="407.35" y1="297.34" x2="407.35" y2="313.31"/><line class="cls-10" x1="416.76" y1="297.34" x2="416.76" y2="313.31"/></g></g></svg>