<svg xmlns="http://www.w3.org/2000/svg" viewBox="0 0 134.83 134.83"><defs><style>.cls-1{fill:#c24b26;}.cls-2{fill:#ca9e67;}</style></defs><title>Asset 2</title><g id="Layer_2" data-name="Layer 2"><g id="Layer_1-2" data-name="Layer 1"><path class="cls-1" d="M133.41,52.73A67.81,67.81,0,0,1,133.34,83l-.11,0c-25.08,11-54.08,17-81.08,7-4.23-2.11-5-6.71-5.06-11.34a11.53,11.53,0,0,0-10-11.31,1.15,1.15,0,0,0-.26,0A13.76,13.76,0,0,0,22,78.74c-.23,1.38-.46,2.81-.82,4.23-2,8-11,4-17.12,5.31l-.51.17A67.72,67.72,0,0,1,2.39,50.77c9.76-1.57,19.76.2,29.76,1.2,16,3,30,7,46,6a19.29,19.29,0,0,1,10,3c6,4,0,11,1,16,0,7,8,7,14,6,3-1,9-2,8-7-1-4-7-5-5-10C111.15,56,123.14,55.24,133.41,52.73Z" transform="translate(-0.25 -0.25)"/><path class="cls-2" d="M133.23,82.92l.11,0a67.07,67.07,0,0,1-14.28,28.34l-.16-.14c-8.75.82-15.75,4.82-23.75,8.82-10,4-20,8-31,5-3-1-9-4-7-8,4-7,13-4,20-7,2-1,4-6,0-8-7-3-15-1-23,0-14,4-27,10-40.76,5.29l-.19.14a66.44,66.44,0,0,1-9.68-19L4,88.28C10.15,87,19.15,91,21.15,83c.36-1.42.59-2.85.82-4.23A13.76,13.76,0,0,1,36.83,67.29a1.15,1.15,0,0,1,.26,0,11.53,11.53,0,0,1,10,11.31c.08,4.63.83,9.23,5.06,11.34C79.15,100,108.15,94,133.23,82.92Z" transform="translate(-0.25 -0.25)"/><path class="cls-2" d="M122.28,28.13a67,67,0,0,1,11.13,24.6C123.14,55.24,111.15,56,106.15,66c-2,5,4,6,5,10,1,5-5,6-8,7-6,1-14,1-14-6-1-5,5-12-1-16a19.29,19.29,0,0,0-10-3c-16,1-30-3-46-6-10-1-20-2.77-29.76-1.2a66.81,66.81,0,0,1,9.26-20.63,36.85,36.85,0,0,0,5.57,2c4.2,1.16,12.84,3.54,20.15-.35a26,26,0,0,0,3.29-2.21l18.13-.33a2.86,2.86,0,0,1,.15.41c.74,2.46-1.92,5.42-2.3,5.84-1.27,1.42-2,1.41-2.47,2.47-.92,2.26,1.38,5.18,1.76,5.66,5.27,6.68,22.06,5.17,23.52.53.78-2.48-3.3-4.39-3-9.37a10.48,10.48,0,0,1,2.42-5.9l15-.27a63.87,63.87,0,0,0,8.22,1.57A49.63,49.63,0,0,0,122.28,28.13Z" transform="translate(-0.25 -0.25)"/><path class="cls-1" d="M122.28,28.13l-28.43.52-2.24-.57c-.9-.23-1.77-.45-2.6-.64-3.47-.81-6.34-1.17-8.48,0a5.14,5.14,0,0,0-1.2.91l-.06.06c-.12.13-.26.28-.41.46l-20.07.36a2.5,2.5,0,0,0-.21-.35,4.24,4.24,0,0,0-1.42-1.3,12,12,0,0,0-3.7-1.29c-.8-.18-4-.78-9,1.23l-.33.14A16.66,16.66,0,0,0,41,29.38l-.33.23-29,.53a67.43,67.43,0,0,1,110.63-2Z" transform="translate(-0.25 -0.25)"/><path class="cls-1" d="M93.85,28.65l28.43-.52a49.63,49.63,0,0,1-20.21,2.09A63.87,63.87,0,0,1,93.85,28.65Z" transform="translate(-0.25 -0.25)"/><path class="cls-1" d="M118.9,111.15l.16.14A67.42,67.42,0,0,1,13.2,107.4l.19-.14C27.15,112,40.15,106,54.15,102c8-1,16-3,23,0,4,2,2,7,0,8-7,3-16,0-20,7-2,4,4,7,7,8,11,3,21-1,31-5C103.15,116,110.15,112,118.9,111.15Z" transform="translate(-0.25 -0.25)"/><path class="cls-2" d="M93.85,28.65l-15,.27c.15-.18.29-.33.41-.46l.06-.06a5.14,5.14,0,0,1,1.2-.91c2.14-1.22,5-.86,8.48,0,.83.19,1.7.41,2.6.64Z" transform="translate(-0.25 -0.25)"/><path class="cls-1" d="M76.44,34.82c-.29,5,3.79,6.89,3,9.37C78,48.83,61.2,50.34,55.93,43.66c-.38-.48-2.68-3.4-1.76-5.66.43-1.06,1.2-1,2.47-2.47.38-.42,3-3.38,2.3-5.84a2.86,2.86,0,0,0-.15-.41l20.07-.36A10.48,10.48,0,0,0,76.44,34.82Z" transform="translate(-0.25 -0.25)"/><path class="cls-2" d="M58.79,29.28l-18.13.33.33-.23a16.66,16.66,0,0,1,3.12-1.67l.33-.14c5-2,8.22-1.41,9-1.23a12,12,0,0,1,3.7,1.29,4.24,4.24,0,0,1,1.42,1.3A2.5,2.5,0,0,1,58.79,29.28Z" transform="translate(-0.25 -0.25)"/><path class="cls-1" d="M11.65,30.14l29-.53a26,26,0,0,1-3.29,2.21c-7.31,3.89-15.95,1.51-20.15.35A36.85,36.85,0,0,1,11.65,30.14Z" transform="translate(-0.25 -0.25)"/></g></g></svg>