<svg xmlns="http://www.w3.org/2000/svg" viewBox="0 0 589.6 885.13"><defs><style>.cls-1,.cls-2{fill:#6ca1b0;}.cls-2,.cls-4,.cls-5,.cls-6,.cls-7,.cls-8,.cls-9{stroke:#000;stroke-miterlimit:10;}.cls-2,.cls-9{stroke-width:0.25px;}.cls-3{fill:#b6d0d8;}.cls-4,.cls-7{fill:#fff;}.cls-4,.cls-5,.cls-6,.cls-8{stroke-width:4px;}.cls-6{fill:none;}.cls-7{stroke-width:6px;}.cls-8{fill:#9f0004;}.cls-9{fill:#009f8b;}</style></defs><title>logo1</title><g id="Layer_2" data-name="Layer 2"><g id="Layer_1-2" data-name="Layer 1"><path class="cls-1" d="M222.6,653.13l-3,39c-7.39-.63-11.71,1.45-14,3-13.14,8.87-13.22,36.54,0,51a34.05,34.05,0,0,0,14,9q2.49,35.49,5,71l-32,4q1,27.5,2,55l107-3-6-60h-32v-67c3.46-.51,12-2.23,16-9,1.52-2.62,1.6-4.69,1-17-1-20.73-1.66-23.71-4-27-3.87-5.45-7.27-5-11-9-4.8-5.21-8-15.86,0-40Z"/><circle class="cls-2" cx="280.1" cy="27.63" r="27.5"/><ellipse class="cls-3" cx="282.6" cy="97.63" rx="131" ry="15.5"/><path class="cls-2" d="M413.6,304.13h-262v-202a1019.65,1019.65,0,0,0,245.68,2q8.21-.94,16.32-2Z"/><circle class="cls-4" cx="213.6" cy="177.13" r="43"/><circle class="cls-4" cx="358.02" cy="177.27" r="43"/><path class="cls-5" d="M211.6,246.13a135.07,135.07,0,0,0,30,16,130.28,130.28,0,0,0,26,7,122.66,122.66,0,0,0,56-5,124.28,124.28,0,0,0,41-23Z"/><path class="cls-3" d="M413.6,306.19c.49,7.76-61.68,30-131.5,29.93-69.27-.1-131-22.2-130.5-29.93.27-4.34,20-3,130.5-3C393.62,303.21,413.32,301.85,413.6,306.19Z"/><ellipse class="cls-5" cx="216.6" cy="177.63" rx="5" ry="17.5"/><ellipse class="cls-6" cx="200.1" cy="181.63" rx="4.5" ry="13.5"/><path class="cls-1" d="M449.6,660.13l-297,3q5-138.51,10-277l264-3Q438.09,521.63,449.6,660.13Z"/><ellipse class="cls-3" cx="292.6" cy="379.13" rx="136" ry="28"/><path class="cls-1" d="M399.6,653.13l3,37.94c7.65-.63,12.13,1.46,14.51,3,13.62,8.92,13.7,36.75,0,51.28a35.39,35.39,0,0,1-14.51,9l-5.19,71.38,33.18,4q-1.05,27.64-2.08,55.3l-110.92-3q3.11-30.17,6.22-60.33H357V754.42c-3.59-.51-12.49-2.24-16.59-9-1.58-2.63-1.66-4.71-1-17.09,1.05-20.84,1.71-23.83,4.14-27.15,4.31-5.88,9.74-8,11.41-9,3.59-2.33,5.23-11-3.32-39Z"/><rect class="cls-7" x="316.6" y="434.13" width="88" height="104"/><path class="cls-8" d="M361.6,470.13c-4.2.79-6-5.1-12-6-4.74-.72-9.43,2.1-12,5-4.52,5.08-5,13.22-1,20l23,24,27-19a22.64,22.64,0,0,0,4-14c-.4-5.91-3.56-14.64-11-17-.27-.09-5.92-1.79-11,1C364.42,466.41,364.59,469.56,361.6,470.13Z"/><path class="cls-2" d="M107.94,610.34l-20.2-5.75L140.6,420.13l19.85,5.53Z"/><path class="cls-3" d="M93,605.31c-10.36-3.24-18.73-.91-30.71,2.43-5.84,1.62-30.17,8.91-52.93,31.53A129.78,129.78,0,0,0,0,649.58L31.06,668c.83-3.61,5.79-23.74,23.52-31.62,1.92-.85,18-7.76,26.24.05,6.2,5.86,4.3,16.54,3.51,20.92C81.1,675.49,65.77,685.92,60.82,689l26.29,20a99.82,99.82,0,0,0,24.51-35.08c5.39-13.1,13.62-33.14,3.86-50.55C108.16,610.29,94.73,605.87,93,605.31Z"/><path class="cls-3" d="M141.6,419.13c-5.23-9.87,14.35-30.92,22-28,5.27,2,6.17,15.94,3,33C155,426.38,144.51,424.62,141.6,419.13Z"/><line class="cls-6" x1="225.6" y1="406.13" x2="238.6" y2="665.13"/><circle class="cls-6" cx="246.6" cy="448.13" r="6"/><circle class="cls-6" cx="256.02" cy="573.47" r="6"/><circle class="cls-6" cx="251.02" cy="509.47" r="6"/><path class="cls-1" d="M485.75,606.4l19.44-5.74L454.34,416.19l-19.1,5.53Z"/><path class="cls-3" d="M500.17,601.37c10-3.24,18-.91,29.55,2.43,5.61,1.63,29,8.91,50.92,31.54a127,127,0,0,1,9,10.31L559.72,664.1c-.8-3.62-5.58-23.75-22.63-31.63-1.85-.85-17.32-7.76-25.25,0-6,5.86-4.13,16.54-3.38,20.92,3.11,18.12,17.87,28.54,22.63,31.62l-25.3,20a100.18,100.18,0,0,1-23.58-35.09c-5.18-13.1-13.1-33.14-3.71-50.55C485.55,606.35,498.46,601.93,500.17,601.37Z"/><path class="cls-3" d="M453.38,415.19c5-9.86-13.82-30.91-21.17-28-5.08,2-5.94,15.94-2.89,33C440.48,422.45,450.57,420.68,453.38,415.19Z"/><ellipse class="cls-5" cx="351.73" cy="175.77" rx="5.21" ry="17.5"/><ellipse class="cls-6" cx="368.91" cy="179.77" rx="4.69" ry="13.5"/><circle class="cls-9" cx="280.6" cy="29.13" r="13"/><path class="cls-2" d="M275.6,55.13c-3.15,3.4,2.24,8.81-1,15-.68,1.29-3.12,3.53-8,8-3.29,3-4.1,3.5-5,5-2.16,3.58-1.76,7.82-1,11l42,1c2.28-4.68,4.34-10.38,2-13-1.43-1.6-3.37-.78-7-2a18.79,18.79,0,0,1-11-10c-2.77-6.86,2.1-11.78-1-15C283.26,52.7,277.83,52.71,275.6,55.13Z"/><path class="cls-2" d="M236.6,334.13c4.86-4.93,12.4-2,35,0a304.75,304.75,0,0,0,38,1,181,181,0,0,0,30-4q.5,12,1,24a138.64,138.64,0,0,1-106-1C232.91,347.27,232,338.78,236.6,334.13Z"/></g></g></svg>