<svg xmlns="http://www.w3.org/2000/svg" viewBox="0 0 322.29 119.57"><defs><style>.cls-1,.cls-3{fill:#010101;}.cls-2{fill:#c7c6c6;stroke:#c7c6c6;stroke-width:3px;}.cls-2,.cls-3{stroke-miterlimit:10;}.cls-3{stroke:#010101;stroke-width:5px;}</style></defs><title>LOGOFINAL</title><g id="Layer_2" data-name="Layer 2"><g id="Layer_1-2" data-name="Layer 1"><rect class="cls-1" x="1.61" y="3.06" width="206.48" height="114.51"/><path class="cls-1" d="M209.51,119.57H0V0H209.51ZM3,114.51H206.48V5.05H3Z"/><path class="cls-2" d="M29.17,93.36l-2.79-1a17.24,17.24,0,0,1-5.2-3,24.9,24.9,0,0,1-4.52-4.93l3.76-7.7a17.89,17.89,0,0,0,5.43,5.33,12.31,12.31,0,0,0,6.43,1.78A9.26,9.26,0,0,0,39.55,81c1.72-1.92,2.58-4.65,2.58-8.16v0a12.73,12.73,0,0,0-1.17-6,7.94,7.94,0,0,0-3-3.26,23.55,23.55,0,0,0-4.79-1.94.32.32,0,0,0-.19,0,.41.41,0,0,1-.19-.05l-.45-.15a31.78,31.78,0,0,1-7-2.79,12.15,12.15,0,0,1-4.64-5.67Q18.7,48.81,18.7,41.21v-.05a31.91,31.91,0,0,1,1.8-11.37,15.19,15.19,0,0,1,5.23-7.18A13.84,13.84,0,0,1,34,20.14a12.85,12.85,0,0,1,4.55.84A17.4,17.4,0,0,1,43,23.47a27.37,27.37,0,0,1,4.29,4.17l-3.44,8a20.38,20.38,0,0,0-4.91-4.52A9.32,9.32,0,0,0,34,29.62a8.46,8.46,0,0,0-6.86,2.93q-2.45,2.94-2.45,8.32v0A11.44,11.44,0,0,0,26,46.74a8.15,8.15,0,0,0,3.15,3.13A33.33,33.33,0,0,0,34.33,52l.22.07.22.07.33.1.33.1A26,26,0,0,1,42,55.47a13.43,13.43,0,0,1,4.39,5.89q1.77,4.08,1.77,11.13v.1a30.28,30.28,0,0,1-1.87,11.22,15.26,15.26,0,0,1-5.41,7.11,14.7,14.7,0,0,1-8.56,2.44Z"/><path class="cls-2" d="M56.12,20.88h6.05V92.62H56.12Zm3.12,34.34H73a4.66,4.66,0,0,0,3.44-1.53,10.23,10.23,0,0,0,2.29-4.34,23,23,0,0,0,.82-6.46,23.15,23.15,0,0,0-.82-6.51A10.49,10.49,0,0,0,76.47,32,4.61,4.61,0,0,0,73,30.46H59.24V20.88H72.82a9.68,9.68,0,0,1,6.79,2.74,17.87,17.87,0,0,1,4.55,7.72,37.41,37.41,0,0,1,1.62,11.55,37.17,37.17,0,0,1-1.62,11.52,17.68,17.68,0,0,1-4.55,7.67,9.7,9.7,0,0,1-6.79,2.71H59.24Z"/><path class="cls-2" d="M103,20.88h5.16l15.9,71.74h-6.53l-12-57.87-12,57.87H87.11ZM94.43,67.31h22.69v9.57H94.43Z"/><path class="cls-2" d="M137.85,93.36l-3.4-3.31a21.65,21.65,0,0,1-5.26-9.37,47.74,47.74,0,0,1-1.87-14.06V46.93a47.78,47.78,0,0,1,1.87-14.06,22,22,0,0,1,5.26-9.4,10.9,10.9,0,0,1,7.87-3.33,10.31,10.31,0,0,1,6.82,2.64,20,20,0,0,1,5.21,7.48,39.65,39.65,0,0,1,2.83,11.2H151a21,21,0,0,0-1.88-6,12,12,0,0,0-3.1-4.07A5.84,5.84,0,0,0,142.32,30a6.15,6.15,0,0,0-4.62,2.12,14.33,14.33,0,0,0-3.09,6,32.5,32.5,0,0,0-1.09,8.9V66.62a32.6,32.6,0,0,0,1.09,8.88,14,14,0,0,0,3.09,5.94,6.16,6.16,0,0,0,4.62,2.1,6,6,0,0,0,3.7-1.33,11.12,11.12,0,0,0,3.08-3.95A20.72,20.72,0,0,0,151,72.05h6.2a39.15,39.15,0,0,1-2.85,11.2,20,20,0,0,1-5.22,7.47,10.28,10.28,0,0,1-6.79,2.64Z"/><path class="cls-2" d="M165.19,20.88h6V92.62h-6Zm2.93,0h24.76v9.58H168.12Zm0,31.33h21.5v9.57h-21.5Zm0,30.84h24.76v9.57H168.12Z"/><path class="cls-3" d="M217.79,20.88h6V92.62h-6Zm3.56,62.41H233c3.06,0,5.3-1,6.7-2.91s2.11-4.67,2.11-8.19v-.14a22.5,22.5,0,0,0-.76-6.27,8.1,8.1,0,0,0-2.39-4,6.15,6.15,0,0,0-4.18-1.41H221.35V51.28h13.16a5.66,5.66,0,0,0,5.06-2.62c1.14-1.74,1.7-4.32,1.7-7.75s-.63-6.26-1.89-8a6.56,6.56,0,0,0-5.7-2.66H221.35V20.88h13.43a10.5,10.5,0,0,1,7,2.37A14.17,14.17,0,0,1,246,30a34.09,34.09,0,0,1,1.39,10.36,26.53,26.53,0,0,1-.86,6.93,15.5,15.5,0,0,1-2.62,5.53,8.54,8.54,0,0,1-4.38,3.08A8.12,8.12,0,0,1,244,59,17.26,17.26,0,0,1,246.94,65a29.65,29.65,0,0,1,1,7.89v.15a31.18,31.18,0,0,1-1.55,10.26A15.22,15.22,0,0,1,242,90.2a10.14,10.14,0,0,1-6.71,2.42H221.35Z"/><path class="cls-3" d="M262.42,90.08a21.4,21.4,0,0,1-5.33-9.28,46.52,46.52,0,0,1-1.88-13.88V46.59a46.63,46.63,0,0,1,1.88-13.89,21.4,21.4,0,0,1,5.33-9.28,11.26,11.26,0,0,1,15.89,0,21.39,21.39,0,0,1,5.32,9.28,46.29,46.29,0,0,1,1.89,13.89V66.92a46.18,46.18,0,0,1-1.89,13.88,21.39,21.39,0,0,1-5.32,9.28,11.26,11.26,0,0,1-15.89,0Zm12.64-8.64a13,13,0,0,0,3.15-5.67,29.52,29.52,0,0,0,1.11-8.51v-21a29.52,29.52,0,0,0-1.11-8.51,13,13,0,0,0-3.15-5.67,6.52,6.52,0,0,0-9.4,0,13.13,13.13,0,0,0-3.14,5.67,29.52,29.52,0,0,0-1.11,8.51v21a29.52,29.52,0,0,0,1.11,8.51,13.13,13.13,0,0,0,3.14,5.67,6.52,6.52,0,0,0,9.4,0Z"/><path class="cls-3" d="M289.37,20.88h30.42v9.58H289.37Zm12.19,5.88h6.05V92.62h-6.05Z"/></g></g></svg>