<svg xmlns="http://www.w3.org/2000/svg" viewBox="0 0 134.84 134.83"><defs><style>.cls-1{fill:#eb5d0b;}.cls-2{fill:#b64206;}</style></defs><title>mars</title><g id="Layer_2" data-name="Layer 2"><g id="Layer_1-2" data-name="Layer 1"><path class="cls-1" d="M134.84,67.42A67.37,67.37,0,1,1,134,56.58,67.54,67.54,0,0,1,134.84,67.42Z"/><ellipse class="cls-2" cx="91.4" cy="26.44" rx="5.69" ry="6.49"/><ellipse class="cls-2" cx="80.56" cy="67.42" rx="11.82" ry="13.48"/><ellipse class="cls-2" cx="104.1" cy="48.33" rx="7" ry="5.78"/><ellipse class="cls-2" cx="32.05" cy="103.96" rx="7.61" ry="9.08"/><ellipse class="cls-2" cx="51.76" cy="119.53" rx="6.66" ry="5.76"/><ellipse class="cls-2" cx="36.42" cy="19.52" rx="5.83" ry="4.75"/><ellipse class="cls-2" cx="20.95" cy="39.91" rx="9.63" ry="11.32"/><ellipse class="cls-2" cx="88.23" cy="99.07" rx="6.7" ry="5.8"/><ellipse class="cls-2" cx="50.85" cy="48.41" rx="5.75" ry="4.6"/><path class="cls-2" d="M134.84,67.42a67.54,67.54,0,0,1-1.93,16.07c-6.46-.09-11.66-6.09-11.66-13.47s5.29-13.48,11.82-13.48c.3,0,.6,0,.9,0A68,68,0,0,1,134.84,67.42Z"/></g></g></svg>