<svg xmlns="http://www.w3.org/2000/svg" viewBox="0 0 134.84 134.83"><defs><style>.cls-1{fill:#7e97a5;}.cls-2{fill:#b2b2b2;}.cls-3{fill:#708691;}</style></defs><title>merkur</title><g id="Layer_2" data-name="Layer 2"><g id="Layer_1-2" data-name="Layer 1"><path class="cls-1" d="M112.39,75.28a9.4,9.4,0,1,1-9.4,9.4A9.39,9.39,0,0,1,112.39,75.28Z" transform="translate(-0.25 -0.25)"/><path class="cls-1" d="M110,30.57a11.83,11.83,0,0,1,5.82,22.12,7.64,7.64,0,0,0-14.25-2A11.83,11.83,0,0,1,110,30.57Z" transform="translate(-0.25 -0.25)"/><path class="cls-2" d="M67.67.25a67.41,67.41,0,0,1,40,121.66,65,65,0,0,1-4-7,8.59,8.59,0,0,0-6.52-14.14c-4-9.12-8-18.37-10.82-23.1a6.64,6.64,0,0,1,.89-8c2.87-3,5.67-6,5-7.72-.12-.33-.43-.72-6-2.83-4.3-1.63-5-1.73-5.3-2.48-1.17-2.66,5.36-6.12,4.6-9.19C85,45,80.34,44,76.53,43.53a5.31,5.31,0,0,0,.29-1c7.18,0,19,0,19.37-1.88.53-2.94,1.72-14.3-8.48-31.56-3.21-5.44-33-1.41-32.89-6.76l-.17-.86A67.24,67.24,0,0,1,67.67.25Zm54.11,84.43a9.4,9.4,0,1,0-9.39,9.4A9.39,9.39,0,0,0,121.78,84.68Zm0-42.28a11.82,11.82,0,1,0-20.25,8.29,7.47,7.47,0,0,0-.87,3.53,7.64,7.64,0,1,0,15.27,0,7.71,7.71,0,0,0-.15-1.53A11.8,11.8,0,0,0,121.78,42.4Z" transform="translate(-0.25 -0.25)"/><path class="cls-3" d="M115.78,52.69a7.66,7.66,0,0,1-7.49,9.17,7.63,7.63,0,0,1-7.63-7.64,7.47,7.47,0,0,1,.87-3.53,11.83,11.83,0,0,0,14.25,2Z" transform="translate(-0.25 -0.25)"/><path class="cls-3" d="M108.29,46.59a7.64,7.64,0,0,1,7.49,6.1,11.83,11.83,0,0,1-14.25-2A7.61,7.61,0,0,1,108.29,46.59Z" transform="translate(-0.25 -0.25)"/><path class="cls-1" d="M67.5,134.7a28.55,28.55,0,0,1-4.19-3.7,7.64,7.64,0,1,0-9.66-9.63c-2.89-2.93-5.08-5.18-5.08-5.18-4.32-1.12-8-7.94-15.2-10.83-2.51-1-18.08-2.37-18.91-11.2-.25-2.58,3.55-8.93,4.76-12.49,2.1-6.17,4.36-7.36,3.89-10.61-.37-2.57-2.16-4.33-5.3-7.42S14,61,11.45,58.33C9.23,56,6.14,52.77,6.85,49.49c.46-2.12,2.32-3.39,4.6-5,3.31-2.26,5.06-2.06,7.77-3.53s6.57-4.76,7.43-8.49c1-4.54-2.34-9.27-6.18-13a67.15,67.15,0,0,1,34.18-18l.17.86C54.66,7.72,84.5,3.69,87.71,9.13c10.2,17.26,9,28.62,8.48,31.56-.34,1.92-12.19,1.86-19.37,1.88a7.25,7.25,0,1,0-.29,1C80.34,44,85,45,85.59,47.41c.76,3.07-5.77,6.53-4.6,9.19.33.75,1,.85,5.3,2.48,5.58,2.11,5.89,2.5,6,2.83.66,1.67-2.14,4.7-5,7.72a6.64,6.64,0,0,0-.89,8c2.87,4.73,6.81,14,10.82,23.1h0a8.59,8.59,0,1,0,6.56,14.14,65,65,0,0,0,4,7,67.11,67.11,0,0,1-40,13.17H67.5ZM43.93,87.87A10.45,10.45,0,1,0,33.48,98.32,10.44,10.44,0,0,0,43.93,87.87Z" transform="translate(-0.25 -0.25)"/><path class="cls-3" d="M105.77,109.35a8.54,8.54,0,0,1-2,5.55c-2.08-4.15-4.31-9.12-6.52-14.14A8.59,8.59,0,0,1,105.77,109.35Z" transform="translate(-0.25 -0.25)"/><path class="cls-3" d="M103.74,114.9a8.59,8.59,0,1,1-6.56-14.14h0C99.43,105.78,101.66,110.75,103.74,114.9Z" transform="translate(-0.25 -0.25)"/><path class="cls-3" d="M77,41.1a7.12,7.12,0,0,1-.15,1.47c-3.13,0-5.37,0-5.38.24s2.32.34,5.09.72A7.08,7.08,0,1,1,77,41.1Z" transform="translate(-0.25 -0.25)"/><path class="cls-2" d="M76.82,42.57a5.31,5.31,0,0,1-.29,1c-2.77-.38-5.09-.5-5.09-.72S73.69,42.58,76.82,42.57Z" transform="translate(-0.25 -0.25)"/><path class="cls-2" d="M67.5,134.7v.38a67.41,67.41,0,0,1-47-115.55c3.84,3.72,7.22,8.45,6.18,13-.86,3.73-4.62,7-7.43,8.49s-4.46,1.27-7.77,3.53c-2.28,1.56-4.14,2.83-4.6,5-.71,3.28,2.38,6.51,4.6,8.84C14,61,14.81,60.69,17.81,63.64s4.93,4.85,5.3,7.42c.47,3.25-1.79,4.44-3.89,10.61-1.21,3.56-5,9.91-4.76,12.49.83,8.83,16.4,10.19,18.91,11.2,7.2,2.89,10.88,9.71,15.2,10.83,0,0,2.19,2.25,5.08,5.18a7.51,7.51,0,0,0-.38,2.38,7.63,7.63,0,0,0,10,7.25A28.55,28.55,0,0,0,67.5,134.7Z" transform="translate(-0.25 -0.25)"/><path class="cls-3" d="M60.9,116.11A7.64,7.64,0,0,1,63.31,131c-2.86-2.76-6.64-6.57-9.66-9.63A7.63,7.63,0,0,1,60.9,116.11Z" transform="translate(-0.25 -0.25)"/><path class="cls-3" d="M63.31,131a7.63,7.63,0,0,1-10-7.25,7.51,7.51,0,0,1,.38-2.38C56.67,124.43,60.45,128.24,63.31,131Z" transform="translate(-0.25 -0.25)"/><path class="cls-3" d="M33.48,77.43A10.45,10.45,0,1,1,23,87.87,10.44,10.44,0,0,1,33.48,77.43Z" transform="translate(-0.25 -0.25)"/></g></g></svg>