<svg xmlns="http://www.w3.org/2000/svg" viewBox="0 0 134.84 134.83"><defs><style>.cls-1{fill:#dadada;}.cls-2,.cls-3{fill:#b2b2b2;}.cls-3{stroke:#dadada;stroke-miterlimit:10;stroke-width:2px;}</style></defs><title>moon</title><g id="Layer_2" data-name="Layer 2"><g id="Layer_1-2" data-name="Layer 1"><path class="cls-1" d="M67.67.25A67.42,67.42,0,0,1,99.52,127.09a159.11,159.11,0,0,1-60.36-35.6c-19.06-18-26.24-40-30.38-56.66h0A67.41,67.41,0,0,1,67.67.25Z" transform="translate(-0.25 -0.25)"/><path class="cls-2" d="M39.16,91.49a159.11,159.11,0,0,0,60.36,35.6A67.43,67.43,0,0,1,8.78,34.83C12.92,51.47,20.1,73.48,39.16,91.49Z" transform="translate(-0.25 -0.25)"/><circle class="cls-3" cx="23.2" cy="64.77" r="8.6"/><circle class="cls-3" cx="71.79" cy="112.3" r="8.6"/><circle class="cls-2" cx="58.15" cy="77.99" r="2.71"/><circle class="cls-2" cx="96.19" cy="79.57" r="8.6"/><circle class="cls-2" cx="94.38" cy="51.79" r="6.8"/><circle class="cls-2" cx="80.39" cy="56.17" r="2.71"/><circle class="cls-2" cx="37.49" cy="30.7" r="14.29"/><circle class="cls-2" cx="51.77" cy="10.7" r="2.71"/><circle class="cls-2" cx="128.99" cy="67.42" r="2.71"/></g></g></svg>