<svg xmlns="http://www.w3.org/2000/svg" viewBox="0 0 218.06 134.81"><defs><style>.cls-1,.cls-4{fill:#c6c6c6;}.cls-2{fill:#fff7a9;}.cls-3{fill:#f9b233;}.cls-4{opacity:0.5;}</style></defs><title>Saturn</title><g id="Layer_2" data-name="Layer 2"><g id="Layer_1-2" data-name="Layer 1"><path class="cls-1" d="M155.93,21.37C194.07,34.54,219.52,53.89,218,70.74c-1.46-15.58-24.58-32.81-58.58-45.13Z"/><path class="cls-2" d="M174.08,67.4c0,1.23,0,2.45-.1,3.66-6.14,3.46-14.77,6-25,7.25a142.83,142.83,0,0,1-43.09-1.82A146.48,146.48,0,0,1,64.65,62.35C55,57.18,47.4,51.35,42.84,45.62a67.49,67.49,0,0,1,6.07-13A166.08,166.08,0,0,0,101.6,55.18a167.7,167.7,0,0,0,71.54,1A67.36,67.36,0,0,1,174.08,67.4Z"/><path class="cls-3" d="M171.22,47.92a65.92,65.92,0,0,1,1.92,8.22,167.7,167.7,0,0,1-71.54-1A166.08,166.08,0,0,1,48.91,32.6a67.67,67.67,0,0,1,4.64-6.74,165.89,165.89,0,0,0,49.37,20.48A167.57,167.57,0,0,0,171.22,47.92Z"/><path class="cls-2" d="M172.38,82.52A65.93,65.93,0,0,1,170.56,89c-16.82,2.59-38.34,2.22-61.5-1.63l.48-2.79a164,164,0,0,0,46,1.36A103.22,103.22,0,0,0,172.38,82.52Z"/><path class="cls-2" d="M168.12,39.65a65.61,65.61,0,0,1,3.1,8.27,167.57,167.57,0,0,1-68.3-1.58A165.89,165.89,0,0,1,53.55,25.86,71,71,0,0,1,60,18.75a150.48,150.48,0,0,0,47.45,19.81A150.47,150.47,0,0,0,168.12,39.65Z"/><path class="cls-3" d="M166.69,36.69c.5,1,1,2,1.43,3a150.47,150.47,0,0,1-60.69-1.09A150.48,150.48,0,0,1,60,18.75c.57-.54,1.14-1.07,1.73-1.6a97,97,0,0,1,9.62-1.3,165,165,0,0,0,37.83,14,165.62,165.62,0,0,0,52,3.74Q164.08,35.08,166.69,36.69Z"/><path class="cls-3" d="M161.14,33.55c1.23-.1,2.44-.22,3.63-.35h0c.67,1.14,1.31,2.31,1.91,3.49"/><path class="cls-1" d="M164.48,102.09l-.72,1.18q-3.73.42-7.65.67C159.12,103.35,161.92,102.72,164.48,102.09Z"/><path class="cls-3" d="M44.77,94.14a63.93,63.93,0,0,1-3.08-8.72,165.33,165.33,0,0,0,44.06,17.33,167.6,167.6,0,0,0,70.36,1.19q3.91-.25,7.65-.67a68.89,68.89,0,0,1-5.69,7.75h0a167.59,167.59,0,0,1-72.31-.8A165.61,165.61,0,0,1,45,94.75C44.94,94.55,44.85,94.34,44.77,94.14Z"/><path class="cls-2" d="M158.06,111a67,67,0,0,1-9.45,9.15,167.28,167.28,0,0,1-68.2-1.59,164.47,164.47,0,0,1-25.82-8.37h0A67.19,67.19,0,0,1,45,94.75a165.61,165.61,0,0,0,40.72,15.47A167.59,167.59,0,0,0,158.06,111Z"/><path class="cls-2" d="M101.35,100.33a219.19,219.19,0,0,0,54.76,3.61,167.6,167.6,0,0,1-70.36-1.19A165.33,165.33,0,0,1,41.69,85.42c-.54-1.93-1-3.91-1.35-5.91C57.13,88.4,78.14,95.94,101.35,100.33Z"/><path class="cls-3" d="M148.61,120.17A65.88,65.88,0,0,1,136.29,128a165.69,165.69,0,0,1-55.88-3.36c-5.61-1.32-10.91-2.88-15.89-4.59h0a67.58,67.58,0,0,1-9.92-9.8,164.47,164.47,0,0,0,25.82,8.37A167.28,167.28,0,0,0,148.61,120.17Z"/><path class="cls-2" d="M136.29,128A67.44,67.44,0,0,1,64.52,120c5,1.71,10.28,3.27,15.89,4.59A165.69,165.69,0,0,0,136.29,128Z"/><path class="cls-2" d="M109.54,84.54l-.48,2.79q-2.86-.47-5.76-1c-25.53-4.83-48-13-64-22.32a65.1,65.1,0,0,1,.85-7.83,104.23,104.23,0,0,0,17,11.12,171,171,0,0,0,48.11,16.5C106.7,84.05,108.12,84.3,109.54,84.54Z"/><path class="cls-1" d="M77.91,6.4c-1.82.86-3.59,1.79-5.31,2.81C33,8.2,3.43,17.45.28,34.12a12.92,12.92,0,0,0-.21,1.52,16.61,16.61,0,0,1,.21-4.52C3.57,13.71,35.66,4.4,77.91,6.4Z"/><path class="cls-2" d="M163,30.36c-.52-.81-1.07-1.6-1.63-2.38l-1.94-2.35-3.48-4.24a67.49,67.49,0,0,0-78-15c-1.82.86-3.59,1.79-5.31,2.81-.87.5-1.72,1-2.56,1.58-1,.65-2,1.34-3,2l-.57.41c1.55.87,3.17,1.73,4.85,2.6a165,165,0,0,0,37.83,14,165.62,165.62,0,0,0,52,3.74c1.23-.1,2.44-.22,3.63-.35C164.18,32.25,163.59,31.3,163,30.36Z"/><path class="cls-4" d="M159.41,25.61,161.35,28c28.6,11.64,46.56,27.23,44,40.76C203.41,78.92,190.19,86,170.56,89c-16.82,2.59-38.34,2.22-61.5-1.63q-2.86-.47-5.76-1c-25.53-4.83-48-13-64-22.32C22.4,54.08,12.8,42.79,14.72,32.66,17.26,19.21,39.44,11.28,70,10.79c.84-.55,1.69-1.08,2.56-1.58C33,8.2,3.43,17.45.28,34.12a12.92,12.92,0,0,0-.21,1.52C1.2,48.49,16.31,63.69,39.83,76.24c16.87,9,38.07,16.66,61.52,21.09s45.66,5,64.31,2.72c29.14-3.56,49.53-14.1,52.12-27.79a14.64,14.64,0,0,0,.21-1.48v0C216.53,55.16,193.41,37.93,159.41,25.61Z"/><path class="cls-3" d="M61.71,17.15q2.29-2.05,4.77-3.9c1.55.87,3.17,1.73,4.85,2.6"/><path class="cls-1" d="M163,30.34c.63.94,1.22,1.89,1.79,2.86h0c.67,1.14,1.31,2.31,1.91,3.49,11.95,7.35,18.62,15.58,17.21,23-.83,4.37-4.35,8.24-9.92,11.37-6.14,3.46-14.77,6-25,7.25a142.83,142.83,0,0,1-43.09-1.82A146.48,146.48,0,0,1,64.65,62.35C55,57.18,47.4,51.35,42.84,45.62c-3.75-4.72-5.48-9.36-4.69-13.5,1.37-7.27,10.23-12.43,23.56-15q2.29-2.05,4.77-3.9l.57-.41C44.23,14.49,28.26,21.28,26.24,32c-1.38,7.28,3.91,15.92,14,24.16a104.23,104.23,0,0,0,17,11.12,171,171,0,0,0,48.11,16.5c1.42.27,2.84.52,4.26.76a164,164,0,0,0,46,1.36,103.22,103.22,0,0,0,16.8-3.38c13.57-4,22.48-10.53,24-18.35C198.45,53.06,185,40.39,163,30.34Z"/><path class="cls-1" d="M218,70.78a14.64,14.64,0,0,1-.21,1.48c-2.59,13.69-23,24.23-52.12,27.79-18.65,2.29-40.88,1.71-64.31-2.72S56.7,85.25,39.83,76.24C16.31,63.69,1.2,48.49.07,35.64-1.14,49.07,14.46,65.7,39.83,79.24l.51.27c16.79,8.89,37.8,16.43,61,20.82a219.19,219.19,0,0,0,54.76,3.61c3-.59,5.81-1.22,8.37-1.85l-.72,1.18,1.9-.22c29.14-3.56,49.53-14.1,52.12-27.79A16,16,0,0,0,218,70.78Z"/></g></g></svg>