<svg xmlns="http://www.w3.org/2000/svg" xmlns:xlink="http://www.w3.org/1999/xlink" viewBox="0 0 1065 1065"><defs><style>.cls-1{fill:#29011c;}.cls-2{fill:#fff;}.cls-3{fill:#839aa8;}.cls-4{stroke:gray;stroke-miterlimit:10;stroke-width:9px;fill:url(#radial-gradient);}.cls-5{fill:#3f4962;}.cls-6{fill:url(#Brick_4);}.cls-7{fill:url(#Brick_4-2);}.cls-8{fill:url(#Brick_4-3);}.cls-9{fill:url(#Brick_4-4);}</style><radialGradient id="radial-gradient" cx="743.21" cy="445.54" r="164.25" gradientUnits="userSpaceOnUse"><stop offset="0.02" stop-color="#fff"/><stop offset="1" stop-color="#605b5b"/></radialGradient><linearGradient id="Brick_4" x1="120.63" y1="171.46" x2="773.71" y2="171.46" gradientUnits="userSpaceOnUse"><stop offset="0.01" stop-color="#d1d3d4"/><stop offset="0.05" stop-color="#ccced0"/><stop offset="0.34" stop-color="#b1b3b6"/><stop offset="0.51" stop-color="#a7a9ac"/><stop offset="1" stop-color="#58595b"/></linearGradient><linearGradient id="Brick_4-2" x1="0" y1="432.9" x2="528.71" y2="432.9" xlink:href="#Brick_4"/><linearGradient id="Brick_4-3" x1="901.36" y1="697.67" x2="931.71" y2="697.67" xlink:href="#Brick_4"/><linearGradient id="Brick_4-4" x1="470.71" y1="846.57" x2="726.71" y2="846.57" xlink:href="#Brick_4"/></defs><title>sputnik</title><g id="Layer_2" data-name="Layer 2"><g id="Layer_1-2" data-name="Layer 1"><path class="cls-1" d="M1065,532.5A530.62,530.62,0,0,1,921.32,896.33q-7.47,8-15.29,15.68a532.47,532.47,0,0,1-199.85,124q-11.37,3.92-22.95,7.34A532.59,532.59,0,0,1,532.5,1065q-22.86,0-45.24-1.9l-.95-.08h0c-4.89-.41-9.74-.91-14.59-1.45h0l-.93-.11C207.13,1031,2.14,808.05,0,536.75c0-1.41,0-2.83,0-4.25q0-4.83.09-9.63h0A530.1,530.1,0,0,1,120.63,195q8-9.81,16.55-19.22C234.62,67.82,375.64,0,532.5,0,826.59,0,1065,238.41,1065,532.5Z"/><polygon class="cls-2" points="232.8 240.62 227.25 238.83 222.63 242.39 222.62 236.56 217.81 233.26 223.35 231.45 224.99 225.85 228.43 230.56 234.26 230.4 230.84 235.13 232.8 240.62"/><polygon class="cls-2" points="387.17 98.01 381.62 96.22 377 99.78 376.98 93.95 372.17 90.66 377.71 88.84 379.36 83.25 382.8 87.96 388.63 87.79 385.21 92.52 387.17 98.01"/><polygon class="cls-2" points="65.17 551.01 59.62 549.22 55 552.78 54.98 546.95 50.17 543.66 55.71 541.84 57.36 536.25 60.8 540.96 66.63 540.79 63.21 545.52 65.17 551.01"/><polygon class="cls-2" points="732.17 949.01 726.62 947.22 722 950.78 721.98 944.95 717.17 941.66 722.71 939.84 724.36 934.25 727.8 938.96 733.63 938.79 730.21 943.52 732.17 949.01"/><polygon class="cls-2" points="385.17 965.01 379.62 963.22 375 966.78 374.98 960.95 370.17 957.66 375.71 955.84 377.36 950.25 380.8 954.96 386.63 954.79 383.21 959.52 385.17 965.01"/><polygon class="cls-2" points="610.17 980.01 604.62 978.22 600 981.78 599.98 975.95 595.17 972.66 600.71 970.84 602.36 965.25 605.8 969.96 611.63 969.79 608.21 974.52 610.17 980.01"/><polygon class="cls-2" points="426.17 857.01 420.62 855.22 416 858.78 415.98 852.95 411.17 849.66 416.71 847.84 418.36 842.25 421.8 846.96 427.63 846.79 424.21 851.52 426.17 857.01"/><polygon class="cls-2" points="800.17 862.01 794.62 860.22 790 863.78 789.98 857.95 785.17 854.66 790.71 852.84 792.36 847.25 795.8 851.96 801.63 851.79 798.21 856.52 800.17 862.01"/><polygon class="cls-2" points="940.17 371.01 934.62 369.22 930 372.78 929.98 366.95 925.17 363.66 930.71 361.84 932.36 356.25 935.8 360.96 941.63 360.79 938.21 365.52 940.17 371.01"/><polygon class="cls-2" points="820.17 656.01 814.62 654.22 810 657.78 809.98 651.95 805.17 648.66 810.71 646.84 812.36 641.25 815.8 645.96 821.63 645.79 818.21 650.52 820.17 656.01"/><polygon class="cls-2" points="638.17 672.01 632.62 670.22 628 673.78 627.98 667.95 623.17 664.66 628.71 662.84 630.36 657.25 633.8 661.96 639.63 661.79 636.21 666.52 638.17 672.01"/><polygon class="cls-2" points="418.17 763.01 412.62 761.22 408 764.78 407.98 758.95 403.17 755.66 408.71 753.84 410.36 748.25 413.8 752.96 419.63 752.79 416.21 757.52 418.17 763.01"/><polygon class="cls-2" points="385.17 272.01 379.62 270.22 375 273.78 374.98 267.95 370.17 264.66 375.71 262.84 377.36 257.25 380.8 261.96 386.63 261.79 383.21 266.52 385.17 272.01"/><polygon class="cls-2" points="129.17 666.01 123.62 664.22 119 667.78 118.98 661.95 114.17 658.66 119.71 656.84 121.36 651.25 124.8 655.96 130.63 655.79 127.21 660.52 129.17 666.01"/><polygon class="cls-2" points="654.17 416.01 648.62 414.22 644 417.78 643.98 411.95 639.17 408.66 644.71 406.84 646.36 401.25 649.8 405.96 655.63 405.79 652.21 410.52 654.17 416.01"/><polygon class="cls-2" points="550.17 784.01 544.62 782.22 540 785.78 539.98 779.95 535.17 776.66 540.71 774.84 542.36 769.25 545.8 773.96 551.63 773.79 548.21 778.52 550.17 784.01"/><polygon class="cls-2" points="562.17 98.01 556.62 96.22 552 99.78 551.98 93.95 547.17 90.66 552.71 88.84 554.36 83.25 557.8 87.96 563.63 87.79 560.21 92.52 562.17 98.01"/><polygon class="cls-2" points="273.17 810.01 267.62 808.22 263 811.78 262.98 805.95 258.17 802.66 263.71 800.84 265.36 795.25 268.8 799.96 274.63 799.79 271.21 804.52 273.17 810.01"/><polygon class="cls-2" points="173.17 408.01 167.62 406.22 163 409.78 162.98 403.95 158.17 400.66 163.71 398.84 165.36 393.25 168.8 397.96 174.63 397.79 171.21 402.52 173.17 408.01"/><polygon class="cls-2" points="595.17 272.01 589.62 270.22 585 273.78 584.98 267.95 580.17 264.66 585.71 262.84 587.36 257.25 590.8 261.96 596.63 261.79 593.21 266.52 595.17 272.01"/><polygon class="cls-2" points="570.6 433.99 565.05 432.2 560.43 435.76 560.41 429.93 555.6 426.63 561.14 424.82 562.79 419.23 566.23 423.93 572.05 423.77 568.64 428.5 570.6 433.99"/><polygon class="cls-2" points="570.6 433.99 565.05 432.2 560.43 435.76 560.41 429.93 555.6 426.63 561.14 424.82 562.79 419.23 566.23 423.93 572.05 423.77 568.64 428.5 570.6 433.99"/><polygon class="cls-2" points="570.6 433.99 565.05 432.2 560.43 435.76 560.41 429.93 555.6 426.63 561.14 424.82 562.79 419.23 566.23 423.93 572.05 423.77 568.64 428.5 570.6 433.99"/><polygon class="cls-2" points="570.6 433.99 565.05 432.2 560.43 435.76 560.41 429.93 555.6 426.63 561.14 424.82 562.79 419.23 566.23 423.93 572.05 423.77 568.64 428.5 570.6 433.99"/><polygon class="cls-2" points="777.17 203.99 771.62 202.2 767 205.76 766.98 199.93 762.17 196.63 767.71 194.82 769.36 189.22 772.8 193.93 778.63 193.77 775.21 198.5 777.17 203.99"/><polygon class="cls-2" points="273.17 567.99 267.62 566.2 263 569.76 262.98 563.93 258.17 560.63 263.71 558.82 265.36 553.23 268.8 557.93 274.63 557.77 271.21 562.5 273.17 567.99"/><polygon class="cls-2" points="1001.17 473.9 995.62 472.11 991 475.67 990.98 469.84 986.17 466.55 991.71 464.73 993.36 459.13 996.8 463.84 1002.63 463.68 999.21 468.4 1001.17 473.9"/><polygon class="cls-2" points="753.17 318.9 747.62 317.11 743 320.67 742.98 314.84 738.17 311.55 743.71 309.73 745.36 304.13 748.8 308.84 754.63 308.68 751.21 313.4 753.17 318.9"/><polygon class="cls-2" points="426.17 601.9 420.62 600.11 416 603.67 415.98 597.84 411.17 594.54 416.71 592.73 418.36 587.13 421.8 591.84 427.63 591.68 424.21 596.4 426.17 601.9"/><polygon class="cls-2" points="946.74 267.49 941.19 265.7 936.57 269.26 936.56 263.43 931.75 260.13 937.29 258.32 938.93 252.72 942.37 257.43 948.2 257.27 944.78 261.99 946.74 267.49"/><ellipse class="cls-3" cx="733.71" cy="381.04" rx="211" ry="221"/><ellipse class="cls-4" cx="743.21" cy="445.54" rx="173" ry="155"/><path class="cls-5" d="M638.71,184.56c12.53-1.94,31.68-3,52.53,4.32,17.61,6.17,35.71,18.05,65.14,57.22a505.76,505.76,0,0,1,62,108c9.19,22.13,37.34,89.91,35.72,137.14a410.89,410.89,0,0,0,2.1,62.62c.75,6.83,1.54,12.44,2.1,16.2l28.37-23.76,1.05-63.7A441.72,441.72,0,0,0,873,400.51c-2.54-9.1-14.09-49.36-42-100.42-28.15-51.42-47.18-86.21-87.21-111.21A179.6,179.6,0,0,0,676.53,164Z"/><path class="cls-6" d="M773.71,161s-.19,1-.57,2.85c-.29,1.43-.68,3.4-1.17,5.87-.61,3-1.36,6.79-2.26,11.28l-76-15-4.63.37-8.4.67L669,168q-24.15,2-48.3,4-28.5,2.43-57,5c-26.44-.58-68.39-1.11-120,0-48.19,1-73.22,2.82-208,11-59.38,3.6-91.81,5.52-115.08,6.93q8-9.81,16.55-19.22c28.44-2.16,60.46-4.44,96.53-6.71,0,0,122.57-7.72,254-12,29.67-1,59.33-2.15,89-3,47.44-1.36,56.94-1.24,81-3,28.93-2.12,31.17-3.46,46-3a233.81,233.81,0,0,1,57.08,8.86c5.29,1.51,9.61,3,12.83,4.11Z"/><path class="cls-5" d="M550.71,319c.12.59,2.13,11.56-6,19-6.56,6-14.76,5.15-16,5q-3.5-7-7-14Z"/><path class="cls-7" d="M528.71,343l-3,.86c-38.24,10.91-72.14,21.5-101,31L416,377.77c-18,6-33.8,11.48-47.28,16.27-26.92,9.56-80.28,30.37-187,72-28.38,11.07-61,23.83-118,46C37.45,522.25,15.49,530.76,0,536.75c0-1.41,0-2.83,0-4.25q0-4.83.09-9.63h0c14.1-5.34,32.79-12.45,54.62-20.82,57.86-22.19,85.54-33.22,121-47,32.5-12.63,101.78-39.51,189-71,6.32-2.28,25.61-9.24,53.44-19.07l.59-.21c19.14-6.75,42.26-14.85,68-23.72,14.3-4.93,26.31-9,35-12l4.86,9.73C527.29,340.19,528,341.62,528.71,343Z"/><path class="cls-8" d="M931.71,490.94c-1.09,2.61-2.34,5.75-3.63,9.38-.86,2.38-1.74,5-2.61,7.74-1.14,3.67-2.28,7.71-3.34,12a203.52,203.52,0,0,0-4.71,67.31c3.48,41.68,0,83.7,1.36,125.5q.15,4.74.4,9.47c0,.07,0,.13,0,.2.9,17.12,1.4,71,2.13,173.76q-7.47,8-15.29,15.68c.06-52.91-.58-93.83-1.44-125.63-.51-19.1-2.42-84.45-3-173.5-.08-12.42-.13-24.15-.16-35.08,0-.76,0-1.52,0-2.27v-.39c0-18.27,0-34.23,0-47.3,0-3.83,0-7.42,0-10.74l.84-3.14c.3-1.1.59-2.21.89-3.32.59-2.2,1.17-4.4,1.76-6.6l2.79-10.43q1.38-5.14,2.75-10.29l.5.18,2.07.74,6.15,2.21,6.22,2.23C927.51,489.45,929.61,490.19,931.71,490.94Z"/><path class="cls-9" d="M726.71,636.49l-3.57,5.1c-2.18,3.12-4.77,6.85-7.64,11-59.07,86.17-92.78,153.69-119.91,206.49q-17.82,34.68-43.82,83.7l-1.29,2.43L549,948.09l-1.9,3.55q-26.2,49.05-60.8,111.46c-5.21-.43-10.39-.95-15.55-1.53l233-422.4,5-9.13Z"/><path class="cls-5" d="M824.71,196a75.82,75.82,0,0,0-6-10,79.09,79.09,0,0,0-21-20c-6-3.93-12.91-8.48-23-10-8.07-1.21-16.56-.25-17,2-.47,2.45,9.13,3.86,12,11,2,4.87-.07,10.29-2,14Z"/><path class="cls-5" d="M935.1,494.06a152.45,152.45,0,0,1-1.86-26.86c.38-20.22,4.6-30.36-1-36-2.72-2.75-8.41-5.15-22-1.61q1.86,16.45,3.7,32.92a52.34,52.34,0,0,0-7.38,13.8c-2.41,6.82-7,24.48,0,29.41C912.08,509.55,924.42,505.31,935.1,494.06Z"/><path class="cls-5" d="M727.71,642a114.73,114.73,0,0,1,9-18c3.55-5.77,6.3-10.24,11-15,9.91-10,16.3-9,20-17,2-4.4,3.09-11.21,0-15-4.41-5.4-17.34-4.75-31,4q-10.53,17.33-21,36-6.21,11.12-12,22Z"/></g></g></svg>