<svg xmlns="http://www.w3.org/2000/svg" xmlns:xlink="http://www.w3.org/1999/xlink" viewBox="0 0 950 954.4">
<defs>
<style>.cls-1{opacity:0.5;}.cls-2{fill:url(#linear-gradient);}.cls-3{fill:url(#linear-gradient-2);}.cls-4{fill:url(#linear-gradient-3);}.cls-5{fill:url(#linear-gradient-4);}.cls-6{fill:url(#linear-gradient-5);}.cls-7{fill:url(#linear-gradient-6);}.cls-8{fill:url(#linear-gradient-7);}.cls-9{fill:url(#linear-gradient-8);}.cls-10{fill:url(#linear-gradient-9);}.cls-11{fill:url(#linear-gradient-10);}.cls-12{fill:url(#linear-gradient-11);}.cls-13{fill:url(#linear-gradient-12);}.cls-14{fill:url(#linear-gradient-13);}.cls-15{fill:url(#linear-gradient-14);}.cls-16{fill:url(#linear-gradient-15);}.cls-17{fill:url(#linear-gradient-16);}.cls-18{fill:url(#linear-gradient-17);}.cls-19{fill:url(#linear-gradient-18);}.cls-20{fill:url(#linear-gradient-19);}.cls-21{fill:url(#linear-gradient-20);}.cls-22{fill:url(#linear-gradient-21);}.cls-23{opacity:0.6;}.cls-24{fill:url(#linear-gradient-22);}.cls-25{fill:url(#linear-gradient-23);}.cls-26{fill:url(#linear-gradient-24);}.cls-27{fill:url(#linear-gradient-25);}.cls-28{fill:url(#linear-gradient-26);}.cls-29{fill:url(#linear-gradient-27);}.cls-30{fill:url(#linear-gradient-28);}.cls-31{fill:url(#linear-gradient-29);}.cls-32{fill:url(#linear-gradient-30);}.cls-33{fill:url(#linear-gradient-31);}.cls-34{fill:url(#linear-gradient-32);}.cls-35{fill:url(#linear-gradient-33);}.cls-36{fill:url(#linear-gradient-34);}.cls-37{fill:url(#linear-gradient-35);}.cls-38{fill:url(#linear-gradient-36);}.cls-39{fill:url(#linear-gradient-37);}.cls-40{fill:url(#linear-gradient-38);}.cls-41{fill:url(#linear-gradient-39);}.cls-42{fill:url(#linear-gradient-40);}.cls-43{fill:url(#linear-gradient-41);}.cls-44{fill:url(#linear-gradient-42);}.cls-45{fill:url(#radial-gradient);}</style>
<linearGradient id="linear-gradient" x1="434.52" y1="111.52" x2="505.3" y2="111.52" gradientUnits="userSpaceOnUse">
<stop offset="0" stop-color="#ffffbf"/>
<stop offset="0" stop-color="#fcf3dd"/>
<stop offset="0.47" stop-color="#f4d773"/>
<stop offset="0.73" stop-color="#f0c83b"/>
<stop offset="0.8" stop-color="#f0c731"/>
<stop offset="1" stop-color="#efc41a"/>
</linearGradient>
<linearGradient id="linear-gradient-2" x1="335.65" y1="136.32" x2="416.62" y2="136.32" xlink:href="#linear-gradient"/>
<linearGradient id="linear-gradient-3" x1="171.36" y1="730.35" x2="304.97" y2="730.35" xlink:href="#linear-gradient"/>
<linearGradient id="linear-gradient-4" x1="698.74" y1="677.09" x2="854.46" y2="677.09" xlink:href="#linear-gradient"/>
<linearGradient id="linear-gradient-5" x1="106.01" y1="659.53" x2="252.91" y2="659.53" xlink:href="#linear-gradient"/>
<linearGradient id="linear-gradient-6" x1="39.81" y1="564.59" x2="210.13" y2="564.59" xlink:href="#linear-gradient"/>
<linearGradient id="linear-gradient-7" x1="21.07" y1="473.97" x2="191.08" y2="473.97" xlink:href="#linear-gradient"/>
<linearGradient id="linear-gradient-8" x1="737.32" y1="569.07" x2="908.7" y2="569.07" xlink:href="#linear-gradient"/>
<linearGradient id="linear-gradient-9" x1="758.21" y1="465.19" x2="928.98" y2="465.19" xlink:href="#linear-gradient"/><linearGradient id="linear-gradient-10" x1="39.22" y1="378.93" x2="211.07" y2="378.93" xlink:href="#linear-gradient"/><linearGradient id="linear-gradient-11" x1="730.15" y1="364.22" x2="899.58" y2="364.22" xlink:href="#linear-gradient"/><linearGradient id="linear-gradient-12" x1="675.41" y1="256.5" x2="822.66" y2="256.5" xlink:href="#linear-gradient"/><linearGradient id="linear-gradient-13" x1="606.25" y1="177.64" x2="714.26" y2="177.64" xlink:href="#linear-gradient"/><linearGradient id="linear-gradient-14" x1="527.56" y1="127.33" x2="609.17" y2="127.33" xlink:href="#linear-gradient"/><linearGradient id="linear-gradient-15" x1="113.91" y1="273.57" x2="268.14" y2="273.57" xlink:href="#linear-gradient"/><linearGradient id="linear-gradient-16" x1="226.73" y1="186.19" x2="343.07" y2="186.19" xlink:href="#linear-gradient"/><linearGradient id="linear-gradient-17" x1="619.6" y1="766.34" x2="742.12" y2="766.34" xlink:href="#linear-gradient"/><linearGradient id="linear-gradient-18" x1="456.59" y1="843.66" x2="525.3" y2="843.66" xlink:href="#linear-gradient"/><linearGradient id="linear-gradient-19" x1="354.01" y1="834.05" x2="440.93" y2="834.05" xlink:href="#linear-gradient"/><linearGradient id="linear-gradient-20" x1="536.98" y1="824.12" x2="608.38" y2="824.12" xlink:href="#linear-gradient"/><linearGradient id="linear-gradient-21" x1="266.39" y1="793.73" x2="372.18" y2="793.73" xlink:href="#linear-gradient"/><linearGradient id="linear-gradient-22" x1="433.68" y1="87.72" x2="508.59" y2="87.72" gradientTransform="translate(-65.84 75.39) rotate(-8.57)" gradientUnits="userSpaceOnUse"><stop offset="0" stop-color="#fcf3dd"/><stop offset="0" stop-color="#fcf2d3"/><stop offset="0" stop-color="#fee648"/><stop offset="0" stop-color="#ffe110"/><stop offset="0.55" stop-color="#ffcd03"/><stop offset="0.67" stop-color="#f7c50d"/><stop offset="1" stop-color="#e2b124"/></linearGradient><linearGradient id="linear-gradient-23" x1="328.6" y1="109.23" x2="403.45" y2="109.23" gradientTransform="translate(-71.43 183.45) rotate(-24.79)" xlink:href="#linear-gradient-22"/><linearGradient id="linear-gradient-24" x1="249.92" y1="648.37" x2="324.84" y2="648.37" gradientTransform="matrix(-0.83, -0.56, 0.56, -0.83, 128.47, 1484.21)" xlink:href="#linear-gradient-22"/><linearGradient id="linear-gradient-25" x1="553.36" y1="603.64" x2="628.04" y2="603.64" gradientTransform="translate(1646 421.34) rotate(118.68)" xlink:href="#linear-gradient-22"/><linearGradient id="linear-gradient-26" x1="192.76" y1="604" x2="267.65" y2="604" gradientTransform="translate(-48.11 1325.23) rotate(-137.95)" xlink:href="#linear-gradient-22"/><linearGradient id="linear-gradient-27" x1="132.78" y1="512.11" x2="207.56" y2="512.11" gradientTransform="translate(-277.88 997.04) rotate(-114.03)" xlink:href="#linear-gradient-22"/><linearGradient id="linear-gradient-28" x1="124.59" y1="437.33" x2="199.29" y2="437.33" gradientTransform="translate(-325.38 740.56) rotate(-96.83)" xlink:href="#linear-gradient-22"/><linearGradient id="linear-gradient-29" x1="619.97" y1="526.26" x2="694.64" y2="526.26" gradientTransform="translate(1491.8 -30.72) rotate(99.91)" xlink:href="#linear-gradient-22"/><linearGradient id="linear-gradient-30" x1="694.62" y1="412.03" x2="769.33" y2="412.03" gradientTransform="translate(1131.48 -392.85) rotate(79.42)" xlink:href="#linear-gradient-22"/><linearGradient id="linear-gradient-31" x1="152.74" y1="362.07" x2="227.4" y2="362.07" gradientTransform="translate(-296.08 551.69) rotate(-81.57)" xlink:href="#linear-gradient-22"/><linearGradient id="linear-gradient-32" x1="711.46" y1="332" x2="786.24" y2="332" gradientTransform="translate(787.04 -528.28) rotate(63.91)" xlink:href="#linear-gradient-22"/><linearGradient id="linear-gradient-33" x1="703.28" y1="228.68" x2="778.16" y2="228.68" gradientTransform="translate(344.31 -478.35) rotate(42.27)" xlink:href="#linear-gradient-22"/><linearGradient id="linear-gradient-34" x1="637.2" y1="143.21" x2="712.14" y2="143.21" gradientTransform="translate(65.56 -262.08) rotate(21.98)" xlink:href="#linear-gradient-22"/><linearGradient id="linear-gradient-35" x1="541.25" y1="98.59" x2="616.2" y2="98.59" gradientTransform="translate(-46.1 -43.8) rotate(3.5)" xlink:href="#linear-gradient-22"/><linearGradient id="linear-gradient-36" x1="165.01" y1="253.7" x2="239.7" y2="253.7" gradientTransform="translate(-183.23 341.67) rotate(-60.2)" xlink:href="#linear-gradient-22"/><linearGradient id="linear-gradient-37" x1="233.54" y1="149.35" x2="308.31" y2="149.35" gradientTransform="matrix(0.77, -0.63, 0.63, 0.77, -84.64, 246.86)" xlink:href="#linear-gradient-22"/><linearGradient id="linear-gradient-38" x1="534.01" y1="626.15" x2="608.76" y2="626.15" gradientTransform="translate(1592.72 835.64) rotate(137.93)" xlink:href="#linear-gradient-22"/><linearGradient id="linear-gradient-39" x1="404.6" y1="686.17" x2="479.5" y2="686.17" gradientTransform="translate(1131.5 1433.06) rotate(167.72)" xlink:href="#linear-gradient-22"/><linearGradient id="linear-gradient-40" x1="374.68" y1="665.47" x2="449.64" y2="665.47" gradientTransform="translate(760.47 1579.98) rotate(-172.19)" xlink:href="#linear-gradient-22"/><linearGradient id="linear-gradient-41" x1="455.85" y1="695.27" x2="530.71" y2="695.27" gradientTransform="translate(1353.35 1299.29) rotate(159.18)" xlink:href="#linear-gradient-22"/><linearGradient id="linear-gradient-42" x1="299.64" y1="659.18" x2="374.59" y2="659.18" gradientTransform="matrix(-0.93, -0.36, 0.36, -0.93, 427.18, 1574.46)" xlink:href="#linear-gradient-22"/><radialGradient id="radial-gradient" cx="464.92" cy="459.4" r="285" gradientTransform="translate(-23.75 -23.78) scale(1.08 1.08)" gradientUnits="userSpaceOnUse"><stop offset="0" stop-color="#fcf3dd"/><stop offset="0" stop-color="#fdedc1"/><stop offset="0" stop-color="#ffe18a"/><stop offset="0.55" stop-color="#ffcd03"/><stop offset="0.74" stop-color="#f1b812"/><stop offset="1" stop-color="#e2a124"/></radialGradient></defs><title>Asset 1</title><g id="Layer_2" data-name="Layer 2"><g id="Layer_1-2" data-name="Layer 1"><g class="cls-1"><path class="cls-2" d="M499,195.18c-.09-2.79-.16-6.94,0-12,.58-18,3.58-29.18,5-37.84a121.24,121.24,0,0,0-2-45.81c-1.78-7.07-2.69-7.34-24-48.79-7.72-15-12.48-24.47-14-23.9-2,.76,7.12,17.53,5,39.83-1.05,11.06-5.37,20.65-14,39.83-10.45,23.21-13.59,24.36-17,34.86-3.82,11.76-6.12,29.53,2,54.77Z"/><path class="cls-3" d="M416.62,203.61c-.87-2.66-2.1-6.62-3.35-11.47-4.49-17.41-4.75-29-5.82-37.73A121.45,121.45,0,0,0,392.68,111C389,104.68,388,104.68,356,70.8c-11.62-12.27-18.84-20-20.14-19-1.75,1.3,11.75,14.85,16,36.86,2.09,10.91.64,21.32-2.27,42.14-3.52,25.19-6.22,27.16-6.55,38.19-.37,12.36,2.41,30.06,17.28,52Z"/><path class="cls-4" d="M261,656.79c-1.85,2.12-4.63,5.2-8.17,8.76-12.69,12.78-22.55,19-29.51,24.36-2.09,1.62-18.64,14.66-29.82,34.94-3.52,6.39-3,7.2-15.73,52-4.6,16.24-7.56,26.39-6.06,27,2,.82,6.75-17.68,23.54-32.59,8.33-7.4,18-11.51,37.47-19.72,23.51-9.94,26.59-8.65,36.27-14,10.83-6,24.65-17.5,35.94-41.51Q283,676.42,261,656.79Z"/><path class="cls-5" d="M698.74,663.44c2.29,1.62,5.65,4.07,9.55,7.23,14,11.34,21.16,20.5,27.22,26.87a122.35,122.35,0,0,0,37.83,26.15c6.73,2.87,7.5,2.31,53.53,10.51,16.68,3,27.11,4.92,27.58,3.37.63-2.08-18.33-5-34.87-20.15-8.2-7.53-13.26-16.76-23.36-35.21C784,659.88,785,656.7,778.65,647.64c-7.09-10.15-19.9-22.72-45-31.57Z"/><path class="cls-6" d="M214.71,592.65c-2.12,1.84-5.29,4.53-9.28,7.58-14.31,10.95-24.92,15.76-32.55,20.16-2.28,1.32-20.45,12-34.28,30.6-4.37,5.86-4,6.73-22.65,49.43-6.76,15.48-11.08,25.13-9.67,25.94,1.88,1.09,9.09-16.6,27.74-29.12,9.26-6.2,19.44-9,39.81-14.49,24.64-6.69,27.52-5,37.83-9,11.56-4.52,26.81-14,41.25-36.29Z"/><path class="cls-7" d="M193.44,525.29c-2.68.83-6.68,2-11.57,3.18-17.54,4.23-29.19,4.35-38,5.29a122.71,122.71,0,0,0-43.81,14.13c-6.37,3.6-6.39,4.54-40.83,36-12.48,11.42-20.35,18.5-19.4,19.81C41.16,605.5,55,592.23,77.1,588.32c11-1.93,21.42-.35,42.29,2.82,25.25,3.84,27.19,6.55,38.26,7,12.41.53,30.21-2,52.48-16.52Q201.79,553.47,193.44,525.29Z"/><path class="cls-8" d="M191.08,446.53c-2.81,0-7,0-12-.36-18-1.13-29.18-4.45-37.84-6.13a122.57,122.57,0,0,0-46,.59c-7.16,1.56-7.46,2.46-49.71,22.41-15.31,7.23-24.94,11.67-24.42,13.2.7,2.06,17.82-6.55,40.14-3.76,11.06,1.38,20.56,6,39.55,15.15,23,11.1,24,14.27,34.47,18,11.69,4.16,29.45,7,55-.32Q190.69,475.91,191.08,446.53Z"/><path class="cls-9" d="M737.32,580.45c2.69.8,6.66,2,11.38,3.78,16.93,6.25,26.66,12.63,34.46,16.72a122.48,122.48,0,0,0,44.26,12.63c7.3.56,7.85-.21,54.08-7.2,16.75-2.53,27.26-4,27.2-5.65-.08-2.17-19,1.17-39.52-7.9-10.2-4.5-18-11.61-33.5-25.85-18.8-17.22-18.89-20.55-27.81-27.1-10-7.34-26.18-15.14-52.8-15.47Q746.21,552.43,737.32,580.45Z"/><path class="cls-10" d="M761.28,495.85c2.8-.19,7-.4,12-.42,18.05-.05,29.41,2.54,38.15,3.66,2.63.33,23.59,2.81,45.9-3.6,7-2,7.28-2.93,48.13-25.59,14.81-8.21,24.12-13.27,23.5-14.77-.84-2-17.35,7.7-39.8,6.37-11.14-.66-20.91-4.62-40.47-12.54-23.66-9.58-24.91-12.67-35.57-15.7-11.94-3.39-29.85-5.05-54.9,3.91Q759.76,466.51,761.28,495.85Z"/><path class="cls-11" d="M211.07,366.13c-2.71-.73-6.72-1.88-11.48-3.49-17.08-5.81-27-11.94-34.88-15.83a122.56,122.56,0,0,0-44.57-11.49c-7.32-.37-7.84.42-53.88,8.59-16.68,3-27.14,4.73-27,6.35.13,2.17,18.92-1.66,39.71,6.88,10.32,4.24,18.26,11.15,34.16,25,19.24,16.73,19.42,20.06,28.5,26.38,10.18,7.08,26.57,14.46,53.18,14.11Q202.91,394.36,211.07,366.13Z"/><path class="cls-12" d="M748.86,406.24c2.65-.93,6.59-2.24,11.44-3.6,17.38-4.85,29-5.38,37.74-6.64a122.42,122.42,0,0,0,43.27-15.68c6.24-3.82,6.22-4.77,39.51-37.48,12.06-11.85,19.67-19.21,18.67-20.48-1.34-1.72-14.65,12-36.64,16.73-10.91,2.33-21.39,1.12-42.36-1.31-25.37-2.93-27.41-5.57-38.49-5.65-12.42-.09-30.12,3.07-51.85,18.38Q739.5,378.38,748.86,406.24Z"/><path class="cls-13" d="M713.44,323.17c2.12-1.84,5.3-4.51,9.31-7.55,14.35-10.89,25-15.66,32.62-20a122.29,122.29,0,0,0,34.41-30.47c4.38-5.84,4-6.71,22.84-49.34,6.82-15.45,11.18-25.08,9.77-25.9-1.88-1.1-9.15,16.57-27.86,29-9.28,6.17-19.47,8.89-39.86,14.34-24.67,6.59-27.54,4.88-37.87,8.88-11.57,4.47-26.86,13.92-41.39,36.13Q694.43,300.69,713.44,323.17Z"/><path class="cls-14" d="M657.57,259c1.35-2.45,3.4-6.06,6.1-10.29,9.67-15.18,18-23.32,23.62-30.06,1.69-2,15.07-18.28,21.66-40.46,2.08-7,1.43-7.69,4.24-54.17,1-16.84,1.74-27.39.14-27.67-2.15-.38-2.82,18.7-16,36.84-6.55,9-15.16,15.06-32.39,27.21-20.84,14.71-24.13,14.1-32.43,21.41-9.29,8.2-20.34,22.34-26.23,48.18Z"/><path class="cls-15" d="M586.1,213.26c.5-2.75,1.3-6.82,2.51-11.68,4.34-17.45,9.62-27.79,12.84-36a121.49,121.49,0,0,0,7.66-45.21c-.26-7.29-1.09-7.74-13.23-52.71-4.4-16.3-7.06-26.53-8.67-26.29-2.16.32,3.28,18.63-3.47,40-3.36,10.6-9.59,19.08-22.06,36-15.09,20.53-18.4,21-23.94,30.55-6.21,10.7-12.18,27.6-9.54,54Z"/><path class="cls-16" d="M268.14,289.06c-2.26-1.67-5.56-4.18-9.41-7.42C245,270,238,260.74,232.05,254.25a122.28,122.28,0,0,0-37.31-26.88c-6.67-3-7.45-2.46-53.31-11.56-16.62-3.29-27-5.45-27.51-3.91-.66,2.07,18.23,5.33,34.47,20.83,8.05,7.69,12.92,17,22.66,35.66,11.79,22.56,10.74,25.73,16.89,34.91,6.88,10.28,19.45,23.1,44.36,32.44Z"/><path class="cls-17" d="M343.07,234.39c-1.51-2.36-3.69-5.89-6.12-10.28-8.69-15.75-11.85-26.92-15.06-35.1a122,122,0,0,0-25.17-38.39c-5.16-5.19-6.08-5-45.63-29.8-14.33-9-23.26-14.71-24.28-13.45-1.37,1.69,15.1,11.46,24.69,31.73,4.76,10.05,6,20.49,8.35,41.37,2.9,25.27.78,27.85,3.22,38.62,2.73,12.06,9.85,28.51,29.75,46.1Z"/><path class="cls-18" d="M619.6,722.31c1.62,2.29,4,5.7,6.62,10,9.47,15.3,13.19,26.3,16.8,34.3a121.83,121.83,0,0,0,27.06,37.11c5.4,4.92,6.31,4.64,47,27.5,14.77,8.28,24,13.54,24.92,12.23,1.28-1.75-15.65-10.7-26.24-30.47-5.25-9.8-7-20.17-10.4-40.91-4.15-25.09-2.17-27.77-5.14-38.41-3.33-11.9-11.26-28-32-44.57Z"/><path class="cls-19" d="M458.76,763.19c.28,2.79.62,6.92.78,11.93.59,18-1.68,29.34-2.53,38.08a121.29,121.29,0,0,0,5,45.59c2.24,6.94,3.16,7.15,27.12,47.14,8.68,14.5,14,23.62,15.52,23,2-.89-8.24-17-7.57-39.42.33-11.11,4-21,11.38-40.66,8.92-23.83,12-25.17,14.71-35.87,3-12,4.19-29.86-5.55-54.53Z"/><path class="cls-20" d="M384,748.41c-.7,2.7-1.81,6.7-3.38,11.46-5.65,17.07-11.7,27-15.51,34.9a121.46,121.46,0,0,0-11.06,44.51c-.29,7.29.51,7.81,9.21,53.56,3.16,16.58,5.05,27,6.67,26.86,2.17-.16-1.87-18.82,6.48-39.62,4.14-10.32,11-18.31,24.71-34.29,16.59-19.33,19.93-19.55,26.18-28.66,7-10.21,14.23-26.62,13.59-53.11Z"/><path class="cls-21" d="M537,752.26c.68,2.72,1.63,6.75,2.54,11.68,3.26,17.68,2.72,29.27,3.17,38a121.43,121.43,0,0,0,11.71,44.34c3.25,6.54,4.2,6.61,33.85,42.62,10.75,13,17.4,21.27,18.77,20.4,1.84-1.18-10.69-15.63-13.37-37.87-1.33-11,.85-21.32,5.2-41.89,5.26-24.89,8.09-26.67,9.19-37.65,1.23-12.3-.31-30.15-13.62-53.1Z"/><path class="cls-22" d="M320.37,711.94c-1.31,2.47-3.3,6.11-5.92,10.39-9.4,15.34-17.57,23.62-23.1,30.46a121.66,121.66,0,0,0-21,40.83c-2,7-1.3,7.71-3.31,54.23-.72,16.86-1.27,27.41.34,27.67,2.15.34,2.49-18.75,15.39-37.11,6.39-9.1,14.9-15.32,31.91-27.76,20.59-15.06,23.88-14.51,32.06-22,9.15-8.35,19.95-22.67,25.39-48.62Z"/></g><g class="cls-23"><path class="cls-24" d="M456.8,175c-.54-2.92-1.27-7.25-1.89-12.52-2.24-18.91-.88-31.13-.76-40.44,0-2.79.11-25.06-9.36-47.68-3-7.13-4-7.27-32.86-47.35C401.47,12.5,395,3.35,393.49,4.19c-2,1.12,10.23,17.24,11.55,40.94.65,11.76-2.35,22.48-8.35,43.94-7.26,26-10.37,27.65-12.27,39.19-2.14,12.92-1.73,31.9,10.77,57.07Z"/><path class="cls-25" d="M371.89,196.79c-1.34-2.65-3.25-6.6-5.33-11.49-7.45-17.54-9.57-29.65-12.06-38.61-.75-2.69-6.92-24.1-22.35-43.18-4.87-6-5.86-5.88-44.82-36.32-14.12-11-22.9-18-24.11-16.8C261.6,52,277.88,64.11,285.78,86.5c3.92,11.1,4.05,22.24,4.3,44.51.31,26.94-2.2,29.43-.8,41,1.57,13,7.28,31.11,26.34,51.8Z"/><path class="cls-26" d="M280.81,696.06c-1.59,2.51-4,6.18-7.16,10.47-11.26,15.38-20.6,23.42-27,30.15-1.93,2-17.19,18.3-25.69,41.3-2.67,7.25-2,8-8.22,57-2.24,17.74-3.74,28.84-2.07,29.24,2.24.55,4.27-19.58,19.48-37.84,7.55-9.06,17.07-14.89,36.11-26.55,23-14.12,26.47-13.25,35.74-20.41,10.39-8,23-22.22,31-49.14Z"/><path class="cls-27" d="M740.11,634.2c2.66,1.34,6.56,3.38,11.15,6.07,16.46,9.68,25.4,18.15,32.76,23.88,2.2,1.71,19.94,15.26,43.74,21.44,7.51,1.95,8.22,1.24,57.71,2.59,17.94.49,29.16.89,29.41-.8.33-2.28-20-2.33-39.7-15.63-9.78-6.6-16.53-15.47-30-33.21-16.34-21.48-15.81-25-23.87-33.46-9-9.52-24.44-20.68-52.11-26Z"/><path class="cls-28" d="M222.14,636.15c-1.92,2.26-4.81,5.57-8.51,9.4C200.38,659.27,190,666,182.75,671.79c-2.18,1.74-19.51,15.81-31,37.45-3.64,6.83-3.12,7.68-15.88,55.35-4.63,17.28-7.62,28.07-6,28.7,2.15.84,6.89-18.83,24.44-34.87,8.7-8,18.92-12.46,39.37-21.45,24.74-10.88,28-9.56,38.19-15.41,11.38-6.55,25.83-18.9,37.43-44.5Z"/><path class="cls-29" d="M189.2,568.91c-2.67,1.3-6.67,3.15-11.6,5.16-17.69,7.19-29.88,9.14-38.9,11.51-2.71.71-24.27,6.57-43.62,21.69-6.1,4.77-6,5.76-37,44.18C46.79,665.38,39.66,674,40.87,675.26c1.62,1.64,14-14.43,36.53-22,11.19-3.76,22.36-3.74,44.71-3.69,27.05.05,29.51,2.58,41.18,1.34,13.07-1.39,31.31-6.85,52.32-25.56Q202.41,597.13,189.2,568.91Z"/><path class="cls-30" d="M174.25,486.77c-2.94.45-7.3,1-12.61,1.5-19,1.66-31.25-.07-40.58-.47-2.8-.12-25.13-.88-48.1,7.87-7.25,2.75-7.42,3.74-48.5,31.29C9.58,536.94.21,543.11,1,544.63c1.06,2,17.61-9.67,41.42-10.25,11.8-.29,22.47,3,43.81,9.65,25.82,8,27.42,11.17,38.93,13.42,12.9,2.52,31.94,2.69,57.57-9Q178.49,517.61,174.25,486.77Z"/><path class="cls-31" d="M767.35,541.18c2.95.41,7.3,1.09,12.52,2.18,18.71,3.87,29.91,9,38.72,12.09,2.65.92,23.82,8.06,48.34,6.28,7.74-.57,8.19-1.46,55.48-16.05,17.14-5.29,27.9-8.51,27.58-10.2-.42-2.26-19.66,4.21-42.63-2.06-11.39-3.11-20.65-9.35-39.16-21.82-22.41-15.08-23-18.56-33.41-24-11.62-6.12-29.81-11.74-57.73-7.91Q772.22,510.42,767.35,541.18Z"/><path class="cls-32" d="M779,448.78c2.91-.64,7.22-1.52,12.49-2.32,18.89-2.9,31.19-2,40.52-2.18,2.8-.06,25.14-.76,47.49-11,7.05-3.22,7.15-4.22,46.33-34.38,14.2-10.93,23.15-17.7,22.26-19.17-1.19-2-16.94,10.79-40.66,12.93-11.76,1.06-22.62-1.55-44.35-6.77-26.29-6.32-28.09-9.36-39.73-10.86-13-1.67-32-.6-56.85,12.73Q772.77,418.28,779,448.78Z"/><path class="cls-33" d="M182.44,399.39c-3-.34-7.33-.91-12.57-1.86-18.8-3.39-30.13-8.26-39-11.09-2.67-.85-24-7.44-48.49-5-7.72.76-8.14,1.67-55,17.47-17,5.73-27.67,9.23-27.31,10.9.48,2.25,19.54-4.71,42.67,1,11.47,2.82,20.88,8.81,39.72,20.8,22.79,14.51,23.5,18,34,23.16,11.77,5.81,30.1,11,57.91,6.41Q178.38,430.27,182.44,399.39Z"/><path class="cls-34" d="M751.83,356.85c2.63-1.39,6.55-3.39,11.41-5.57,17.42-7.82,29.53-10.21,38.46-12.89,2.68-.81,24-7.43,42.81-23.24,5.93-5,5.76-6,35.43-45.48,10.74-14.31,17.55-23.22,16.3-24.4-1.68-1.58-13.43,14.92-35.71,23.3-11,4.15-22.22,4.53-44.55,5.29-27,.91-29.58-1.53-41.2.13-13,1.85-31,7.95-51.37,27.41Q737.62,329.12,751.83,356.85Z"/><path class="cls-35" d="M701.59,275.38c1.92-2.26,4.83-5.56,8.54-9.37,13.31-13.67,23.67-20.34,31-26.12,2.2-1.73,19.58-15.73,31.2-37.33,3.66-6.81,3.14-7.67,16.1-55.29,4.69-17.26,7.72-28,6.12-28.67-2.14-.86-7,18.8-24.57,34.77-8.73,7.93-19,12.38-39.46,21.3-24.78,10.78-28.06,9.44-38.24,15.25-11.41,6.51-25.91,18.81-37.61,44.36Z"/><path class="cls-36" d="M632.92,216.9c1-2.78,2.6-6.88,4.76-11.74,7.71-17.42,15.12-27.25,20-35.2,1.46-2.39,12.89-21.53,16.27-45.8,1.06-7.66.28-8.28-4.15-57.42-1.61-17.81-2.52-29-4.24-29-2.31-.06,0,20-10.94,41.11C649.15,89.29,641.09,97,625,112.45,605.5,131.13,602,131,594.43,140c-8.44,10.05-17.76,26.6-19.83,54.6Z"/><path class="cls-37" d="M550.86,180.25c.08-3,.28-7.35.77-12.63,1.78-19,5.67-30.63,7.74-39.7.62-2.72,5.37-24.48.86-48.58-1.43-7.59-2.37-7.94-22.2-53.15C530.84,9.81,526.43-.48,524.78,0c-2.21.67,6.39,19,2.7,42.45-1.83,11.62-7,21.49-17.38,41.22-12.54,23.88-15.93,24.88-20.22,35.77-4.8,12.19-8.38,30.83-1.44,58.05Z"/><path class="cls-38" d="M230,309.67c-2.63-1.39-6.49-3.51-11-6.3-16.27-10-25-18.64-32.28-24.5-2.18-1.76-19.65-15.65-43.32-22.3-7.46-2.09-8.19-1.4-57.64-3.72-17.93-.84-29.14-1.46-29.42.23-.37,2.27,19.92,2.71,39.38,16.4,9.65,6.79,16.23,15.79,29.38,33.8,15.92,21.78,15.32,25.26,23.21,33.92,8.84,9.69,24,21.15,51.58,27Z"/><path class="cls-39" d="M299.77,240.6c-2-2.23-4.8-5.59-8-9.81-11.6-15.13-16.68-26.33-21.34-34.4C269,194,257.68,174.77,238,160.13c-6.22-4.62-7.14-4.24-52.49-24-16.43-7.18-26.68-11.76-27.55-10.28-1.16,2,17.63,9.64,30.88,29.37,6.57,9.78,9.48,20.53,15.29,42,7,26,5.23,29.06,9.49,40,4.77,12.2,14.83,28.32,38.46,43.62Z"/><path class="cls-40" d="M666.59,708.33c2.06,2.13,5.07,5.34,8.51,9.4,12.34,14.54,18,25.47,23,33.3,1.51,2.34,13.78,21,34.2,34.61,6.44,4.31,7.34,3.88,53.62,21.42,16.77,6.35,27.24,10.42,28,8.9,1.06-2-18.09-8.76-32.3-27.8-7.06-9.44-10.5-20-17.38-41.23-8.32-25.64-6.66-28.76-11.46-39.43-5.38-12-16.23-27.55-40.59-41.67Z"/><path class="cls-41" d="M504.68,776.45c.73,2.87,1.74,7.15,2.7,12.37,3.46,18.73,2.9,31,3.38,40.3.15,2.79,1.51,25,12.43,47,3.44,6.92,4.44,7,35.86,45.13,11.38,13.82,18.44,22.53,19.88,21.6,1.94-1.24-11.33-16.55-14.17-40.11-1.42-11.69.88-22.59,5.48-44.39,5.55-26.37,8.55-28.26,9.7-39.89,1.3-13-.34-32-14.45-56.26Z"/><path class="cls-42" d="M424.06,772.71c-.3,2.95-.83,7.31-1.72,12.55-3.2,18.77-8,30.11-10.71,39-.82,2.67-7.2,24-4.52,48.37.85,7.69,1.76,8.1,18.13,54.67,5.93,16.87,9.56,27.47,11.23,27.09,2.26-.51-4.93-19.42.51-42.53,2.7-11.46,8.61-20.91,20.44-39.81,14.31-22.87,17.77-23.61,22.86-34.15,5.71-11.8,10.69-30.12,5.82-57.78Z"/><path class="cls-43" d="M584.83,752.7c1.15,2.73,2.78,6.81,4.52,11.83,6.21,18,7.48,30.24,9.35,39.35A128.43,128.43,0,0,0,618,848.5c4.44,6.34,5.44,6.27,42.19,39.33,13.32,12,21.59,19.55,22.88,18.42,1.74-1.52-13.67-14.69-20-37.57-3.14-11.35-2.49-22.47-1.2-44.7,1.57-26.91,4.25-29.22,3.66-40.9-.66-13.08-5.1-31.53-22.67-53.49Z"/><path class="cls-44" d="M351.67,744.51c-1,2.8-2.48,6.93-4.55,11.82-7.42,17.55-14.65,27.51-19.36,35.54-1.41,2.41-12.51,21.74-15.47,46.07-.93,7.68-.14,8.29,5.14,57.34,1.91,17.78,3,28.92,4.73,28.94,2.31,0-.36-20,10.23-41.29,5.26-10.55,13.17-18.4,29-34.12,19.17-19,22.71-18.95,30.08-28,8.26-10.19,17.3-26.89,18.89-54.93Z"/></g><circle class="cls-45" cx="479.5" cy="473.5" r="308.5"/></g></g></svg>