<svg xmlns="http://www.w3.org/2000/svg" viewBox="0 0 134.83 134.83"><defs><style>.cls-1{fill:#683c11;}.cls-2{fill:#ca9e67;}</style></defs><title>venus</title><g id="Layer_2" data-name="Layer 2"><g id="Layer_1-2" data-name="Layer 1"><path class="cls-1" d="M133.26,52.06a67.65,67.65,0,0,1-4.09,43.24A231.09,231.09,0,0,0,6.4,95.81h0a66.48,66.48,0,0,1-5.21-17Z" transform="translate(-0.25 -0.25)"/><path class="cls-1" d="M133.26,52.06,1.18,78.86a261.43,261.43,0,0,1,132.08-26.8Z" transform="translate(-0.25 -0.25)"/><path class="cls-2" d="M129.17,95.3,6.4,95.81a231.09,231.09,0,0,1,122.77-.51Z" transform="translate(-0.25 -0.25)"/><path class="cls-2" d="M6.4,95.81l122.77-.51a67.36,67.36,0,0,1-13.25,19.43l-.36-.35a75.89,75.89,0,0,0-75.85,13.84l-.31.67c-.39-.17-.77-.36-1.15-.54a4.33,4.33,0,0,0-1-.52,67.65,67.65,0,0,1-30.83-32Z" transform="translate(-0.25 -0.25)"/><path class="cls-2" d="M126.73,35.15a67,67,0,0,1,6.53,16.91A261.43,261.43,0,0,0,1.18,78.86a67.46,67.46,0,0,1,16-55.8A191.18,191.18,0,0,0,68.19,36.91,190.21,190.21,0,0,0,126.73,35.15Z" transform="translate(-0.25 -0.25)"/><path class="cls-1" d="M126.73,35.15,17.13,23.06a67.41,67.41,0,0,1,109.6,12.09Z" transform="translate(-0.25 -0.25)"/><path class="cls-1" d="M17.13,23.06l109.6,12.09a190.21,190.21,0,0,1-58.54,1.76A191.18,191.18,0,0,1,17.13,23.06Z" transform="translate(-0.25 -0.25)"/><path class="cls-1" d="M115.92,114.73A67.47,67.47,0,0,1,39.4,128.89l.31-.67a75.89,75.89,0,0,1,75.85-13.84Z" transform="translate(-0.25 -0.25)"/></g></g></svg>