<svg xmlns="http://www.w3.org/2000/svg" viewBox="0 0 892 892"><defs><style>.cls-1{fill:#29011c;}.cls-2{fill:#939393;}.cls-10,.cls-11,.cls-3,.cls-7{fill:none;}.cls-12,.cls-3{stroke:#3a3a3a;stroke-width:6px;}.cls-10,.cls-11,.cls-12,.cls-3,.cls-7{stroke-miterlimit:10;}.cls-4{fill:#c6c6c6;}.cls-5{fill:#b4eaf9;}.cls-6{fill:#755f44;}.cls-10,.cls-7{stroke:#000;}.cls-7{stroke-width:4px;}.cls-8{fill:#fff;}.cls-9{fill:#493a29;}.cls-10,.cls-11{stroke-width:14px;}.cls-11{stroke:#af0808;}.cls-12{fill:#575454;}.cls-13{fill:#ea792d;}.cls-14{fill:#edcc24;}</style></defs><title>hund</title><g id="Layer_2" data-name="Layer 2"><g id="Layer_1-2" data-name="Layer 1"><circle class="cls-1" cx="446" cy="446" r="446"/><path class="cls-2" d="M172.56,630.06c10.65-3.44,17.45-5.64,26.74-10.45,14.89-7.72,24.54-16.12,31.75-22.52,19.3-17.16,29-26,30.5-40,.34-3.18,1.59-14.65-6.34-22.75-5.73-5.86-14.84-8.52-22.3-6.31-5.95,1.76-7.92,5.76-14.38,13.18a138.72,138.72,0,0,1-31,26.08c-8.23,5.3-16.15,10.48-28,14.25-8.26,2.64-12.32,2.66-18.33,6.87-3.29,2.31-11.54,8.1-13.07,18.67-.11.78-1.59,12.37,6.63,20.47a24.07,24.07,0,0,0,11.92,6.14C152.38,635.06,158.17,634.71,172.56,630.06Z"/><line class="cls-3" x1="165.73" y1="632.14" x2="150.37" y2="583.83"/><path class="cls-2" d="M579.83,589.87c7.6,8.21,12.45,13.46,20.73,19.86,13.27,10.25,25,15.47,33.79,19.31,23.7,10.29,35.82,15.34,49.13,10.83,3-1,14-4.72,18-15.33,2.9-7.66,1.47-17-3.67-22.88-4.1-4.66-8.56-4.76-18-7.49-4.13-1.2-22.2-6.43-36.72-17.18-8.58-6.36-7-8-22.17-20.6-7.18-5.94-11.59-8.93-16.87-11.47-8.22-4-14.48-7-22-5a23.48,23.48,0,0,0-15.78,14.64,24,24,0,0,0-.55,13.39C566.8,573.67,569.56,578.78,579.83,589.87Z"/><line class="cls-3" x1="670.31" y1="591.09" x2="654.24" y2="637.27"/><rect class="cls-4" x="195.05" y="337.51" width="431.92" height="327.66" rx="110.19"/><path class="cls-4" d="M532.44,314.6H507.18a154.86,154.86,0,0,0-4.51,37.23,153.08,153.08,0,0,0,.79,15.67,154.74,154.74,0,0,0,114,133.78,152.86,152.86,0,0,0,25.83,4.59,118.53,118.53,0,0,0,8.93-45.21V434.33C652.18,368.48,598.3,314.6,532.44,314.6Z"/><path class="cls-5" d="M812,351.83A154.67,154.67,0,0,1,657.33,506.5c-4.74,0-9.44-.22-14.08-.63a152.86,152.86,0,0,1-25.83-4.59,154.74,154.74,0,0,1-114-133.78,153.08,153.08,0,0,1-.79-15.67,154.67,154.67,0,0,1,309.33,0Z"/><path class="cls-6" d="M755.29,423.44c-4.4,7.75-10.27,18.11-21.77,24.06-18.17,9.38-30.33-2.62-61.4,4.14a80.19,80.19,0,0,0-19.94,7.16,69.14,69.14,0,0,0-16.46,11.83,71.14,71.14,0,0,0-18.3,30.65,154.74,154.74,0,0,1-114-133.78c9.85-34.64,9.54-40.5,15.21-52.9.09-.22.2-.44.3-.67,4.22-9.05,20.1-43.21,57.7-58.15,46.6-18.52,89.13,7.34,91.35,8.74,4.37,2.76,39.74,25.83,45.15,66.28a79.39,79.39,0,0,1,.31,18.36c-.39,3.24-.52,8.74,2.87,12.74,2.07,2.45,6.33,3.39,14.66,5.26,6.87,1.54,7.39,1.15,11.68,2.43,4.59,1.37,8.9,2.65,12.6,5.73,5.85,4.86,7.36,11.83,8,14.89C766.29,404,759.48,416,755.29,423.44Z"/><circle cx="637.28" cy="342.09" r="10.31"/><circle cx="694.57" cy="342.09" r="10.31"/><path d="M734.85,400.14l13.28-11.75a4.19,4.19,0,0,0-2.78-7.34H718.78a4.2,4.2,0,0,0-2.78,7.34l13.29,11.75A4.21,4.21,0,0,0,734.85,400.14Z"/><path class="cls-7" d="M643,412c0,7.6,8.2,13.75,18.33,13.75"/><path class="cls-8" d="M700.3,213.78a128.88,128.88,0,0,1,20.62,9.16c15.31,8.42,26.34,17.37,30.74,21.77a173.2,173.2,0,0,1,23.44,26.76,39.89,39.89,0,0,1,7.69,19.07c.39,3.78.83,7.95-1.15,9.16-3.86,2.36-12.95-8.95-27.5-20.62-8.36-6.71-20.95-16.78-37.8-22.91-19.63-7.15-28.81-3.05-43.54-13.75-9.78-7.11-11.21-12.9-11.46-16,0-.47-.48-7.72,4.59-12.6,5.31-5.12,13.18-4.26,20.62-3.44C687.88,210.49,692.18,211,700.3,213.78Z"/><path class="cls-9" d="M547.86,296.08,526.77,404.81A17.58,17.58,0,0,0,544,425.73h42.17a17.58,17.58,0,0,0,17.25-20.92L582.36,296.08C578.68,277.12,551.53,277.12,547.86,296.08Z"/><path class="cls-10" d="M496.37,337.51c0,93.09,58.41,168.41,130.6,168.41"/><path class="cls-11" d="M439.08,337.51c8,114.85,85.66,207.52,185.6,224.55"/><path class="cls-2" d="M505.38,623.07c2.1,11,3.45,18,7.08,27.83,5.83,15.72,13,26.34,18.44,34.28,14.65,21.27,22.25,32,35.93,35.2,3.11.73,14.35,3.38,23.36-3.49,6.52-5,10.28-13.68,9-21.35-1-6.13-4.74-8.58-11.31-15.9-2.87-3.2-15.43-17.2-22-34-3.91-9.94-1.67-10.49-7.9-29.22-2.94-8.84-5.1-13.71-8.24-18.66-4.87-7.71-8.59-13.58-16-15.93a23.47,23.47,0,0,0-21.14,4.06A24.07,24.07,0,0,0,505,597C502.91,602.43,502.55,608.22,505.38,623.07Z"/><line class="cls-12" x1="581.49" y1="672.02" x2="543.41" y2="702.68"/><path class="cls-2" d="M246.67,690.74c9.37-6.11,15.36-10,23.07-17.09,12.34-11.35,19.46-22,24.74-30,14.13-21.61,21.16-32.7,19-46.59-.5-3.15-2.3-14.55-12.07-20.3-7.07-4.15-16.56-4.32-23.17-.24-5.29,3.26-6.14,7.64-10.43,16.48a138.61,138.61,0,0,1-23.13,33.3c-6.56,7.27-12.85,14.34-23.25,21.07-7.28,4.71-11.19,5.79-15.89,11.43-2.57,3.09-9,10.84-7.73,21.44.1.78,1.71,12.36,11.76,18a24.19,24.19,0,0,0,13.12,2.8C228.5,700.85,234,699,246.67,690.74Z"/><line class="cls-3" x1="240.62" y1="694.53" x2="213.15" y2="651.93"/><rect class="cls-2" x="227.13" y="263.04" width="276.11" height="104.26" rx="45.5"/><path class="cls-13" d="M217,281.2a141.36,141.36,0,0,1-89.48-41.07l16.14,44-52.8-22L129,304.67,80.59,316.4l46.93,8.8L90.86,364.8l57.2-11.73-17.6,22,89.47-14.67Q218.46,320.8,217,281.2Z"/><path class="cls-14" d="M218,294.27a120.65,120.65,0,0,1-30.94-6.2,113.14,113.14,0,0,1-38.95-22.74l12.6,31-41.24-15.5,29.79,30-37.81,8.27,36.66,6.2-28.64,27.91,44.68-8.27-13.75,15.5,69.89-10.33Q219.12,322.18,218,294.27Z"/><rect class="cls-2" x="207.66" y="263.04" width="106.55" height="104.26" rx="12"/><polygon class="cls-8" points="245.08 239.36 239.74 235.42 233.58 237.91 235.53 231.25 231.49 225.84 238.04 225.66 241.69 219.83 243.79 226.38 250.1 228.18 244.84 232.41 245.08 239.36"/><polygon class="cls-8" points="674.18 117.48 668.83 113.54 662.68 116.03 664.63 109.37 660.58 103.96 667.14 103.78 670.79 97.95 672.89 104.5 679.2 106.3 673.94 110.53 674.18 117.48"/><polygon class="cls-8" points="254.18 117.48 248.83 113.54 242.68 116.03 244.63 109.37 240.58 103.96 247.14 103.78 250.79 97.95 252.89 104.5 259.19 106.3 253.94 110.53 254.18 117.48"/><polygon class="cls-8" points="170.18 661.48 164.83 657.54 158.68 660.03 160.63 653.37 156.58 647.96 163.14 647.78 166.79 641.95 168.89 648.5 175.19 650.3 169.94 654.53 170.18 661.48"/><polygon class="cls-8" points="604.18 820.48 598.83 816.54 592.68 819.03 594.63 812.37 590.58 806.96 597.14 806.78 600.79 800.95 602.89 807.5 609.2 809.3 603.94 813.53 604.18 820.48"/><polygon class="cls-8" points="459.18 197.48 453.83 193.54 447.68 196.03 449.63 189.37 445.58 183.96 452.14 183.78 455.79 177.95 457.89 184.5 464.19 186.3 458.94 190.53 459.18 197.48"/><polygon class="cls-8" points="836.18 516.48 830.83 512.54 824.68 515.03 826.63 508.37 822.58 502.96 829.14 502.78 832.79 496.95 834.89 503.5 841.2 505.3 835.94 509.54 836.18 516.48"/><polygon class="cls-8" points="709.18 712.48 703.83 708.54 697.68 711.03 699.63 704.37 695.58 698.96 702.14 698.78 705.79 692.95 707.89 699.5 714.2 701.3 708.94 705.53 709.18 712.48"/><polygon class="cls-8" points="394.18 785.48 388.83 781.54 382.68 784.03 384.63 777.37 380.58 771.96 387.14 771.78 390.79 765.95 392.89 772.5 399.19 774.3 393.94 778.53 394.18 785.48"/><polygon class="cls-8" points="66.18 455.48 60.83 451.54 54.68 454.03 56.63 447.37 52.58 441.96 59.14 441.78 62.79 435.95 64.89 442.5 71.19 444.3 65.94 448.54 66.18 455.48"/><polygon class="cls-8" points="531.05 56.06 525.71 52.13 519.55 54.62 521.5 47.95 517.46 42.55 524.01 42.36 527.66 36.53 529.76 43.09 536.07 44.89 530.81 49.12 531.05 56.06"/><polygon class="cls-8" points="179.06 523.06 173.71 519.13 167.55 521.62 169.5 514.95 165.46 509.55 172.01 509.36 175.66 503.54 177.76 510.09 184.07 511.89 178.81 516.12 179.06 523.06"/><polygon class="cls-8" points="263.06 830.06 257.71 826.13 251.55 828.62 253.5 821.95 249.46 816.55 256.01 816.36 259.67 810.53 261.76 817.09 268.07 818.89 262.81 823.12 263.06 830.06"/></g></g></svg>