<svg xmlns="http://www.w3.org/2000/svg" viewBox="0 0 134.83 134.83"><defs><style>.cls-1{fill:#1d71b8;}.cls-2{fill:#3aaa35;}</style></defs><title>jorden</title><g id="Layer_2" data-name="Layer 2"><g id="Layer_1-2" data-name="Layer 1"><path class="cls-1" d="M121.38,98.85c-1.89,10.12-8.66,18.34-16.26,24.87l0,0a67.44,67.44,0,0,1-101-78.46c3.7,12.71,4.35,6.57,9.62,9,6.61,3,11,.38,15.12,4.51a13.93,13.93,0,0,1,3,4.8c2.12,5.41,2,12.72-.89,18C29,85,26.13,87.33,26.41,91.4A10,10,0,0,0,28.8,97c15.05,21.38,27.38,35.83,30.89,34.08,1-.49-1.54-6.51-1.46-8.78a11.59,11.59,0,0,1,3.34-7.8c4-4,9.68-11.34,10.45-21.48.2-2.54,1.17-15.3-6.1-20.15-7.75-5.17-16.83,4-25.19-1.33a16.45,16.45,0,0,1-6.32-8.57,12.45,12.45,0,0,1,0-8.66c3.34-7.76,18.51-7.22,18.29-13.79-.06-2-1.43-3.2-1.06-6.1.59-4.55,4.45-5.33,4.78-9,.41-4.66-5.3-8.57-5.57-8.75-4.92-3.28-8.59-.86-12.47-3.45-2.31-1.54-3.21,3.89-3.45-4.43A67.08,67.08,0,0,1,54.77,1.48h0c.56.32,1,.57,1.34.74-.09,0,.34.35,2.26,1.63,12,6,24,13,37,18,5,2,9,8,4,12-6,4-13,6-17,12-5,9-6,20,2,28,6,5,14,3,19,8,10,11,.11,22.17-6.61,32.16-.52.76-1.39,1.84-1.39,2.84C105.35,112.78,110.34,100.88,121.38,98.85Z" transform="translate(-0.25 -0.25)"/><path class="cls-2" d="M65.92,72.84C73.19,77.69,72.22,90.45,72,93c-.77,10.14-6.42,17.46-10.45,21.48a11.59,11.59,0,0,0-3.34,7.8c-.08,2.27,2.44,8.29,1.46,8.78C56.18,132.8,43.85,118.35,28.8,97a10,10,0,0,1-2.39-5.57C26.13,87.33,29,85,30.92,81.59c2.9-5.28,3-12.59.89-18l2.6-.65a16.45,16.45,0,0,0,6.32,8.57C49.09,76.86,58.17,67.67,65.92,72.84Z" transform="translate(-0.25 -0.25)"/><path class="cls-2" d="M50.81,16.62c.27.18,6,4.09,5.57,8.75-.33,3.69-4.19,4.47-4.78,9-.37,2.9,1,4.11,1.06,6.1.22,6.57-14.95,6-18.29,13.79a12.45,12.45,0,0,0,0,8.66l-2.6.65a13.93,13.93,0,0,0-3-4.8c-4.14-4.13-8.51-1.48-15.12-4.51-5.27-2.43-5.92,3.71-9.62-9h0A67.64,67.64,0,0,1,34.89,8.74c.24,8.32,1.14,2.89,3.45,4.43C42.22,15.76,45.89,13.34,50.81,16.62Z" transform="translate(-0.25 -0.25)"/><path class="cls-1" d="M56.12,2.22c.18,0,2.15,1.19,0,0Z" transform="translate(-0.25 -0.25)"/><path class="cls-2" d="M54.78,1.48a67.42,67.42,0,0,1,50.34,122.24c7.6-6.53,14.37-14.75,16.26-24.87-11,2-16,13.93-26,18,0-1,.87-2.08,1.39-2.84,6.72-10,16.61-21.16,6.61-32.16-5-5-13-3-19-8-8-8-7-19-2-28,4-6,11-8,17-12,5-4,1-10-4-12-13-5-25-12-37-18C56.46,2.57,56,2.22,56.12,2.22c2.15,1.19.18,0,0,0C55.78,2.05,55.34,1.8,54.78,1.48Z" transform="translate(-0.25 -0.25)"/></g></g></svg>