<svg xmlns="http://www.w3.org/2000/svg" viewBox="0 0 137.06 160.96"><defs><style>.cls-1{fill:#b2b2b2;}.cls-2{fill:#575756;}.cls-3,.cls-4{fill:none;stroke-miterlimit:10;}.cls-3{stroke:#3c3c3b;}.cls-4{stroke:#575756;stroke-width:0.25px;}.cls-5{fill:#009fe3;}.cls-6{fill:#78cdf4;}.cls-7{fill:#1d1d1b;}.cls-10,.cls-8{fill:#fff;}.cls-9{fill:#f2f2f2;}.cls-10,.cls-9{opacity:0.5;}</style></defs><title>logo</title><g id="Layer_2" data-name="Layer 2"><g id="Layer_1-2" data-name="Layer 1"><rect class="cls-1" x="40.41" y="112.04" width="56.34" height="38.69"/><rect class="cls-2" x="45.45" y="150.73" width="17.57" height="10.24"/><rect class="cls-2" x="73.91" y="150.73" width="17.57" height="10.24"/><rect class="cls-2" x="93.09" y="123.16" width="17.57" height="10.24" transform="translate(-26.4 230.15) rotate(-90)"/><rect class="cls-2" x="26.69" y="123.16" width="17.57" height="10.24" transform="translate(-92.8 163.75) rotate(-90)"/><line class="cls-3" x1="133.18" y1="73" x2="119.56" y2="73"/><polyline class="cls-4" points="68.53 150.73 68.64 113.23 68.63 113.17"/><circle class="cls-2" cx="68.58" cy="131.52" r="6.81"/><ellipse class="cls-5" cx="68.58" cy="131.52" rx="5.93" ry="5.99"/><circle class="cls-6" cx="66.31" cy="127.65" r="1.27"/><circle class="cls-6" cx="64.84" cy="130.1" r="0.68"/><circle class="cls-6" cx="72.18" cy="134.5" r="1.08"/><rect class="cls-2" x="45.45" y="24.28" width="17.57" height="10.24"/><rect class="cls-2" x="73.91" y="24.28" width="17.57" height="10.24"/><path class="cls-7" d="M100.75,59.62A15.82,15.82,0,1,1,84.93,75.44,15.89,15.89,0,0,1,100.75,59.62Z"/><path class="cls-1" d="M108.06,93.36v19.25H30V93.39h0a22.29,22.29,0,0,0,10.85,2.8,22.74,22.74,0,0,0,10.88-2.8l34.59,0a22.31,22.31,0,0,0,21.75,0Z"/><path class="cls-1" d="M108.06,34.51V53.77a22.31,22.31,0,0,0-21.75,0l-34.59,0a22.63,22.63,0,0,0-10.88-2.8A22.18,22.18,0,0,0,30,53.74h0V34.51Z"/><path class="cls-8" d="M108.06,53.77H86.31a22.31,22.31,0,0,1,21.75,0Z"/><path class="cls-8" d="M86.31,93.36h21.75a22.31,22.31,0,0,1-21.75,0Z"/><path class="cls-1" d="M51.72,53.74l34.59,0A22.65,22.65,0,0,0,74.54,73.55H63.45A22.72,22.72,0,0,0,51.72,53.74Z"/><path class="cls-1" d="M86.31,93.36l-34.59,0A22.73,22.73,0,0,0,63.45,73.55H74.54A22.7,22.7,0,0,0,86.31,93.36Z"/><circle class="cls-7" cx="44.07" cy="75.44" r="15.82"/><path class="cls-8" d="M51.72,53.74H30a22.18,22.18,0,0,1,10.85-2.8A22.63,22.63,0,0,1,51.72,53.74Z"/><path class="cls-8" d="M30,93.39H51.72a22.74,22.74,0,0,1-10.88,2.8A22.29,22.29,0,0,1,30,93.39Z"/><line class="cls-3" x1="18.23" y1="73.55" x2="4.61" y2="73.55"/><path class="cls-3" d="M63.45,73.55A22.63,22.63,0,0,1,40.84,96.19,22.29,22.29,0,0,1,30,93.39h0a22.62,22.62,0,0,1,0-39.65h0a22.18,22.18,0,0,1,10.85-2.8A22.63,22.63,0,0,1,63.45,73.55Z"/><path class="cls-3" d="M108.06,53.77a22.57,22.57,0,0,1,0,39.59,22.31,22.31,0,0,1-21.75,0,22.53,22.53,0,0,1,0-39.59,22.31,22.31,0,0,1,21.75,0Z"/><polyline class="cls-3" points="75.82 73.55 74.54 73.55 63.45 73.55 62.2 73.55"/><path class="cls-8" d="M58.37,97.29c4.7,6.51,11.86,8.84,16.56,6.5a10.34,10.34,0,0,0,4.73-5.64"/><ellipse class="cls-9" cx="68.53" cy="65.76" rx="68.53" ry="65.76"/><ellipse class="cls-10" cx="100.73" cy="50.93" rx="25.34" ry="39.37" transform="translate(-11.3 64.72) rotate(-33.84)"/></g></g></svg>