<svg xmlns="http://www.w3.org/2000/svg" viewBox="0 0 401.1 402.1"><defs><style>.cls-1{fill:#220d1c;}.cls-2{fill:#fff;}.cls-3{fill:#dadada;}.cls-4,.cls-5{fill:#b3b2b2;}.cls-5{stroke:#dadada;stroke-width:2px;}.cls-5,.cls-6{stroke-miterlimit:10;}.cls-6{fill:none;stroke:#8f6b47;stroke-width:5px;}.cls-7{fill:#e7362d;}.cls-8{fill:#384f9e;}</style></defs><title>moonlanding</title><g id="Layer_2" data-name="Layer 2"><g id="Layer_1-2" data-name="Layer 1"><path class="cls-1" d="M401.1,200.55A200.57,200.57,0,0,1,234.62,398.21q-5.84,1-11.78,1.66a200,200,0,0,1-22.29,1.23c-.66,0-1.33,0-2,0A200.54,200.54,0,0,1,0,200.55C0,89.78,89.79,0,200.55,0S401.1,89.78,401.1,200.55Z"/><polygon class="cls-2" points="77.61 115.64 78.8 118.19 81.46 118.6 79.54 120.58 79.99 123.38 77.61 122.06 75.24 123.38 75.69 120.58 73.77 118.6 76.43 118.19 77.61 115.64"/><polygon class="cls-2" points="281.7 40.19 282.89 42.74 285.54 43.15 283.62 45.13 284.08 47.94 281.7 46.61 279.32 47.94 279.78 45.13 277.86 43.15 280.51 42.74 281.7 40.19"/><polygon class="cls-2" points="176.74 68.82 177.93 71.37 180.59 71.78 178.67 73.77 179.12 76.57 176.74 75.25 174.37 76.57 174.82 73.77 172.9 71.78 175.56 71.37 176.74 68.82"/><polygon class="cls-2" points="274.01 123.38 275.2 125.93 277.86 126.34 275.93 128.33 276.39 131.13 274.01 129.81 271.63 131.13 272.09 128.33 270.17 126.34 272.82 125.93 274.01 123.38"/><polygon class="cls-2" points="169.06 147.8 170.24 150.35 172.9 150.76 170.98 152.74 171.43 155.54 169.06 154.22 166.68 155.54 167.13 152.74 165.21 150.76 167.87 150.35 169.06 147.8"/><polygon class="cls-2" points="330.06 143.93 331.25 146.48 333.9 146.88 331.98 148.87 332.43 151.67 330.06 150.35 327.68 151.67 328.14 148.87 326.21 146.88 328.87 146.48 330.06 143.93"/><polygon class="cls-2" points="357.09 261.51 358.28 264.06 360.94 264.47 359.01 266.45 359.47 269.25 357.09 267.93 354.71 269.25 355.17 266.45 353.25 264.47 355.9 264.06 357.09 261.51"/><polygon class="cls-2" points="124.42 208.29 125.61 210.84 128.26 211.25 126.34 213.24 126.8 216.04 124.42 214.71 122.04 216.04 122.5 213.24 120.57 211.25 123.23 210.84 124.42 208.29"/><polygon class="cls-2" points="135.59 317.23 136.77 319.77 139.43 320.18 137.51 322.17 137.96 324.97 135.59 323.65 133.21 324.97 133.66 322.17 131.74 320.18 134.4 319.77 135.59 317.23"/><polygon class="cls-2" points="38.38 253.76 39.57 256.31 42.22 256.72 40.3 258.71 40.76 261.51 38.38 260.19 36 261.51 36.46 258.71 34.53 256.72 37.19 256.31 38.38 253.76"/><polygon class="cls-2" points="230.72 350.74 231.91 353.29 234.56 353.7 232.64 355.68 233.09 358.48 230.72 357.16 228.34 358.48 228.8 355.68 226.87 353.7 229.53 353.29 230.72 350.74"/><polygon class="cls-2" points="215.4 200.55 216.59 203.1 219.24 203.51 217.32 205.49 217.78 208.29 215.4 206.97 213.02 208.29 213.48 205.49 211.55 203.51 214.21 203.1 215.4 200.55"/><polygon class="cls-2" points="294.73 286.67 295.91 289.22 298.57 289.63 296.65 291.61 297.1 294.41 294.73 293.09 292.35 294.41 292.8 291.61 290.88 289.63 293.54 289.22 294.73 286.67"/><polygon class="cls-2" points="322.37 336.7 323.56 339.25 326.21 339.66 324.29 341.65 324.75 344.45 322.37 343.13 319.99 344.45 320.45 341.65 318.52 339.66 321.18 339.25 322.37 336.7"/><polygon class="cls-2" points="81.46 61.08 82.65 63.63 85.3 64.04 83.38 66.02 83.83 68.82 81.46 67.5 79.08 68.82 79.54 66.02 77.61 64.04 80.27 63.63 81.46 61.08"/><polygon class="cls-2" points="330.06 216.04 331.25 218.59 333.9 219 331.98 220.98 332.43 223.78 330.06 222.46 327.68 223.78 328.14 220.98 326.21 219 328.87 218.59 330.06 216.04"/><polygon class="cls-2" points="55.52 185.48 56.71 188.03 59.37 188.44 57.45 190.42 57.9 193.23 55.52 191.9 53.15 193.23 53.6 190.42 51.68 188.44 54.34 188.03 55.52 185.48"/><g id="Layer_1-2-2" data-name="Layer 1-2"><path class="cls-3" d="M368.18,281a162.34,162.34,0,0,1-3.91,35.44,200.51,200.51,0,0,1-129.65,81.82q-5.84,1-11.78,1.66-13.93-7.23-27.23-15.56a384.47,384.47,0,0,1-59.34-45.79,228.08,228.08,0,0,1-17.79-18.88l-1.25-1.5c-.82-1-1.63-2-2.44-3l-1.19-1.51-1.18-1.52-1.15-1.52c-.34-.43-.66-.87-1-1.31-.1-.15-.22-.29-.32-.44q-2.19-2.94-4.23-5.9c-1.07-1.54-2.12-3.08-3.12-4.63l-1-1.54s0,0,0,0c-.34-.51-.66-1-1-1.54-.45-.71-.9-1.42-1.33-2.13s-.69-1.11-1-1.68l-.44-.73-.92-1.52-.43-.74c-.34-.57-.68-1.15-1-1.73-1.25-2.14-2.44-4.27-3.59-6.41l-1.14-2.14c-.76-1.42-1.49-2.85-2.21-4.27h0q-3.24-6.4-6-12.78c-3.22-7.32-6-14.57-8.53-21.67q-1.11-3.19-2.15-6.35t-2-6.25c-.78-2.54-1.53-5.06-2.24-7.54-1.77-6.12-3.32-12-4.73-17.7A163,163,0,0,1,205.16,118h0A163,163,0,0,1,368.18,281Z"/><path class="cls-4" d="M222.84,399.87a200,200,0,0,1-22.29,1.23c-.66,0-1.33,0-2,0A200,200,0,0,1,51.29,334.49a163.07,163.07,0,0,1,11.54-133c1.41,5.66,3,11.58,4.73,17.7.71,2.48,1.46,5,2.24,7.54A320.34,320.34,0,0,0,82.48,261q2.79,6.36,6,12.79s0,0,0,0c.73,1.42,1.46,2.85,2.21,4.27l1.14,2.14c1.16,2.13,2.35,4.27,3.59,6.41.33.58.67,1.16,1,1.73l.43.74.92,1.52.44.73c.34.57.69,1.12,1,1.68s.89,1.42,1.34,2.13l1,1.54s0,0,0,0l1,1.54c1,1.55,2,3.09,3.12,4.63q2.05,3,4.23,5.9c.1.15.22.29.32.44.33.44.65.88,1,1.31l1.15,1.52,1.18,1.52,1.19,1.51c.81,1,1.62,2,2.44,3l1.25,1.5a228.08,228.08,0,0,0,17.79,18.88,384.47,384.47,0,0,0,59.34,45.79Q208.9,392.64,222.84,399.87Z"/><circle class="cls-5" cx="98.3" cy="274.53" r="20.79"/><path class="cls-5" d="M236.56,389.43a20.75,20.75,0,0,1-1.94,8.78q-5.84,1-11.78,1.66a200,200,0,0,1-22.29,1.23c-.66,0-1.33,0-2,0a20.79,20.79,0,1,1,38-11.65Z"/><circle class="cls-4" cx="182.79" cy="306.49" r="6.55"/><circle class="cls-4" cx="274.75" cy="310.31" r="20.79"/><circle class="cls-4" cx="270.38" cy="243.15" r="16.44"/><circle class="cls-4" cx="236.55" cy="253.74" r="6.55"/><circle class="cls-4" cx="132.84" cy="192.16" r="34.55"/><circle class="cls-4" cx="167.37" cy="143.81" r="6.55"/><circle class="cls-4" cx="354.04" cy="280.93" r="6.55" transform="translate(20.03 585.41) rotate(-80.78)"/></g><line class="cls-6" x1="198.44" y1="43.56" x2="198.44" y2="207.23"/><path class="cls-7" d="M305.56,102.87c-1.47.8-3.49,1.86-5.95,3a89.25,89.25,0,0,1-20.34,6.44,78.79,78.79,0,0,1-26.28,1c-2.68-.38-10.05-2.4-24.8-6.45-6.32-1.74-11.59-3.24-18.34-2a30.2,30.2,0,0,0-9.43,3.47q-.36-11.55-.71-23.09-.14-4.15-.26-8.3-.51-16.29-1-32.58a32.21,32.21,0,0,1,12.4-5.46c2.19-.44,6.31-1,15.37.5,8.54,1.42,12.11,3.15,17.36,4.46,10.33,2.59,18.82,1.51,26.78.5a93.31,93.31,0,0,0,33.22-10.91q.53,18.51,1.06,37l.27,9.39Z"/><path class="cls-2" d="M200.2,101.08a30.44,30.44,0,0,1,9.65-3.62c6.68-1.24,11.87.21,18.34,2,14.75,4,22.12,6,24.8,6.39a79.48,79.48,0,0,0,26.28-1,90.62,90.62,0,0,0,20.34-6.39c2.34-1.06,4.29-2.06,5.74-2.84l.21-.11c-.05-3.09-.09-6.18-.14-9.27l-.33.23a65.34,65.34,0,0,1-12,6.65A70.31,70.31,0,0,1,275,98a76.6,76.6,0,0,1-24,.5c-2.49-.37-1.38-.35-24-6.71-6.82-1.92-12.12-3.31-18.79-2a29.57,29.57,0,0,0-8.28,2.94Z"/><path class="cls-2" d="M304.9,79.85c-1.63.88-3.71,1.92-6.16,3a93,93,0,0,1-20.33,6.39,79.22,79.22,0,0,1-26.28,1c-2.68-.37-10-2.37-24.8-6.39-6.32-1.72-11.59-3.21-18.35-2a30,30,0,0,0-9.27,3.36l-.15.08q-.12-4.16-.26-8.3l.15-.08a30,30,0,0,1,7.91-2.77c6.71-1.32,12,.12,18.79,2,22.61,6.36,21.49,6.34,24,6.71a76.6,76.6,0,0,0,24-.5,68.83,68.83,0,0,0,18.12-4.86,65.25,65.25,0,0,0,12.38-7.07Z"/><path class="cls-8" d="M198.44,44.33a30.06,30.06,0,0,1,12.4-5.45,33.83,33.83,0,0,1,4.67-.48,49.87,49.87,0,0,1,11.07,1.08c3.12.53,5.37,1.07,6,1.22,2.82.68,5.28,1.43,7.31,2.12l.51,29.58c-2.17-.7-4-1.19-5.16-1.51-1.52-.4-2.18-.53-4.82-1.18-3.07-.74-3-.76-4.95-1.23a59.71,59.71,0,0,0-8.58-1.72,33.75,33.75,0,0,0-5.43-.08,29.74,29.74,0,0,0-12.2,3.75Z"/><polygon class="cls-2" points="202.41 47.72 201.59 47.44 200.89 47.96 200.91 47.09 200.2 46.59 201.03 46.33 201.28 45.5 201.78 46.21 202.65 46.2 202.13 46.89 202.41 47.72"/><polygon class="cls-2" points="223.71 56.89 222.89 56.61 222.19 57.13 222.21 56.26 221.5 55.76 222.33 55.5 222.58 54.67 223.09 55.38 223.95 55.37 223.43 56.07 223.71 56.89"/><polygon class="cls-2" points="222.85 61.39 222.03 61.11 221.33 61.63 221.34 60.77 220.63 60.26 221.46 60.01 221.72 59.18 222.22 59.89 223.09 59.88 222.57 60.57 222.85 61.39"/><polygon class="cls-2" points="225.34 64.44 224.52 64.17 223.82 64.69 223.84 63.82 223.13 63.32 223.96 63.06 224.21 62.23 224.72 62.94 225.58 62.93 225.06 63.62 225.34 64.44"/><polygon class="cls-2" points="222.16 45.72 221.34 45.45 220.65 45.96 220.66 45.1 219.95 44.59 220.78 44.34 221.03 43.51 221.54 44.22 222.4 44.21 221.88 44.9 222.16 45.72"/><polygon class="cls-2" points="224.62 49.93 223.8 49.65 223.1 50.17 223.11 49.3 222.4 48.8 223.23 48.54 223.49 47.71 223.99 48.42 224.86 48.41 224.34 49.11 224.62 49.93"/><polygon class="cls-2" points="227.07 53.92 226.25 53.64 225.56 54.16 225.57 53.29 224.86 52.79 225.69 52.53 225.95 51.7 226.45 52.41 227.31 52.4 226.8 53.1 227.07 53.92"/><polygon class="cls-2" points="227.07 59.1 226.25 58.82 225.56 59.34 225.57 58.47 224.86 57.97 225.69 57.71 225.95 56.88 226.45 57.59 227.31 57.58 226.8 58.28 227.07 59.1"/><polygon class="cls-2" points="229.53 66.85 228.71 66.57 228.01 67.09 228.02 66.22 227.31 65.72 228.14 65.46 228.4 64.64 228.9 65.34 229.77 65.33 229.25 66.03 229.53 66.85"/><polygon class="cls-2" points="225.3 42.81 224.48 42.53 223.79 43.05 223.8 42.18 223.09 41.68 223.92 41.42 224.18 40.59 224.68 41.3 225.54 41.29 225.03 41.98 225.3 42.81"/><polygon class="cls-2" points="228.3 48.18 227.48 47.9 226.78 48.42 226.8 47.55 226.09 47.05 226.92 46.79 227.17 45.96 227.68 46.67 228.54 46.66 228.02 47.36 228.3 48.18"/><polygon class="cls-2" points="230.55 63.15 229.69 63.27 229.3 64.05 228.92 63.27 228.06 63.13 228.69 62.53 228.55 61.68 229.31 62.09 230.08 61.69 229.93 62.54 230.55 63.15"/><polygon class="cls-2" points="234.51 62.66 233.69 62.38 232.99 62.9 233 62.04 232.3 61.53 233.13 61.28 233.38 60.45 233.88 61.16 234.75 61.15 234.23 61.84 234.51 62.66"/><polygon class="cls-2" points="231.44 58.29 230.62 58.01 229.92 58.53 229.93 57.66 229.22 57.16 230.05 56.91 230.31 56.08 230.81 56.78 231.68 56.77 231.16 57.47 231.44 58.29"/><polygon class="cls-2" points="230.21 52.69 229.39 52.41 228.69 52.93 228.71 52.06 228 51.56 228.83 51.31 229.08 50.48 229.59 51.19 230.45 51.17 229.93 51.87 230.21 52.69"/><polygon class="cls-2" points="234.51 55.15 233.69 54.87 232.99 55.39 233 54.52 232.3 54.02 233.13 53.76 233.38 52.93 233.88 53.64 234.75 53.63 234.23 54.33 234.51 55.15"/><polygon class="cls-2" points="238.46 60.33 237.64 60.05 236.94 60.57 236.95 59.7 236.24 59.2 237.07 58.94 237.33 58.11 237.83 58.82 238.7 58.81 238.18 59.5 238.46 60.33"/><polygon class="cls-2" points="233.9 68.08 233.07 67.8 232.38 68.32 232.39 67.45 231.68 66.95 232.51 66.69 232.77 65.86 233.27 66.57 234.13 66.56 233.62 67.25 233.9 68.08"/><polygon class="cls-2" points="238.46 65.08 237.64 64.8 236.94 65.32 236.95 64.45 236.24 63.95 237.07 63.69 237.33 62.86 237.83 63.57 238.7 63.56 238.18 64.25 238.46 65.08"/><polygon class="cls-2" points="239.01 69.31 238.19 69.03 237.49 69.55 237.5 68.68 236.79 68.18 237.62 67.92 237.88 67.09 238.38 67.8 239.25 67.79 238.73 68.48 239.01 69.31"/><polygon class="cls-2" points="233.9 50.52 233.07 50.24 232.38 50.76 232.39 49.89 231.68 49.39 232.51 49.13 232.77 48.3 233.27 49.01 234.13 49 233.62 49.69 233.9 50.52"/><polygon class="cls-2" points="239.01 55.58 238.19 55.3 237.49 55.82 237.5 54.95 236.79 54.45 237.62 54.19 237.88 53.36 238.38 54.07 239.25 54.06 238.73 54.75 239.01 55.58"/><polygon class="cls-2" points="232.67 46.95 231.84 46.67 231.15 47.19 231.16 46.32 230.45 45.82 231.28 45.56 231.54 44.74 232.04 45.45 232.91 45.43 232.39 46.13 232.67 46.95"/><polygon class="cls-2" points="238.46 51.74 237.64 51.46 236.94 51.98 236.95 51.12 236.24 50.61 237.07 50.36 237.33 49.53 237.83 50.24 238.7 50.23 238.18 50.92 238.46 51.74"/><polygon class="cls-2" points="229.06 44.03 228.24 43.76 227.55 44.27 227.56 43.41 226.85 42.91 227.68 42.65 227.94 41.82 228.44 42.53 229.3 42.52 228.78 43.21 229.06 44.03"/><polygon class="cls-2" points="237.78 46.49 236.96 46.21 236.26 46.73 236.27 45.86 235.56 45.36 236.39 45.1 236.65 44.27 237.15 44.98 238.02 44.97 237.5 45.67 237.78 46.49"/><polygon class="cls-2" points="210.69 47.72 209.87 47.44 209.18 47.96 209.19 47.09 208.48 46.59 209.31 46.33 209.57 45.5 210.07 46.21 210.94 46.2 210.42 46.89 210.69 47.72"/><polygon class="cls-2" points="215.5 45.72 214.68 45.45 213.98 45.96 213.99 45.1 213.28 44.59 214.11 44.34 214.37 43.51 214.87 44.22 215.74 44.21 215.22 44.9 215.5 45.72"/><polygon class="cls-2" points="209.88 53.92 209.06 53.64 208.36 54.16 208.37 53.29 207.66 52.79 208.49 52.53 208.75 51.7 209.25 52.41 210.12 52.4 209.6 53.1 209.88 53.92"/><polygon class="cls-2" points="209.47 61.71 208.65 61.44 207.95 61.95 207.96 61.09 207.25 60.59 208.08 60.33 208.34 59.5 208.84 60.21 209.71 60.2 209.19 60.89 209.47 61.71"/><polygon class="cls-2" points="211.92 57.87 211.1 57.59 210.41 58.11 210.42 57.24 209.71 56.74 210.54 56.48 210.79 55.66 211.29 56.36 212.16 56.35 211.64 57.05 211.92 57.87"/><polygon class="cls-2" points="213.56 51.46 212.74 51.19 212.04 51.7 212.05 50.84 211.35 50.34 212.17 50.08 212.43 49.25 212.93 49.96 213.8 49.95 213.28 50.64 213.56 51.46"/><polygon class="cls-2" points="218.33 42.09 217.51 41.81 216.82 42.33 216.83 41.47 216.12 40.96 216.95 40.71 217.21 39.88 217.71 40.59 218.57 40.58 218.06 41.27 218.33 42.09"/><polygon class="cls-2" points="218.33 50.24 217.51 49.96 216.82 50.48 216.83 49.61 216.12 49.11 216.95 48.85 217.21 48.02 217.71 48.73 218.57 48.72 218.06 49.41 218.33 50.24"/><polygon class="cls-2" points="220.94 53.92 220.12 53.64 219.42 54.16 219.43 53.29 218.72 52.79 219.55 52.53 219.81 51.7 220.31 52.41 221.18 52.4 220.66 53.1 220.94 53.92"/><polygon class="cls-2" points="216.02 55.15 215.19 54.87 214.5 55.39 214.51 54.52 213.8 54.02 214.63 53.76 214.89 52.93 215.39 53.64 216.26 53.63 215.74 54.33 216.02 55.15"/><polygon class="cls-2" points="206.09 55.66 205.27 55.38 204.58 55.9 204.59 55.03 203.88 54.53 204.71 54.27 204.97 53.45 205.47 54.15 206.34 54.14 205.82 54.84 206.09 55.66"/><polygon class="cls-2" points="211.1 65.08 210.28 64.8 209.59 65.32 209.6 64.45 208.89 63.95 209.72 63.69 209.98 62.86 210.48 63.57 211.35 63.56 210.83 64.25 211.1 65.08"/><polygon class="cls-2" points="217.24 58.88 216.42 58.6 215.73 59.12 215.74 58.26 215.03 57.76 215.86 57.5 216.12 56.67 216.62 57.38 217.48 57.37 216.97 58.06 217.24 58.88"/><polygon class="cls-2" points="215.5 65.08 214.68 64.8 213.98 65.32 213.99 64.45 213.28 63.95 214.11 63.69 214.37 62.86 214.87 63.57 215.74 63.56 215.22 64.25 215.5 65.08"/><polygon class="cls-2" points="218.47 62.62 217.65 62.34 216.95 62.86 216.97 61.99 216.26 61.49 217.09 61.23 217.34 60.41 217.84 61.11 218.71 61.1 218.19 61.8 218.47 62.62"/><polygon class="cls-2" points="221.62 65.63 220.8 65.35 220.1 65.87 220.12 65 219.41 64.5 220.24 64.24 220.49 63.41 220.99 64.12 221.86 64.11 221.34 64.81 221.62 65.63"/><polygon class="cls-2" points="212.33 42.81 211.51 42.53 210.81 43.05 210.83 42.18 210.12 41.68 210.95 41.42 211.2 40.59 211.71 41.3 212.57 41.29 212.05 41.98 212.33 42.81"/><polygon class="cls-2" points="206.76 45.02 205.94 44.74 205.24 45.26 205.25 44.39 204.54 43.89 205.37 43.63 205.63 42.8 206.13 43.51 207 43.5 206.48 44.2 206.76 45.02"/><polygon class="cls-2" points="201.51 55.66 200.69 55.38 200 55.9 200.01 55.03 199.3 54.53 200.13 54.27 200.39 53.45 200.89 54.15 201.75 54.14 201.24 54.84 201.51 55.66"/><polygon class="cls-2" points="206.09 50.24 205.27 49.96 204.58 50.48 204.59 49.61 203.88 49.11 204.71 48.85 204.97 48.02 205.47 48.73 206.34 48.72 205.82 49.41 206.09 50.24"/><polygon class="cls-2" points="204.87 60.16 204.04 59.89 203.35 60.41 203.36 59.54 202.65 59.04 203.48 58.78 203.74 57.95 204.24 58.66 205.11 58.65 204.59 59.34 204.87 60.16"/><polygon class="cls-2" points="202.41 63.22 201.59 62.94 200.89 63.46 200.91 62.59 200.2 62.09 201.03 61.83 201.28 61 201.78 61.71 202.65 61.7 202.13 62.4 202.41 63.22"/><polygon class="cls-2" points="206.76 66.3 205.94 66.03 205.24 66.54 205.25 65.68 204.54 65.17 205.37 64.92 205.63 64.09 206.13 64.8 207 64.79 206.48 65.48 206.76 66.3"/><polygon class="cls-2" points="202.41 68.08 201.59 67.8 200.89 68.32 200.91 67.45 200.2 66.95 201.03 66.69 201.28 65.86 201.78 66.57 202.65 66.56 202.13 67.25 202.41 68.08"/><path class="cls-2" d="M304.37,61.63A86.16,86.16,0,0,1,294.25,67a86.83,86.83,0,0,1-21.36,6.54,80.12,80.12,0,0,1-26.69.06c-2.4-.44-4.39-.92-5.81-1.3v-7c1.51.44,2.19.63,2.81.76l1,.17a102.49,102.49,0,0,0,17.44.83,72.94,72.94,0,0,0,14.12-1.83,71.58,71.58,0,0,0,10.37-3.4,108.11,108.11,0,0,0,18-9.15Z"/><path class="cls-2" d="M303.94,46.15A111,111,0,0,1,292.51,52a93.33,93.33,0,0,1-20.22,6.74A79.28,79.28,0,0,1,246,60.2c-1.09-.13-3-.52-5.83-1.2l-.12-7c.67.18,1.65.43,2.82.71,3.34.82,6,1.4,6.69,1.53,5.56,1.12,12.62.3,15.23,0A77.49,77.49,0,0,0,278,51.49a96.59,96.59,0,0,0,11.85-4.36A117.66,117.66,0,0,0,303.73,40Z"/></g></g></svg>