<svg xmlns="http://www.w3.org/2000/svg" viewBox="0 0 134.83 134.83"><defs><style>.cls-1{fill:#312783;}.cls-2{fill:#1d71b8;}.cls-3{fill:#5c7a92;}.cls-4,.cls-5{fill:#91bee7;}.cls-5{opacity:0.5;}</style></defs><title>neptun</title><g id="Layer_2" data-name="Layer 2"><g id="Layer_1-2" data-name="Layer 1"><path class="cls-1" d="M135.08,67.67a68,68,0,0,1-1.21,12.77A253.57,253.57,0,0,0,.53,73.76c-.19-2-.28-4-.28-6.09A67.09,67.09,0,0,1,9.51,33.54h0a56.23,56.23,0,0,1,20-1.61C40.73,33.1,43.73,37,56,39.36c2.89.54,10.76,1.85,37.92-2.13,8.3-1.21,18.71-3,30.75-5.55A67.08,67.08,0,0,1,135.08,67.67Z" transform="translate(-0.25 -0.25)"/><path class="cls-2" d="M133.87,80.44c-.3,1.6-.67,3.18-1.09,4.74A286.54,286.54,0,0,0,1,77.93c-.22-1.38-.38-2.77-.5-4.17a253.57,253.57,0,0,1,133.34,6.68Z" transform="translate(-0.25 -0.25)"/><path class="cls-1" d="M132.78,85.18a67,67,0,0,1-6.46,15.75,203.78,203.78,0,0,1-38.75-2.48C59.89,94,47,85.85,25.25,88.91a76,76,0,0,0-19.49,5.5A66.2,66.2,0,0,1,1,77.93a286.54,286.54,0,0,1,131.75,7.25Z" transform="translate(-0.25 -0.25)"/><path class="cls-2" d="M87.57,98.45a203.78,203.78,0,0,0,38.75,2.48,67.18,67.18,0,0,1-9.42,12.77,292.48,292.48,0,0,0-67.25-7.52,288.65,288.65,0,0,0-35.58,2.39A66.61,66.61,0,0,1,5.76,94.41a76,76,0,0,1,19.49-5.5C47,85.85,59.89,94,87.57,98.45Z" transform="translate(-0.25 -0.25)"/><path class="cls-2" d="M113.51,18.24a67.66,67.66,0,0,1,11.17,13.44c-12,2.59-22.45,4.34-30.75,5.55-27.16,4-35,2.67-37.92,2.13C43.73,37,40.73,33.1,29.49,31.93a56.23,56.23,0,0,0-20,1.61,67.45,67.45,0,0,1,11-14,287.37,287.37,0,0,0,48.27,3.13A286.14,286.14,0,0,0,113.51,18.24Z" transform="translate(-0.25 -0.25)"/><path class="cls-1" d="M116.9,113.7a67.41,67.41,0,0,1-102.83-5.13,288.65,288.65,0,0,1,35.58-2.39A292.48,292.48,0,0,1,116.9,113.7Z" transform="translate(-0.25 -0.25)"/><path class="cls-1" d="M113.51,18.24a286.14,286.14,0,0,1-44.77,4.41,287.37,287.37,0,0,1-48.27-3.13,67.42,67.42,0,0,1,93-1.28Z" transform="translate(-0.25 -0.25)"/><ellipse class="cls-3" cx="23.71" cy="33.82" rx="9.89" ry="5.93"/><ellipse class="cls-4" cx="33.6" cy="49.04" rx="4.95" ry="2.97"/><ellipse class="cls-4" cx="15.39" cy="52.71" rx="6.13" ry="3.67"/><ellipse class="cls-4" cx="44.88" cy="87.99" rx="7.7" ry="4.62"/><ellipse class="cls-3" cx="25.7" cy="97.22" rx="4.74" ry="2.85"/><ellipse class="cls-4" cx="49.13" cy="109.69" rx="14.3" ry="7.99"/><ellipse class="cls-3" cx="116.65" cy="41.49" rx="4.95" ry="2.97"/><ellipse class="cls-4" cx="102.54" cy="49.04" rx="6.13" ry="3.67"/><ellipse class="cls-4" cx="120.46" cy="58.65" rx="9.89" ry="5.93"/><path class="cls-5" d="M114.94,54.24c.08-.41.18-1,.27-1.78.77-6.82-1.42-14-4.78-18.37-7.35-9.45-25.21-11.41-31-4.51-3.94,4.68-.77,13.2,5.57,30.23,4.59,12.33,7.58,15,10.08,16.44,5.46,3.22,14.83,4.5,19.36-.79,2.82-3.29,2.58-7.76,2.38-9.55" transform="translate(-0.25 -0.25)"/><ellipse class="cls-3" cx="97.59" cy="92.61" rx="24.01" ry="9.71"/></g></g></svg>