<svg xmlns="http://www.w3.org/2000/svg" viewBox="0 0 248.85 299.27"><defs><style>.cls-1{fill:#575756;}.cls-2,.cls-6{fill:none;stroke-miterlimit:10;}.cls-2{stroke:#3c3c3b;}.cls-3{fill:#1d1d1b;}.cls-4,.cls-8{fill:#fff;}.cls-5{fill:#b2b2b2;}.cls-6{stroke:#575756;stroke-width:0.25px;}.cls-7{fill:#f2f2f2;}.cls-7,.cls-8{opacity:0.5;}.cls-9{fill:#009fe3;}.cls-10{fill:#78cdf4;}</style></defs><title>robotlogo</title><g id="Layer_2" data-name="Layer 2"><g id="Layer_1-2" data-name="Layer 1"><rect class="cls-1" x="81.64" y="280.69" width="31.89" height="18.58"/><rect class="cls-1" x="133.32" y="280.69" width="31.89" height="18.58"/><line class="cls-2" x1="240.92" y1="139.56" x2="216.2" y2="139.56"/><path class="cls-3" d="M181.58,118.89a28.72,28.72,0,1,1-28.71,28.72A28.82,28.82,0,0,1,181.58,118.89Z"/><path class="cls-4" d="M194.86,108.22v0h-39.5a40.57,40.57,0,0,1,19.75-5.14A41.08,41.08,0,0,1,194.86,108.22Z"/><path class="cls-5" d="M194.86,73.31v34.91a41.08,41.08,0,0,0-19.75-5.09,40.57,40.57,0,0,0-19.75,5.14l-62.8,0a41.08,41.08,0,0,0-19.75-5.09,40.2,40.2,0,0,0-19.64,5.09h-.11V73.31h141.8Z"/><rect class="cls-1" x="174.34" y="227.61" width="18.59" height="31.87"/><path class="cls-4" d="M175.11,185.29a40.64,40.64,0,0,1-19.75-5.15h39.5v.06A41.08,41.08,0,0,1,175.11,185.29Z"/><rect class="cls-1" x="132.9" y="54.72" width="31.87" height="18.59"/><path class="cls-4" d="M181.58,118.89a28.72,28.72,0,1,0,28.66,28.72A28.84,28.84,0,0,0,181.58,118.89Zm13.28,61.25h-39.5a41,41,0,0,1,0-71.87h39.5a40.91,40.91,0,0,1,0,71.87Z"/><path class="cls-5" d="M92.56,108.22l62.8,0a41.1,41.1,0,0,0-21.3,35.91H113.92A41.18,41.18,0,0,0,92.56,108.22Z"/><path class="cls-5" d="M134.06,144.18a41.11,41.11,0,0,0,21.3,36l-50.73.06H92.56a41.21,41.21,0,0,0,21.36-36Z"/><path class="cls-5" d="M104.63,180.2l50.73-.06a40.64,40.64,0,0,0,19.75,5.15,41.08,41.08,0,0,0,19.75-5.09v34.91H174.34v-1.05H127.53V200.67a15.53,15.53,0,0,0,7.19-1.61c4.93-2.43,7.42-7.19,8.58-10.23l-38.67-1.55Z"/><polygon class="cls-5" points="123.27 215.11 174.34 215.11 174.34 227.61 174.34 259.48 174.34 284.32 123.11 284.32 123.33 216.21 123.27 216.1 123.27 215.11"/><polygon class="cls-5" points="72.04 215.11 123.27 215.11 123.27 216.1 123.33 216.21 123.11 284.32 72.04 284.32 72.04 259.48 72.37 259.48 72.37 227.61 72.04 227.61 72.04 215.11"/><polygon class="cls-5" points="123.27 215.11 72.04 215.11 72.04 214.06 127.53 214.06 174.34 214.06 174.34 215.11 123.27 215.11"/><path class="cls-4" d="M143.3,188.83c-1.16,3-3.65,7.8-8.58,10.23a15.53,15.53,0,0,1-7.19,1.61,21.87,21.87,0,0,1-7.91-1.55,33.24,33.24,0,0,1-15-11.84Z"/><rect class="cls-1" x="81.22" y="54.72" width="31.87" height="18.59"/><path class="cls-3" d="M78.68,118.89A28.72,28.72,0,1,1,50,147.61,28.83,28.83,0,0,1,78.68,118.89Z"/><path class="cls-4" d="M72.81,103.13a41.08,41.08,0,0,1,19.75,5.09H53.17A40.2,40.2,0,0,1,72.81,103.13Z"/><rect class="cls-1" x="72.04" y="227.61" width="0.33" height="31.87"/><rect class="cls-1" x="53.78" y="227.61" width="18.26" height="31.87"/><path class="cls-4" d="M92.56,180.2a41.08,41.08,0,0,1-19.75,5.09,40.14,40.14,0,0,1-19.64-5.09Z"/><path class="cls-4" d="M50,147.61a28.69,28.69,0,1,0,28.66-28.72A28.85,28.85,0,0,0,50,147.61Zm3.15-39.39H92.56a41,41,0,0,1,0,72H53.12a41,41,0,0,1,.05-72Z"/><path class="cls-5" d="M127.53,214.06H72v1.05h-19V180.2h.11a40.14,40.14,0,0,0,19.64,5.09,41.08,41.08,0,0,0,19.75-5.09h12.07v7.08a33.24,33.24,0,0,0,15,11.84,21.87,21.87,0,0,0,7.91,1.55Z"/><polyline class="cls-6" points="123.11 284.32 123.33 216.21 123.27 216.1"/><line class="cls-2" x1="31.76" y1="144.18" x2="7.03" y2="144.18"/><path class="cls-2" d="M113.92,144.18a41.2,41.2,0,0,1-41.11,41.11,40.14,40.14,0,0,1-19.64-5.09h-.05a41,41,0,0,1,.05-72,40.2,40.2,0,0,1,19.64-5.09,41.2,41.2,0,0,1,41.11,41.05Z"/><path class="cls-2" d="M194.86,180.2a41.08,41.08,0,0,1-19.75,5.09,40.64,40.64,0,0,1-19.75-5.15,41,41,0,0,1,0-71.87,40.57,40.57,0,0,1,19.75-5.14,41.08,41.08,0,0,1,19.75,5.09"/><path class="cls-2" d="M194.86,108.27a40.91,40.91,0,0,1,0,71.87"/><polyline class="cls-2" points="136.33 144.18 134.06 144.18 113.92 144.18 111.6 144.18"/><ellipse class="cls-7" cx="124.42" cy="119.39" rx="124.42" ry="119.39"/><ellipse class="cls-8" cx="177.36" cy="87.17" rx="46" ry="71.48" transform="translate(-18.5 113.53) rotate(-33.84)"/><circle class="cls-1" cx="123.98" cy="255.89" r="12.36"/><ellipse class="cls-9" cx="123.98" cy="255.89" rx="10.77" ry="10.87"/><circle class="cls-10" cx="119.85" cy="248.87" r="2.31"/><circle class="cls-10" cx="117.18" cy="253.32" r="1.23"/><circle class="cls-10" cx="130.5" cy="261.3" r="1.97"/></g></g></svg>