<svg xmlns="http://www.w3.org/2000/svg" viewBox="0 0 218.06 134.83"><defs><style>.cls-1,.cls-2{fill:#c6c6c6;}.cls-2{opacity:0.5;}.cls-3{fill:#fff7a9;}.cls-4{fill:#f9b233;}</style></defs><title>saturn</title><g id="Layer_2" data-name="Layer 2"><g id="Layer_1-2" data-name="Layer 1"><path class="cls-1" d="M155.93,21.39C194.07,34.56,219.52,53.91,218,70.76,216.53,55.18,193.41,38,159.41,25.63Z"/><path class="cls-1" d="M218,70.8a16,16,0,0,1-.21,4.48c-2.59,13.69-23,24.23-52.12,27.79l-1.9.22.72-1.18c.41-.67.8-1.35,1.18-2,29.14-3.56,49.53-14.1,52.12-27.79A14.64,14.64,0,0,0,218,70.8Z"/><path class="cls-2" d="M218,70.76v0a14.64,14.64,0,0,1-.21,1.48c-2.59,13.69-23,24.23-52.12,27.79A67.08,67.08,0,0,0,170.56,89c19.63-3,32.85-10,34.78-20.24,2.57-13.53-15.39-29.12-44-40.76l-1.94-2.35C193.41,38,216.53,55.18,218,70.76Z"/><path class="cls-1" d="M163,30.36c22.06,10,35.47,22.72,33.36,33.83-1.48,7.82-10.39,14.33-24,18.35A67.45,67.45,0,0,0,174,71.08c5.57-3.13,9.09-7,9.92-11.37,1.41-7.42-5.26-15.65-17.21-23-.6-1.18-1.24-2.35-1.91-3.49h0C164.2,32.25,163.61,31.3,163,30.36Z"/><path class="cls-3" d="M174.08,67.42c0,1.23,0,2.45-.1,3.66-6.14,3.46-14.77,6-25,7.25a142.83,142.83,0,0,1-43.09-1.82A146.48,146.48,0,0,1,64.65,62.37C55,57.2,47.4,51.37,42.84,45.64a67.49,67.49,0,0,1,6.07-13A166.08,166.08,0,0,0,101.6,55.2a167.7,167.7,0,0,0,71.54,1A67.36,67.36,0,0,1,174.08,67.42Z"/><path class="cls-1" d="M149,78.33c10.24-1.25,18.87-3.79,25-7.25a67.45,67.45,0,0,1-1.6,11.46,103.22,103.22,0,0,1-16.8,3.38,164,164,0,0,1-46-1.36c-1.42-.24-2.84-.49-4.26-.76A171,171,0,0,1,57.17,67.3a104.23,104.23,0,0,1-17-11.12,66.09,66.09,0,0,1,2.65-10.54C47.4,51.37,55,57.2,64.65,62.37a146.48,146.48,0,0,0,41.23,14.14A142.83,142.83,0,0,0,149,78.33Z"/><path class="cls-4" d="M171.22,47.94a65.92,65.92,0,0,1,1.92,8.22,167.7,167.7,0,0,1-71.54-1A166.08,166.08,0,0,1,48.91,32.62a67.67,67.67,0,0,1,4.64-6.74,165.89,165.89,0,0,0,49.37,20.48A167.57,167.57,0,0,0,171.22,47.94Z"/><path class="cls-3" d="M172.38,82.54A65.93,65.93,0,0,1,170.56,89c-16.82,2.59-38.34,2.22-61.5-1.63l.48-2.79a164,164,0,0,0,46,1.36A103.22,103.22,0,0,0,172.38,82.54Z"/><path class="cls-3" d="M168.12,39.67a65.61,65.61,0,0,1,3.1,8.27,167.57,167.57,0,0,1-68.3-1.58A165.89,165.89,0,0,1,53.55,25.88,71,71,0,0,1,60,18.77a150.48,150.48,0,0,0,47.45,19.81A150.47,150.47,0,0,0,168.12,39.67Z"/><path class="cls-4" d="M166.69,36.71c.5,1,1,2,1.43,3a150.47,150.47,0,0,1-60.69-1.09A150.48,150.48,0,0,1,60,18.77c.57-.54,1.14-1.07,1.73-1.6a97,97,0,0,1,9.62-1.3,165,165,0,0,0,37.83,14,165.62,165.62,0,0,0,52,3.74Q164.08,35.1,166.69,36.71Z"/><path class="cls-2" d="M170.56,89a67.08,67.08,0,0,1-4.9,11.09c-18.65,2.29-40.88,1.71-64.31-2.72S56.7,85.27,39.83,76.26a67.77,67.77,0,0,1-.58-8.84c0-1.14,0-2.28.09-3.41,15.95,9.35,38.43,17.49,64,22.32q2.9.56,5.76,1C132.22,91.2,153.74,91.57,170.56,89Z"/><path class="cls-4" d="M164.78,33.22c.67,1.14,1.31,2.31,1.91,3.49q-2.61-1.6-5.55-3.14c1.23-.1,2.44-.22,3.63-.35Z"/><path class="cls-1" d="M165.66,100.07c-.38.69-.77,1.37-1.18,2-2.56.63-5.36,1.26-8.37,1.85a219.19,219.19,0,0,1-54.76-3.61C78.14,96,57.13,88.42,40.34,79.53q-.3-1.62-.51-3.27c16.87,9,38.07,16.66,61.52,21.09S147,102.36,165.66,100.07Z"/><path class="cls-1" d="M164.48,102.11l-.72,1.18q-3.73.42-7.65.67C159.12,103.37,161.92,102.74,164.48,102.11Z"/><path class="cls-3" d="M163,30.36c.63.94,1.22,1.89,1.79,2.86-1.19.13-2.4.25-3.63.35a134.25,134.25,0,0,0-18.69-8l.21-1.13L154,26.61C157.16,27.8,160.14,29.06,163,30.36Z"/><path class="cls-3" d="M161.35,28c.56.78,1.11,1.57,1.63,2.38-2.84-1.3-5.82-2.56-8.94-3.75Z"/><path class="cls-3" d="M159.41,25.63,161.35,28,154,26.61l-11.38-2.14L85.05,13.63c.63-.33,1.26-.65,1.9-1q-4.12-.19-8.07-.21l-5.06-1q2-1.11,4.09-2.1c-1.79-.09-3.56-.15-5.31-.19,1.72-1,3.49-1.95,5.31-2.81a282.16,282.16,0,0,1,38.81,4.66,278.61,278.61,0,0,1,39.21,10.31Z"/><path class="cls-4" d="M44.77,94.16a63.93,63.93,0,0,1-3.08-8.72,165.33,165.33,0,0,0,44.06,17.33A167.6,167.6,0,0,0,156.11,104q3.91-.25,7.65-.67a68.89,68.89,0,0,1-5.69,7.75h0a167.59,167.59,0,0,1-72.31-.8A165.61,165.61,0,0,1,45,94.77C44.94,94.57,44.85,94.36,44.77,94.16Z"/><path class="cls-3" d="M158.06,111a67,67,0,0,1-9.45,9.15,167.28,167.28,0,0,1-68.2-1.59,164.47,164.47,0,0,1-25.82-8.37h0A67.19,67.19,0,0,1,45,94.77a165.61,165.61,0,0,0,40.72,15.47A167.59,167.59,0,0,0,158.06,111Z"/><path class="cls-3" d="M82,15.4c1-.63,2-1.22,3.1-1.77l57.61,10.84-.21,1.13a134.25,134.25,0,0,1,18.69,8,165.62,165.62,0,0,1-52-3.74,165,165,0,0,1-37.83-14C74.69,15.57,78.25,15.41,82,15.4Z"/><path class="cls-3" d="M101.35,100.35A219.19,219.19,0,0,0,156.11,104a167.6,167.6,0,0,1-70.36-1.19A165.33,165.33,0,0,1,41.69,85.44c-.54-1.93-1-3.91-1.35-5.91C57.13,88.42,78.14,96,101.35,100.35Z"/><path class="cls-3" d="M155.93,21.39a278.61,278.61,0,0,0-39.21-10.31A282.16,282.16,0,0,0,77.91,6.42a67.49,67.49,0,0,1,78,15Z"/><path class="cls-4" d="M148.61,120.19A65.88,65.88,0,0,1,136.29,128a165.69,165.69,0,0,1-55.88-3.36C74.8,123.3,69.5,121.74,64.52,120h0a67.58,67.58,0,0,1-9.92-9.8,164.47,164.47,0,0,0,25.82,8.37A167.28,167.28,0,0,0,148.61,120.19Z"/><path class="cls-3" d="M136.29,128a67.44,67.44,0,0,1-71.77-8c5,1.71,10.28,3.27,15.89,4.59A165.69,165.69,0,0,0,136.29,128Z"/><path class="cls-3" d="M109.54,84.56l-.48,2.79q-2.86-.46-5.76-1c-25.53-4.83-48-13-64-22.32a65.1,65.1,0,0,1,.85-7.83,104.23,104.23,0,0,0,17,11.12,171,171,0,0,0,48.11,16.5C106.7,84.07,108.12,84.32,109.54,84.56Z"/><path class="cls-3" d="M87,12.68c-.64.3-1.27.62-1.9,1l-6.17-1.16Q82.83,12.49,87,12.68Z"/><path class="cls-3" d="M72,12.59q3.38-.13,6.91-.12l6.17,1.16C84,14.18,83,14.77,82,15.4c-3.7,0-7.26.17-10.62.47-1.68-.87-3.3-1.73-4.85-2.6l.57-.41Q69.47,12.68,72,12.59Z"/><path class="cls-3" d="M78.88,12.47q-3.54,0-6.91.12l1.85-1.07Z"/><path class="cls-3" d="M72.6,9.23c1.75,0,3.52.1,5.31.19q-2.09,1-4.09,2.1L70,10.81C70.88,10.26,71.73,9.73,72.6,9.23Z"/><path class="cls-1" d="M77.91,6.42c-1.82.86-3.59,1.79-5.31,2.81C33,8.22,3.43,17.47.28,34.14a12.92,12.92,0,0,0-.21,1.52,16.61,16.61,0,0,1,.21-4.52C3.57,13.73,35.66,4.42,77.91,6.42Z"/><path class="cls-3" d="M73.82,11.52,72,12.59q-2.5.09-4.92.27c1-.71,2-1.4,3-2Z"/><path class="cls-2" d="M72.6,9.23c-.87.5-1.72,1-2.56,1.58-30.6.49-52.78,8.42-55.32,21.87C12.8,42.81,22.4,54.1,39.34,64c-.06,1.13-.09,2.27-.09,3.41a67.77,67.77,0,0,0,.58,8.84C16.31,63.71,1.2,48.51.07,35.66a12.92,12.92,0,0,1,.21-1.52C3.43,17.47,33,8.22,72.6,9.23Z"/><path class="cls-4" d="M66.48,13.27c1.55.87,3.17,1.73,4.85,2.6a97,97,0,0,0-9.62,1.3Q64,15.12,66.48,13.27Z"/><path class="cls-1" d="M67.05,12.86l-.57.41q-2.48,1.85-4.77,3.9c-13.33,2.54-22.19,7.7-23.56,15-.79,4.14.94,8.78,4.69,13.5a66.09,66.09,0,0,0-2.65,10.54C30.15,47.94,24.86,39.3,26.24,32,28.26,21.3,44.23,14.51,67.05,12.86Z"/><path class="cls-1" d="M40.34,79.53l-.51-.27C14.46,65.72-1.14,49.09.07,35.66,1.2,48.51,16.31,63.71,39.83,76.26Q40,77.91,40.34,79.53Z"/></g></g></svg>