<svg xmlns="http://www.w3.org/2000/svg" viewBox="0 0 1065 1065"><defs><style>.cls-1{fill:#29011c;}.cls-2{fill:#fff;}.cls-3{fill:#ef403d;}.cls-4{fill:#f9921b;}.cls-5{fill:#f9eb30;}.cls-6{fill:#dbdbdb;}.cls-7{fill:#7d8b94;}.cls-8{fill:#c20106;}.cls-9{fill:#687681;}.cls-10{fill:#dde5e8;}.cls-11{fill:#8dd0ed;}</style></defs><title>spaceship</title><g id="Layer_2" data-name="Layer 2"><g id="Layer_1-2" data-name="Layer 1"><circle class="cls-1" cx="532.5" cy="532.5" r="532.5"/><polygon class="cls-2" points="255.8 181.61 250.25 179.82 245.63 183.38 245.62 177.55 240.81 174.26 246.35 172.44 247.99 166.85 251.43 171.56 257.26 171.39 253.85 176.12 255.8 181.61"/><polygon class="cls-2" points="387.17 98.01 381.62 96.22 377 99.78 376.99 93.95 372.17 90.66 377.71 88.84 379.36 83.24 382.8 87.95 388.63 87.79 385.21 92.51 387.17 98.01"/><polygon class="cls-2" points="732.17 949.01 726.62 947.22 722 950.78 721.99 944.95 717.17 941.65 722.71 939.84 724.36 934.24 727.8 938.95 733.63 938.79 730.21 943.51 732.17 949.01"/><polygon class="cls-2" points="385.17 965.01 379.62 963.22 375 966.78 374.99 960.95 370.17 957.65 375.71 955.84 377.36 950.24 380.8 954.95 386.63 954.79 383.21 959.51 385.17 965.01"/><polygon class="cls-2" points="560.17 957.01 554.62 955.22 550 958.78 549.99 952.95 545.17 949.65 550.71 947.84 552.36 942.24 555.8 946.95 561.63 946.79 558.21 951.51 560.17 957.01"/><polygon class="cls-2" points="426.17 857.01 420.62 855.22 416 858.78 415.99 852.95 411.17 849.65 416.71 847.84 418.36 842.24 421.8 846.95 427.63 846.79 424.21 851.51 426.17 857.01"/><polygon class="cls-2" points="725.17 862.01 719.62 860.22 715 863.78 714.99 857.95 710.17 854.65 715.71 852.84 717.36 847.24 720.8 851.95 726.63 851.79 723.21 856.51 725.17 862.01"/><polygon class="cls-2" points="921.17 723.01 915.62 721.22 911 724.78 910.99 718.95 906.17 715.65 911.71 713.84 913.36 708.24 916.8 712.95 922.63 712.79 919.21 717.51 921.17 723.01"/><polygon class="cls-2" points="940.17 371.01 934.62 369.22 930 372.78 929.99 366.95 925.17 363.65 930.71 361.84 932.36 356.24 935.8 360.95 941.63 360.79 938.21 365.51 940.17 371.01"/><polygon class="cls-2" points="916.17 568.01 910.62 566.22 906 569.78 905.99 563.95 901.17 560.65 906.71 558.84 908.36 553.24 911.8 557.95 917.63 557.79 914.21 562.51 916.17 568.01"/><polygon class="cls-2" points="638.17 672.01 632.62 670.22 628 673.78 627.99 667.95 623.17 664.65 628.71 662.84 630.36 657.24 633.8 661.95 639.63 661.79 636.21 666.51 638.17 672.01"/><polygon class="cls-2" points="418.17 763.01 412.62 761.22 408 764.78 407.99 758.95 403.17 755.65 408.71 753.84 410.36 748.24 413.8 752.95 419.63 752.79 416.21 757.51 418.17 763.01"/><polygon class="cls-2" points="416.17 203.01 410.62 201.22 406 204.78 405.99 198.95 401.17 195.66 406.71 193.84 408.36 188.24 411.8 192.95 417.63 192.79 414.21 197.51 416.17 203.01"/><polygon class="cls-2" points="129.17 666.01 123.62 664.22 119 667.78 118.98 661.95 114.17 658.65 119.71 656.84 121.36 651.24 124.8 655.95 130.63 655.79 127.21 660.51 129.17 666.01"/><polygon class="cls-2" points="332.17 673.01 326.62 671.22 322 674.78 321.99 668.95 317.17 665.65 322.71 663.84 324.36 658.24 327.8 662.95 333.63 662.79 330.21 667.51 332.17 673.01"/><polygon class="cls-2" points="562.17 98.01 556.62 96.22 552 99.78 551.99 93.95 547.17 90.66 552.71 88.84 554.36 83.24 557.8 87.95 563.63 87.79 560.21 92.51 562.17 98.01"/><polygon class="cls-2" points="426.17 379.01 420.62 377.22 416 380.78 415.99 374.95 411.17 371.65 416.71 369.84 418.36 364.24 421.8 368.95 427.63 368.79 424.21 373.51 426.17 379.01"/><polygon class="cls-2" points="273.17 810.01 267.62 808.22 263 811.78 262.99 805.95 258.17 802.65 263.71 800.84 265.36 795.24 268.8 799.95 274.63 799.79 271.21 804.51 273.17 810.01"/><polygon class="cls-2" points="173.17 408.01 167.62 406.22 163 409.78 162.99 403.95 158.17 400.65 163.71 398.84 165.36 393.24 168.8 397.95 174.63 397.79 171.21 402.51 173.17 408.01"/><polygon class="cls-2" points="595.17 272.01 589.62 270.22 585 273.78 584.99 267.95 580.17 264.65 585.71 262.84 587.36 257.24 590.8 261.95 596.63 261.79 593.21 266.51 595.17 272.01"/><polygon class="cls-2" points="570.6 433.98 565.05 432.19 560.43 435.75 560.41 429.92 555.6 426.63 561.14 424.81 562.79 419.22 566.23 423.93 572.06 423.76 568.64 428.49 570.6 433.98"/><polygon class="cls-2" points="570.6 433.98 565.05 432.19 560.43 435.75 560.41 429.92 555.6 426.63 561.14 424.81 562.79 419.22 566.23 423.93 572.06 423.76 568.64 428.49 570.6 433.98"/><polygon class="cls-2" points="570.6 433.98 565.05 432.19 560.43 435.75 560.41 429.92 555.6 426.63 561.14 424.81 562.79 419.22 566.23 423.93 572.06 423.76 568.64 428.49 570.6 433.98"/><polygon class="cls-2" points="570.6 433.98 565.05 432.19 560.43 435.75 560.41 429.92 555.6 426.63 561.14 424.81 562.79 419.22 566.23 423.93 572.06 423.76 568.64 428.49 570.6 433.98"/><polygon class="cls-2" points="777.17 203.98 771.62 202.19 767 205.75 766.99 199.92 762.17 196.63 767.71 194.81 769.36 189.22 772.8 193.93 778.63 193.76 775.21 198.49 777.17 203.98"/><polygon class="cls-2" points="210.17 567.98 204.62 566.2 200 569.75 199.99 563.92 195.17 560.63 200.71 558.81 202.36 553.22 205.8 557.93 211.63 557.76 208.21 562.49 210.17 567.98"/><polygon class="cls-2" points="963.17 465.89 957.62 464.11 953 467.66 952.99 461.83 948.17 458.54 953.71 456.72 955.36 451.13 958.8 455.84 964.63 455.67 961.21 460.4 963.17 465.89"/><polygon class="cls-2" points="753.17 318.89 747.62 317.11 743 320.66 742.99 314.83 738.17 311.54 743.71 309.72 745.36 304.13 748.8 308.84 754.63 308.67 751.21 313.4 753.17 318.89"/><polygon class="cls-2" points="914.74 267.48 909.19 265.69 904.57 269.25 904.56 263.42 899.75 260.13 905.29 258.31 906.93 252.72 910.37 257.43 916.2 257.26 912.79 261.99 914.74 267.48"/><path class="cls-3" d="M692.38,709.67l56.34-51.34A95.84,95.84,0,0,1,776.33,669c18.84,11,29.27,26.13,44.75,55.35,26.76,50.56,23.4,57.78,47.45,103,12,22.58,22.82,39.51,19.61,42.07-2.82,2.24-13.36-9-32.33-22.15C835,832.85,826.71,832,799.16,817.83c-31.18-16-50.9-26.17-68.7-43.88C719.09,762.64,703,742.72,692.38,709.67Z"/><path class="cls-4" d="M697.15,705.4l47.94-43.63a88.76,88.76,0,0,1,28.62,15.74c17.28,14.35,24,31.82,27.69,41.2,11.1,28.14,26.66,63.06,46.71,106.82-28.81-17.62-53.18-30.51-70.58-39.21-26.09-13.06-40.32-18.63-54.76-34.09C707.78,736.18,700.75,718.25,697.15,705.4Z"/><path class="cls-5" d="M704.41,698.52l30-27.39a62.91,62.91,0,0,1,18.54,6.48c19,10.33,26.92,28.17,31.31,37.76,11.24,24.61,26.8,54.67,46.59,92C823.2,802.58,811.22,795,796.39,786c-41-25.14-50.86-29.77-63.11-42.13C724.59,735.05,713.16,720.85,704.41,698.52Z"/><path class="cls-6" d="M665.38,715.73l97.12-79a518.69,518.69,0,0,0-25.91-64.37c-9-18.67-37-73.92-92.61-134.76-30.46-33.33-73.51-80.45-142.92-116.91-99.42-52.24-201-55.37-260.37-52a365.08,365.08,0,0,0,11.62,76.45c20.24,76.88,60.58,127.06,93.11,166.66,74.76,91,157.31,137.32,177.13,148.09A623.31,623.31,0,0,0,665.38,715.73Z"/><path class="cls-7" d="M605.56,698.06c20.23-15.12,41.31-32,62.81-50.71,27.52-24,51.75-47.57,73-70l30,64.8L675,722.37Z"/><path class="cls-8" d="M600.14,566.18a12.81,12.81,0,0,1,5.52-9.1c5.11-3.38,10.94-1.94,11.73-1.73l144.26,138c3.72,1.54,5.72,5,5,8.23a7.38,7.38,0,0,1-5,5.3c-4,1.18-9.3-1.43-11.48-6.94C674,638.51,619,592.78,608.15,582.43,605,579.38,599.22,573.3,600.14,566.18Z"/><path class="cls-8" d="M669.1,475.77c-1.65,3.05,3,7.16,25.52,32.15,8.35,9.27,15,16.85,19.21,21.6,6.78,1.18,16.11,3,27,5.91,8.65,2.28,31.25,8.25,49.74,17.74,35.49,18.24,48.15,45.58,52.39,43.06,3.52-2.08-2.92-22.11-14.2-40.66-4.84-8-29.94-47.51-88.75-69.78C709.53,474.24,673.05,468.49,669.1,475.77Z"/><path class="cls-8" d="M503.42,641.51c3.05-1.69,7.87,2.28,36.5,21,10.63,7,19.31,12.52,24.74,16,1.93,6.06,4.81,14.39,8.94,24.07,3.28,7.68,11.84,27.77,23.72,43.89,22.81,31,52.95,40.64,50.72,44.65-1.85,3.32-23.65-1.21-44.37-10.22-8.9-3.87-53.18-24-82.58-75.84C505.85,678.23,496.12,645.57,503.42,641.51Z"/><path class="cls-8" d="M290.72,437.77a542.46,542.46,0,0,0,108.16-80.24,514,514,0,0,0,52.18-58.27,440,440,0,0,0-99.69-27.77,462.75,462.75,0,0,0-111.87-3.64,242.31,242.31,0,0,0,9.92,91.26A244.9,244.9,0,0,0,290.72,437.77Z"/><ellipse class="cls-9" cx="472.19" cy="458.78" rx="61.76" ry="56.69" transform="translate(-72.7 89.27) rotate(-10.03)"/><ellipse class="cls-10" cx="472.19" cy="458.78" rx="52.94" ry="48.59" transform="translate(-72.7 89.27) rotate(-10.03)"/><ellipse class="cls-11" cx="471.16" cy="458.67" rx="46.32" ry="42.52" transform="translate(-72.69 89.08) rotate(-10.03)"/></g></g></svg>