<svg xmlns="http://www.w3.org/2000/svg" viewBox="0 0 214.63 134.83"><defs><style>.cls-1{fill:#009fe3;}.cls-2{fill:#faf194;opacity:0.5;}.cls-3{fill:none;}.cls-4{fill:#a6c5e9;}</style></defs><title>uranus1</title><g id="Layer_2" data-name="Layer 2"><g id="Layer_1-2" data-name="Layer 1"><path class="cls-1" d="M153.36,18.18H61.27a67.4,67.4,0,0,1,92.09,0Z"/><path class="cls-2" d="M214.63,61.62c0,17-19.74,32-49.52,40.52H49.52C19.74,93.59,0,78.64,0,61.62,0,42.45,25,25.9,61.27,18.18A67.41,67.41,0,0,0,47.89,35.56c-16.61,6.54-27,15.8-27,26.06,0,9.05,8.07,17.32,21.38,23.63,15.84,7.51,39.1,12.25,65,12.25s49.19-4.74,65-12.26c13.31-6.3,21.38-14.57,21.38-23.62,0-10.26-10.36-19.51-27-26a67.88,67.88,0,0,0-13.39-17.39C189.59,25.9,214.63,42.45,214.63,61.62Z"/><path class="cls-1" d="M166.75,35.57a67.58,67.58,0,0,1,5.59,49.67Z"/><path class="cls-1" d="M166.75,35.57l5.59,49.67c-15.84,7.52-39.1,12.26-65,12.26s-49.18-4.74-65-12.25l5.6-49.69A67.41,67.41,0,0,1,61.27,18.18h92.09A67.88,67.88,0,0,1,166.75,35.57Z"/><path class="cls-2" d="M136.94,107.85a190.73,190.73,0,0,0,28.17-5.71H49.52c16.68,4.79,36.51,7.56,57.79,7.56q6.8,0,13.36-.38Z"/><path class="cls-1" d="M165.11,102.14a67.43,67.43,0,0,1-115.59,0c16.68,4.79,36.51,7.56,57.79,7.56q6.8,0,13.36-.38,8.35-.45,16.27-1.47A190.73,190.73,0,0,0,165.11,102.14Z"/><path class="cls-1" d="M47.89,35.56l-5.6,49.69a67.58,67.58,0,0,1,5.6-49.69Z"/><path class="cls-3" d="M61.27,18.18a67.4,67.4,0,0,1,92.09,0"/><path class="cls-3" d="M49.52,102.14a67.43,67.43,0,0,0,115.59,0"/><path class="cls-3" d="M166.75,35.57a67.58,67.58,0,0,1,5.59,49.67"/><path class="cls-3" d="M42.29,85.25a67.58,67.58,0,0,1,5.6-49.69"/><path class="cls-3" d="M47.89,35.56c-16.61,6.54-27,15.8-27,26.06,0,9.05,8.07,17.32,21.38,23.63,15.84,7.51,39.1,12.25,65,12.25s49.19-4.74,65-12.26c13.31-6.3,21.38-14.57,21.38-23.62,0-10.26-10.36-19.51-27-26"/><path class="cls-3" d="M47.89,35.56A67.41,67.41,0,0,1,61.27,18.18C25,25.9,0,42.45,0,61.62c0,17,19.74,32,49.52,40.52,16.68,4.79,36.51,7.56,57.79,7.56q6.8,0,13.36-.38,8.35-.45,16.27-1.47a190.73,190.73,0,0,0,28.17-5.71c29.78-8.55,49.52-23.5,49.52-40.52,0-19.17-25-35.72-61.27-43.44a67.88,67.88,0,0,1,13.39,17.39"/><polygon class="cls-4" points="73.68 37.18 62.85 38.27 56.48 29.43 60.96 19.5 71.79 18.41 78.16 27.25 73.68 37.18"/><polygon class="cls-4" points="135.91 34 119.84 37.78 108.53 25.76 113.28 9.95 129.35 6.17 140.67 18.19 135.91 34"/><polygon class="cls-4" points="97.73 38.24 92.23 42.42 85.87 39.75 85 32.9 90.49 28.72 96.86 31.39 97.73 38.24"/><polygon class="cls-4" points="113.64 55.56 103.44 56.98 97.11 48.84 100.99 39.3 111.19 37.89 117.52 46.02 113.64 55.56"/><polygon class="cls-4" points="65.2 77.49 59.87 78.94 55.94 75.05 57.34 69.71 62.67 68.25 66.6 72.14 65.2 77.49"/><path class="cls-4" d="M139.7,109.65l-.61,11-9.8,5-9.19-6,.57-10.25q8.35-.45,16.27-1.47Z"/></g></g></svg>